<svg width="168" height="168" viewBox="0 0 168 168" fill="none" xmlns="http://www.w3.org/2000/svg">
<path d="M0.666992 0.666992H7.33366V7.33366H0.666992V0.666992ZM7.33366 0.666992H14.0003V7.33366H7.33366V0.666992ZM14.0003 0.666992H20.667V7.33366H14.0003V0.666992ZM20.667 0.666992H27.3337V7.33366H20.667V0.666992ZM27.3337 0.666992H34.0003V7.33366H27.3337V0.666992ZM34.0003 0.666992H40.667V7.33366H34.0003V0.666992ZM40.667 0.666992H47.3337V7.33366H40.667V0.666992ZM54.0003 0.666992H60.667V7.33366H54.0003V0.666992ZM67.3337 0.666992H74.0003V7.33366H67.3337V0.666992ZM80.667 0.666992H87.3337V7.33366H80.667V0.666992ZM87.3337 0.666992H94.0003V7.33366H87.3337V0.666992ZM107.334 0.666992H114V7.33366H107.334V0.666992ZM120.667 0.666992H127.334V7.33366H120.667V0.666992ZM127.334 0.666992H134V7.33366H127.334V0.666992ZM134 0.666992H140.667V7.33366H134V0.666992ZM140.667 0.666992H147.334V7.33366H140.667V0.666992ZM147.334 0.666992H154V7.33366H147.334V0.666992ZM154 0.666992H160.667V7.33366H154V0.666992ZM160.667 0.666992H167.334V7.33366H160.667V0.666992ZM0.666992 7.33366H7.33366V14.0003H0.666992V7.33366ZM40.667 7.33366H47.3337V14.0003H40.667V7.33366ZM60.667 7.33366H67.3337V14.0003H60.667V7.33366ZM67.3337 7.33366H74.0003V14.0003H67.3337V7.33366ZM74.0003 7.33366H80.667V14.0003H74.0003V7.33366ZM80.667 7.33366H87.3337V14.0003H80.667V7.33366ZM87.3337 7.33366H94.0003V14.0003H87.3337V7.33366ZM120.667 7.33366H127.334V14.0003H120.667V7.33366ZM160.667 7.33366H167.334V14.0003H160.667V7.33366ZM0.666992 14.0003H7.33366V20.667H0.666992V14.0003ZM14.0003 14.0003H20.667V20.667H14.0003V14.0003ZM20.667 14.0003H27.3337V20.667H20.667V14.0003ZM27.3337 14.0003H34.0003V20.667H27.3337V14.0003ZM40.667 14.0003H47.3337V20.667H40.667V14.0003ZM54.0003 14.0003H60.667V20.667H54.0003V14.0003ZM60.667 14.0003H67.3337V20.667H60.667V14.0003ZM67.3337 14.0003H74.0003V20.667H67.3337V14.0003ZM87.3337 14.0003H94.0003V20.667H87.3337V14.0003ZM94.0003 14.0003H100.667V20.667H94.0003V14.0003ZM120.667 14.0003H127.334V20.667H120.667V14.0003ZM134 14.0003H140.667V20.667H134V14.0003ZM140.667 14.0003H147.334V20.667H140.667V14.0003ZM147.334 14.0003H154V20.667H147.334V14.0003ZM160.667 14.0003H167.334V20.667H160.667V14.0003ZM0.666992 20.667H7.33366V27.3337H0.666992V20.667ZM14.0003 20.667H20.667V27.3337H14.0003V20.667ZM20.667 20.667H27.3337V27.3337H20.667V20.667ZM27.3337 20.667H34.0003V27.3337H27.3337V20.667ZM40.667 20.667H47.3337V27.3337H40.667V20.667ZM54.0003 20.667H60.667V27.3337H54.0003V20.667ZM60.667 20.667H67.3337V27.3337H60.667V20.667ZM67.3337 20.667H74.0003V27.3337H67.3337V20.667ZM80.667 20.667H87.3337V27.3337H80.667V20.667ZM87.3337 20.667H94.0003V27.3337H87.3337V20.667ZM100.667 20.667H107.334V27.3337H100.667V20.667ZM107.334 20.667H114V27.3337H107.334V20.667ZM120.667 20.667H127.334V27.3337H120.667V20.667ZM134 20.667H140.667V27.3337H134V20.667ZM140.667 20.667H147.334V27.3337H140.667V20.667ZM147.334 20.667H154V27.3337H147.334V20.667ZM160.667 20.667H167.334V27.3337H160.667V20.667ZM0.666992 27.3337H7.33366V34.0003H0.666992V27.3337ZM14.0003 27.3337H20.667V34.0003H14.0003V27.3337ZM20.667 27.3337H27.3337V34.0003H20.667V27.3337ZM27.3337 27.3337H34.0003V34.0003H27.3337V27.3337ZM40.667 27.3337H47.3337V34.0003H40.667V27.3337ZM54.0003 27.3337H60.667V34.0003H54.0003V27.3337ZM74.0003 27.3337H80.667V34.0003H74.0003V27.3337ZM80.667 27.3337H87.3337V34.0003H80.667V27.3337ZM87.3337 27.3337H94.0003V34.0003H87.3337V27.3337ZM94.0003 27.3337H100.667V34.0003H94.0003V27.3337ZM100.667 27.3337H107.334V34.0003H100.667V27.3337ZM107.334 27.3337H114V34.0003H107.334V27.3337ZM120.667 27.3337H127.334V34.0003H120.667V27.3337ZM134 27.3337H140.667V34.0003H134V27.3337ZM140.667 27.3337H147.334V34.0003H140.667V27.3337ZM147.334 27.3337H154V34.0003H147.334V27.3337ZM160.667 27.3337H167.334V34.0003H160.667V27.3337ZM0.666992 34.0003H7.33366V40.667H0.666992V34.0003ZM40.667 34.0003H47.3337V40.667H40.667V34.0003ZM67.3337 34.0003H74.0003V40.667H67.3337V34.0003ZM74.0003 34.0003H80.667V40.667H74.0003V34.0003ZM94.0003 34.0003H100.667V40.667H94.0003V34.0003ZM107.334 34.0003H114V40.667H107.334V34.0003ZM120.667 34.0003H127.334V40.667H120.667V34.0003ZM160.667 34.0003H167.334V40.667H160.667V34.0003ZM0.666992 40.667H7.33366V47.3337H0.666992V40.667ZM7.33366 40.667H14.0003V47.3337H7.33366V40.667ZM14.0003 40.667H20.667V47.3337H14.0003V40.667ZM20.667 40.667H27.3337V47.3337H20.667V40.667ZM27.3337 40.667H34.0003V47.3337H27.3337V40.667ZM34.0003 40.667H40.667V47.3337H34.0003V40.667ZM40.667 40.667H47.3337V47.3337H40.667V40.667ZM54.0003 40.667H60.667V47.3337H54.0003V40.667ZM67.3337 40.667H74.0003V47.3337H67.3337V40.667ZM80.667 40.667H87.3337V47.3337H80.667V40.667ZM94.0003 40.667H100.667V47.3337H94.0003V40.667ZM107.334 40.667H114V47.3337H107.334V40.667ZM120.667 40.667H127.334V47.3337H120.667V40.667ZM127.334 40.667H134V47.3337H127.334V40.667ZM134 40.667H140.667V47.3337H134V40.667ZM140.667 40.667H147.334V47.3337H140.667V40.667ZM147.334 40.667H154V47.3337H147.334V40.667ZM154 40.667H160.667V47.3337H154V40.667ZM160.667 40.667H167.334V47.3337H160.667V40.667ZM67.3337 47.3337H74.0003V54.0003H67.3337V47.3337ZM80.667 47.3337H87.3337V54.0003H80.667V47.3337ZM100.667 47.3337H107.334V54.0003H100.667V47.3337ZM107.334 47.3337H114V54.0003H107.334V47.3337ZM0.666992 54.0003H7.33366V60.667H0.666992V54.0003ZM7.33366 54.0003H14.0003V60.667H7.33366V54.0003ZM14.0003 54.0003H20.667V60.667H14.0003V54.0003ZM20.667 54.0003H27.3337V60.667H20.667V54.0003ZM40.667 54.0003H47.3337V60.667H40.667V54.0003ZM54.0003 54.0003H60.667V60.667H54.0003V54.0003ZM67.3337 54.0003H74.0003V60.667H67.3337V54.0003ZM74.0003 54.0003H80.667V60.667H74.0003V54.0003ZM80.667 54.0003H87.3337V60.667H80.667V54.0003ZM94.0003 54.0003H100.667V60.667H94.0003V54.0003ZM100.667 54.0003H107.334V60.667H100.667V54.0003ZM107.334 54.0003H114V60.667H107.334V54.0003ZM114 54.0003H120.667V60.667H114V54.0003ZM134 54.0003H140.667V60.667H134V54.0003ZM140.667 54.0003H147.334V60.667H140.667V54.0003ZM147.334 54.0003H154V60.667H147.334V54.0003ZM160.667 54.0003H167.334V60.667H160.667V54.0003ZM0.666992 60.667H7.33366V67.3337H0.666992V60.667ZM14.0003 60.667H20.667V67.3337H14.0003V60.667ZM20.667 60.667H27.3337V67.3337H20.667V60.667ZM47.3337 60.667H54.0003V67.3337H47.3337V60.667ZM67.3337 60.667H74.0003V67.3337H67.3337V60.667ZM80.667 60.667H87.3337V67.3337H80.667V60.667ZM87.3337 60.667H94.0003V67.3337H87.3337V60.667ZM127.334 60.667H134V67.3337H127.334V60.667ZM154 60.667H160.667V67.3337H154V60.667ZM20.667 67.3337H27.3337V74.0003H20.667V67.3337ZM27.3337 67.3337H34.0003V74.0003H27.3337V67.3337ZM40.667 67.3337H47.3337V74.0003H40.667V67.3337ZM54.0003 67.3337H60.667V74.0003H54.0003V67.3337ZM60.667 67.3337H67.3337V74.0003H60.667V67.3337ZM67.3337 67.3337H74.0003V74.0003H67.3337V67.3337ZM74.0003 67.3337H80.667V74.0003H74.0003V67.3337ZM80.667 67.3337H87.3337V74.0003H80.667V67.3337ZM87.3337 67.3337H94.0003V74.0003H87.3337V67.3337ZM94.0003 67.3337H100.667V74.0003H94.0003V67.3337ZM107.334 67.3337H114V74.0003H107.334V67.3337ZM120.667 67.3337H127.334V74.0003H120.667V67.3337ZM127.334 67.3337H134V74.0003H127.334V67.3337ZM14.0003 74.0003H20.667V80.667H14.0003V74.0003ZM20.667 74.0003H27.3337V80.667H20.667V74.0003ZM47.3337 74.0003H54.0003V80.667H47.3337V74.0003ZM60.667 74.0003H67.3337V80.667H60.667V74.0003ZM67.3337 74.0003H74.0003V80.667H67.3337V74.0003ZM87.3337 74.0003H94.0003V80.667H87.3337V74.0003ZM100.667 74.0003H107.334V80.667H100.667V74.0003ZM107.334 74.0003H114V80.667H107.334V74.0003ZM120.667 74.0003H127.334V80.667H120.667V74.0003ZM134 74.0003H140.667V80.667H134V74.0003ZM140.667 74.0003H147.334V80.667H140.667V74.0003ZM147.334 74.0003H154V80.667H147.334V74.0003ZM20.667 80.667H27.3337V87.3337H20.667V80.667ZM27.3337 80.667H34.0003V87.3337H27.3337V80.667ZM34.0003 80.667H40.667V87.3337H34.0003V80.667ZM40.667 80.667H47.3337V87.3337H40.667V80.667ZM54.0003 80.667H60.667V87.3337H54.0003V80.667ZM60.667 80.667H67.3337V87.3337H60.667V80.667ZM67.3337 80.667H74.0003V87.3337H67.3337V80.667ZM80.667 80.667H87.3337V87.3337H80.667V80.667ZM87.3337 80.667H94.0003V87.3337H87.3337V80.667ZM94.0003 80.667H100.667V87.3337H94.0003V80.667ZM114 80.667H120.667V87.3337H114V80.667ZM120.667 80.667H127.334V87.3337H120.667V80.667ZM134 80.667H140.667V87.3337H134V80.667ZM147.334 80.667H154V87.3337H147.334V80.667ZM154 80.667H160.667V87.3337H154V80.667ZM160.667 80.667H167.334V87.3337H160.667V80.667ZM27.3337 87.3337H34.0003V94.0003H27.3337V87.3337ZM60.667 87.3337H67.3337V94.0003H60.667V87.3337ZM74.0003 87.3337H80.667V94.0003H74.0003V87.3337ZM80.667 87.3337H87.3337V94.0003H80.667V87.3337ZM87.3337 87.3337H94.0003V94.0003H87.3337V87.3337ZM94.0003 87.3337H100.667V94.0003H94.0003V87.3337ZM100.667 87.3337H107.334V94.0003H100.667V87.3337ZM107.334 87.3337H114V94.0003H107.334V87.3337ZM114 87.3337H120.667V94.0003H114V87.3337ZM120.667 87.3337H127.334V94.0003H120.667V87.3337ZM127.334 87.3337H134V94.0003H127.334V87.3337ZM134 87.3337H140.667V94.0003H134V87.3337ZM160.667 87.3337H167.334V94.0003H160.667V87.3337ZM7.33366 94.0003H14.0003V100.667H7.33366V94.0003ZM27.3337 94.0003H34.0003V100.667H27.3337V94.0003ZM40.667 94.0003H47.3337V100.667H40.667V94.0003ZM60.667 94.0003H67.3337V100.667H60.667V94.0003ZM74.0003 94.0003H80.667V100.667H74.0003V94.0003ZM94.0003 94.0003H100.667V100.667H94.0003V94.0003ZM107.334 94.0003H114V100.667H107.334V94.0003ZM114 94.0003H120.667V100.667H114V94.0003ZM134 94.0003H140.667V100.667H134V94.0003ZM147.334 94.0003H154V100.667H147.334V94.0003ZM154 94.0003H160.667V100.667H154V94.0003ZM0.666992 100.667H7.33366V107.334H0.666992V100.667ZM14.0003 100.667H20.667V107.334H14.0003V100.667ZM47.3337 100.667H54.0003V107.334H47.3337V100.667ZM54.0003 100.667H60.667V107.334H54.0003V100.667ZM74.0003 100.667H80.667V107.334H74.0003V100.667ZM107.334 100.667H114V107.334H107.334V100.667ZM114 100.667H120.667V107.334H114V100.667ZM120.667 100.667H127.334V107.334H120.667V100.667ZM127.334 100.667H134V107.334H127.334V100.667ZM134 100.667H140.667V107.334H134V100.667ZM160.667 100.667H167.334V107.334H160.667V100.667ZM14.0003 107.334H20.667V114H14.0003V107.334ZM34.0003 107.334H40.667V114H34.0003V107.334ZM40.667 107.334H47.3337V114H40.667V107.334ZM60.667 107.334H67.3337V114H60.667V107.334ZM67.3337 107.334H74.0003V114H67.3337V107.334ZM87.3337 107.334H94.0003V114H87.3337V107.334ZM100.667 107.334H107.334V114H100.667V107.334ZM107.334 107.334H114V114H107.334V107.334ZM114 107.334H120.667V114H114V107.334ZM120.667 107.334H127.334V114H120.667V107.334ZM127.334 107.334H134V114H127.334V107.334ZM134 107.334H140.667V114H134V107.334ZM140.667 107.334H147.334V114H140.667V107.334ZM147.334 107.334H154V114H147.334V107.334ZM154 107.334H160.667V114H154V107.334ZM160.667 107.334H167.334V114H160.667V107.334ZM54.0003 114H60.667V120.667H54.0003V114ZM60.667 114H67.3337V120.667H60.667V114ZM67.3337 114H74.0003V120.667H67.3337V114ZM107.334 114H114V120.667H107.334V114ZM134 114H140.667V120.667H134V114ZM147.334 114H154V120.667H147.334V114ZM160.667 114H167.334V120.667H160.667V114ZM0.666992 120.667H7.33366V127.334H0.666992V120.667ZM7.33366 120.667H14.0003V127.334H7.33366V120.667ZM14.0003 120.667H20.667V127.334H14.0003V120.667ZM20.667 120.667H27.3337V127.334H20.667V120.667ZM27.3337 120.667H34.0003V127.334H27.3337V120.667ZM34.0003 120.667H40.667V127.334H34.0003V120.667ZM40.667 120.667H47.3337V127.334H40.667V120.667ZM67.3337 120.667H74.0003V127.334H67.3337V120.667ZM80.667 120.667H87.3337V127.334H80.667V120.667ZM94.0003 120.667H100.667V127.334H94.0003V120.667ZM107.334 120.667H114V127.334H107.334V120.667ZM120.667 120.667H127.334V127.334H120.667V120.667ZM134 120.667H140.667V127.334H134V120.667ZM147.334 120.667H154V127.334H147.334V120.667ZM154 120.667H160.667V127.334H154V120.667ZM160.667 120.667H167.334V127.334H160.667V120.667ZM0.666992 127.334H7.33366V134H0.666992V127.334ZM40.667 127.334H47.3337V134H40.667V127.334ZM60.667 127.334H67.3337V134H60.667V127.334ZM74.0003 127.334H80.667V134H74.0003V127.334ZM80.667 127.334H87.3337V134H80.667V127.334ZM100.667 127.334H107.334V134H100.667V127.334ZM107.334 127.334H114V134H107.334V127.334ZM134 127.334H140.667V134H134V127.334ZM0.666992 134H7.33366V140.667H0.666992V134ZM14.0003 134H20.667V140.667H14.0003V134ZM20.667 134H27.3337V140.667H20.667V134ZM27.3337 134H34.0003V140.667H27.3337V134ZM40.667 134H47.3337V140.667H40.667V134ZM60.667 134H67.3337V140.667H60.667V134ZM80.667 134H87.3337V140.667H80.667V134ZM94.0003 134H100.667V140.667H94.0003V134ZM107.334 134H114V140.667H107.334V134ZM114 134H120.667V140.667H114V134ZM120.667 134H127.334V140.667H120.667V134ZM127.334 134H134V140.667H127.334V134ZM134 134H140.667V140.667H134V134ZM140.667 134H147.334V140.667H140.667V134ZM160.667 134H167.334V140.667H160.667V134ZM0.666992 140.667H7.33366V147.334H0.666992V140.667ZM14.0003 140.667H20.667V147.334H14.0003V140.667ZM20.667 140.667H27.3337V147.334H20.667V140.667ZM27.3337 140.667H34.0003V147.334H27.3337V140.667ZM40.667 140.667H47.3337V147.334H40.667V140.667ZM54.0003 140.667H60.667V147.334H54.0003V140.667ZM67.3337 140.667H74.0003V147.334H67.3337V140.667ZM74.0003 140.667H80.667V147.334H74.0003V140.667ZM114 140.667H120.667V147.334H114V140.667ZM120.667 140.667H127.334V147.334H120.667V140.667ZM134 140.667H140.667V147.334H134V140.667ZM140.667 140.667H147.334V147.334H140.667V140.667ZM147.334 140.667H154V147.334H147.334V140.667ZM154 140.667H160.667V147.334H154V140.667ZM160.667 140.667H167.334V147.334H160.667V140.667ZM0.666992 147.334H7.33366V154H0.666992V147.334ZM14.0003 147.334H20.667V154H14.0003V147.334ZM20.667 147.334H27.3337V154H20.667V147.334ZM27.3337 147.334H34.0003V154H27.3337V147.334ZM40.667 147.334H47.3337V154H40.667V147.334ZM54.0003 147.334H60.667V154H54.0003V147.334ZM60.667 147.334H67.3337V154H60.667V147.334ZM74.0003 147.334H80.667V154H74.0003V147.334ZM80.667 147.334H87.3337V154H80.667V147.334ZM107.334 147.334H114V154H107.334V147.334ZM114 147.334H120.667V154H114V147.334ZM120.667 147.334H127.334V154H120.667V147.334ZM134 147.334H140.667V154H134V147.334ZM147.334 147.334H154V154H147.334V147.334ZM154 147.334H160.667V154H154V147.334ZM0.666992 154H7.33366V160.667H0.666992V154ZM40.667 154H47.3337V160.667H40.667V154ZM54.0003 154H60.667V160.667H54.0003V154ZM60.667 154H67.3337V160.667H60.667V154ZM67.3337 154H74.0003V160.667H67.3337V154ZM87.3337 154H94.0003V160.667H87.3337V154ZM94.0003 154H100.667V160.667H94.0003V154ZM114 154H120.667V160.667H114V154ZM120.667 154H127.334V160.667H120.667V154ZM134 154H140.667V160.667H134V154ZM147.334 154H154V160.667H147.334V154ZM0.666992 160.667H7.33366V167.334H0.666992V160.667ZM7.33366 160.667H14.0003V167.334H7.33366V160.667ZM14.0003 160.667H20.667V167.334H14.0003V160.667ZM20.667 160.667H27.3337V167.334H20.667V160.667ZM27.3337 160.667H34.0003V167.334H27.3337V160.667ZM34.0003 160.667H40.667V167.334H34.0003V160.667ZM40.667 160.667H47.3337V167.334H40.667V160.667ZM54.0003 160.667H60.667V167.334H54.0003V160.667ZM60.667 160.667H67.3337V167.334H60.667V160.667ZM67.3337 160.667H74.0003V167.334H67.3337V160.667ZM74.0003 160.667H80.667V167.334H74.0003V160.667ZM87.3337 160.667H94.0003V167.334H87.3337V160.667ZM120.667 160.667H127.334V167.334H120.667V160.667ZM127.334 160.667H134V167.334H127.334V160.667ZM134 160.667H140.667V167.334H134V160.667ZM140.667 160.667H147.334V167.334H140.667V160.667ZM147.334 160.667H154V167.334H147.334V160.667ZM154 160.667H160.667V167.334H154V160.667ZM160.667 160.667H167.334V167.334H160.667V160.667Z" fill="black"/>
</svg>
