<svg width="80" height="80" viewBox="0 0 80 80" fill="none" xmlns="http://www.w3.org/2000/svg">
<rect width="80" height="80" rx="40" fill="#F5E7F7"/>
<mask id="path-2-inside-1_2853_20588" fill="white">
<path d="M49.5359 44.4056C49.2377 44.3034 48.9394 44.2096 48.6326 44.1415C48.5985 44.0222 48.5389 43.9029 48.4452 43.8176C48.4366 43.8091 47.3288 42.7439 46.0591 41.4827C47.4993 40.0426 48.3685 38.1764 48.5389 36.1653L49.8512 35.0916C50.8056 34.3076 51.138 33.0124 50.6778 31.8705C50.4903 31.4018 50.1665 31.0013 49.7575 30.703C50.4051 30.1406 50.8141 29.314 50.8141 28.3937V26.9791C50.8141 25.3856 49.587 24.0733 48.0191 23.9369V23.0592C48.0191 21.372 46.6471 20 44.9599 20H44.8661L30.0216 24.1159V24.6357C30.0216 25.6924 30.5585 26.6297 31.3766 27.1751V30.1917C30.4562 30.3792 29.6723 31.0013 29.3229 31.8705C28.8627 33.0124 29.195 34.3076 30.1495 35.0916L31.4192 36.1312C31.6152 38.219 32.544 40.0937 33.9415 41.4913L31.6066 43.8262C31.5214 43.9114 31.4618 44.0136 31.4277 44.1329C29.7404 44.5079 28.198 45.3856 27.0221 46.6809C25.6075 48.2318 24.832 50.2599 24.832 52.3732V59.3183C24.832 59.6932 25.1388 60 25.5138 60H54.4869C54.8619 60 55.1686 59.6932 55.1686 59.3183V52.3732C55.1686 48.8027 52.9019 45.5986 49.5359 44.4056ZM31.3766 34.3417L31.0101 34.0435C30.5159 33.6429 30.3455 32.9783 30.5841 32.3818C30.7204 32.0324 31.0187 31.7597 31.3766 31.6148V34.3417ZM46.9539 44.2778L43.2811 47.3541L42.9914 47.0473C42.8891 46.9365 42.7783 46.8343 42.6676 46.7405C42.4034 46.519 42.1222 46.34 41.8239 46.1951C42.642 45.6157 43.1789 44.6527 43.1789 43.579V43.3916C43.8265 43.1274 44.4486 42.7865 45.0195 42.369C45.7864 43.1274 46.4937 43.8262 46.9539 44.2778ZM48.9905 34.0349L48.573 34.3758V31.5978C48.9309 31.7341 49.2632 31.9898 49.4166 32.3732C49.6552 32.9697 49.4848 33.6344 48.9905 34.0349ZM46.8431 27.0473C46.8857 27.0132 46.9198 26.9791 46.9624 26.945C46.9709 26.9365 46.988 26.928 46.9965 26.911C47.0391 26.8683 47.0902 26.8257 47.1328 26.7831C47.1414 26.7746 47.1414 26.7661 47.1499 26.7661C47.184 26.7235 47.2266 26.6894 47.2607 26.6468C47.2692 26.6297 47.2862 26.6212 47.2948 26.6042C47.3374 26.5616 47.3714 26.5104 47.4141 26.4593C47.4481 26.4082 47.4907 26.3571 47.5248 26.3059C47.5333 26.2889 47.5419 26.2804 47.5504 26.2633C47.576 26.2207 47.61 26.1696 47.6356 26.127C47.6441 26.1184 47.6441 26.1099 47.6527 26.1014C47.6867 26.0503 47.7123 25.9906 47.7379 25.931C47.7464 25.9139 47.7549 25.9054 47.7549 25.8884C47.772 25.8372 47.7975 25.7946 47.8146 25.7435C47.8231 25.7265 47.8231 25.7179 47.8316 25.7009C47.8572 25.6412 47.8742 25.5816 47.8913 25.5219C47.8913 25.5049 47.8998 25.4964 47.8998 25.4793C47.9168 25.4282 47.9253 25.3771 47.9424 25.3259C47.9424 25.3174 47.9509 25.3089 47.9509 25.2919C48.7945 25.3856 49.4507 26.1099 49.4507 26.9791V28.3937C49.4507 29.3311 48.6923 30.0895 47.7549 30.0895C46.6301 30.0895 45.6927 29.1777 45.6671 28.0528L45.6586 27.6097C45.6671 27.6097 45.6757 27.6012 45.6842 27.6012C45.7438 27.5841 45.812 27.5671 45.8717 27.5501C45.9313 27.533 45.991 27.5075 46.0506 27.4904C46.0676 27.4819 46.0847 27.4819 46.1017 27.4734C46.1529 27.4563 46.204 27.4308 46.2551 27.4052C46.2636 27.4052 46.2722 27.3967 46.2807 27.3967C46.3403 27.3711 46.3915 27.337 46.4511 27.3115C46.4682 27.3029 46.4767 27.2944 46.4937 27.2859C46.5363 27.2603 46.5789 27.2348 46.6301 27.2092C46.6386 27.2007 46.6556 27.1922 46.6642 27.1836C46.7153 27.1496 46.7664 27.1155 46.8175 27.0729C46.8261 27.0643 46.8346 27.0558 46.8431 27.0473ZM31.4532 25.13L45.0536 21.3634C45.9483 21.4061 46.6642 22.1474 46.6642 23.0592V23.9284V24.6357C46.6642 25.5731 45.9057 26.3315 44.9684 26.3315H44.2696H33.0723C32.3139 26.3315 31.6663 25.8202 31.4532 25.13ZM32.74 35.3046V30.882C32.74 30.8649 32.74 30.8564 32.74 30.8394C32.74 30.8053 32.74 30.7712 32.74 30.7371V27.6694C32.8508 27.6779 32.9616 27.6864 33.0809 27.6864H44.3037L44.3122 28.0784C44.3463 29.7486 45.6075 31.1461 47.2181 31.4018V35.3984C47.2181 35.5177 47.2181 35.6285 47.2095 35.7478C47.2095 35.7733 47.2095 35.7904 47.2095 35.8159C47.1073 37.6055 46.3659 39.2671 45.0792 40.5369C43.7157 41.8918 41.9006 42.6417 39.9833 42.6417C39.9662 42.6417 39.9492 42.6417 39.9322 42.6417C35.9611 42.6161 32.74 39.3268 32.74 35.3046ZM40.9462 51.5296L41.1593 52.6971L38.3131 55.6029L38.6369 53.8389L40.9462 51.5296ZM39.0715 51.4785L39.3697 49.8679H40.648L40.6565 49.902L39.0715 51.4785ZM40.8014 48.5045H39.2078L38.6965 47.533C39.5061 47.0643 40.5201 47.0388 41.3467 47.4904L40.8014 48.5045ZM39.9748 45.4282C39.0289 45.4282 38.2534 44.7209 38.1426 43.8091C38.7136 43.9369 39.3101 44.0051 39.9151 44.0136C39.9407 44.0136 39.9577 44.0136 39.9833 44.0136C40.6054 44.0136 41.2189 43.9455 41.8154 43.8176C41.6876 44.7294 40.9121 45.4282 39.9748 45.4282ZM34.9812 42.386C35.5265 42.7865 36.1316 43.1189 36.7622 43.383V43.5876C36.7622 44.6954 37.3246 45.6753 38.1852 46.2548C37.887 46.4082 37.6058 46.5957 37.3501 46.8257C37.299 46.8683 37.2479 46.9195 37.1968 46.9621L36.7792 47.3711L33.0979 44.2693L34.9812 42.386ZM32.3224 58.6366V54.9212H30.959V58.6366H26.1955V52.3732C26.1955 48.8027 28.7945 45.8372 32.2798 45.3686L36.3872 48.8112C36.6599 49.0328 37.0519 49.0243 37.299 48.7772L37.6313 48.4533L38.083 49.3055L36.3787 58.6451H32.3224V58.6366ZM37.7592 58.6366L37.8785 57.9974L41.4575 54.3417L41.7984 56.1824L39.3101 58.6366H37.7592ZM41.253 58.6366L42.0966 57.81L42.25 58.6366H41.253ZM53.8052 58.6366H49.0161V54.9212H47.6527V58.6366H43.6305L41.9262 49.297L42.4034 48.4022L42.7443 48.7601C42.8806 48.8965 43.0596 48.9732 43.2385 48.9732C43.3919 48.9732 43.5453 48.922 43.6731 48.8112L47.772 45.3686C48.2151 45.4367 48.6582 45.5475 49.0843 45.6924C51.9049 46.6894 53.8052 49.3737 53.8052 52.3732V58.6366Z"/>
</mask>
<path d="M49.5359 44.4056C49.2377 44.3034 48.9394 44.2096 48.6326 44.1415C48.5985 44.0222 48.5389 43.9029 48.4452 43.8176C48.4366 43.8091 47.3288 42.7439 46.0591 41.4827C47.4993 40.0426 48.3685 38.1764 48.5389 36.1653L49.8512 35.0916C50.8056 34.3076 51.138 33.0124 50.6778 31.8705C50.4903 31.4018 50.1665 31.0013 49.7575 30.703C50.4051 30.1406 50.8141 29.314 50.8141 28.3937V26.9791C50.8141 25.3856 49.587 24.0733 48.0191 23.9369V23.0592C48.0191 21.372 46.6471 20 44.9599 20H44.8661L30.0216 24.1159V24.6357C30.0216 25.6924 30.5585 26.6297 31.3766 27.1751V30.1917C30.4562 30.3792 29.6723 31.0013 29.3229 31.8705C28.8627 33.0124 29.195 34.3076 30.1495 35.0916L31.4192 36.1312C31.6152 38.219 32.544 40.0937 33.9415 41.4913L31.6066 43.8262C31.5214 43.9114 31.4618 44.0136 31.4277 44.1329C29.7404 44.5079 28.198 45.3856 27.0221 46.6809C25.6075 48.2318 24.832 50.2599 24.832 52.3732V59.3183C24.832 59.6932 25.1388 60 25.5138 60H54.4869C54.8619 60 55.1686 59.6932 55.1686 59.3183V52.3732C55.1686 48.8027 52.9019 45.5986 49.5359 44.4056ZM31.3766 34.3417L31.0101 34.0435C30.5159 33.6429 30.3455 32.9783 30.5841 32.3818C30.7204 32.0324 31.0187 31.7597 31.3766 31.6148V34.3417ZM46.9539 44.2778L43.2811 47.3541L42.9914 47.0473C42.8891 46.9365 42.7783 46.8343 42.6676 46.7405C42.4034 46.519 42.1222 46.34 41.8239 46.1951C42.642 45.6157 43.1789 44.6527 43.1789 43.579V43.3916C43.8265 43.1274 44.4486 42.7865 45.0195 42.369C45.7864 43.1274 46.4937 43.8262 46.9539 44.2778ZM48.9905 34.0349L48.573 34.3758V31.5978C48.9309 31.7341 49.2632 31.9898 49.4166 32.3732C49.6552 32.9697 49.4848 33.6344 48.9905 34.0349ZM46.8431 27.0473C46.8857 27.0132 46.9198 26.9791 46.9624 26.945C46.9709 26.9365 46.988 26.928 46.9965 26.911C47.0391 26.8683 47.0902 26.8257 47.1328 26.7831C47.1414 26.7746 47.1414 26.7661 47.1499 26.7661C47.184 26.7235 47.2266 26.6894 47.2607 26.6468C47.2692 26.6297 47.2862 26.6212 47.2948 26.6042C47.3374 26.5616 47.3714 26.5104 47.4141 26.4593C47.4481 26.4082 47.4907 26.3571 47.5248 26.3059C47.5333 26.2889 47.5419 26.2804 47.5504 26.2633C47.576 26.2207 47.61 26.1696 47.6356 26.127C47.6441 26.1184 47.6441 26.1099 47.6527 26.1014C47.6867 26.0503 47.7123 25.9906 47.7379 25.931C47.7464 25.9139 47.7549 25.9054 47.7549 25.8884C47.772 25.8372 47.7975 25.7946 47.8146 25.7435C47.8231 25.7265 47.8231 25.7179 47.8316 25.7009C47.8572 25.6412 47.8742 25.5816 47.8913 25.5219C47.8913 25.5049 47.8998 25.4964 47.8998 25.4793C47.9168 25.4282 47.9253 25.3771 47.9424 25.3259C47.9424 25.3174 47.9509 25.3089 47.9509 25.2919C48.7945 25.3856 49.4507 26.1099 49.4507 26.9791V28.3937C49.4507 29.3311 48.6923 30.0895 47.7549 30.0895C46.6301 30.0895 45.6927 29.1777 45.6671 28.0528L45.6586 27.6097C45.6671 27.6097 45.6757 27.6012 45.6842 27.6012C45.7438 27.5841 45.812 27.5671 45.8717 27.5501C45.9313 27.533 45.991 27.5075 46.0506 27.4904C46.0676 27.4819 46.0847 27.4819 46.1017 27.4734C46.1529 27.4563 46.204 27.4308 46.2551 27.4052C46.2636 27.4052 46.2722 27.3967 46.2807 27.3967C46.3403 27.3711 46.3915 27.337 46.4511 27.3115C46.4682 27.3029 46.4767 27.2944 46.4937 27.2859C46.5363 27.2603 46.5789 27.2348 46.6301 27.2092C46.6386 27.2007 46.6556 27.1922 46.6642 27.1836C46.7153 27.1496 46.7664 27.1155 46.8175 27.0729C46.8261 27.0643 46.8346 27.0558 46.8431 27.0473ZM31.4532 25.13L45.0536 21.3634C45.9483 21.4061 46.6642 22.1474 46.6642 23.0592V23.9284V24.6357C46.6642 25.5731 45.9057 26.3315 44.9684 26.3315H44.2696H33.0723C32.3139 26.3315 31.6663 25.8202 31.4532 25.13ZM32.74 35.3046V30.882C32.74 30.8649 32.74 30.8564 32.74 30.8394C32.74 30.8053 32.74 30.7712 32.74 30.7371V27.6694C32.8508 27.6779 32.9616 27.6864 33.0809 27.6864H44.3037L44.3122 28.0784C44.3463 29.7486 45.6075 31.1461 47.2181 31.4018V35.3984C47.2181 35.5177 47.2181 35.6285 47.2095 35.7478C47.2095 35.7733 47.2095 35.7904 47.2095 35.8159C47.1073 37.6055 46.3659 39.2671 45.0792 40.5369C43.7157 41.8918 41.9006 42.6417 39.9833 42.6417C39.9662 42.6417 39.9492 42.6417 39.9322 42.6417C35.9611 42.6161 32.74 39.3268 32.74 35.3046ZM40.9462 51.5296L41.1593 52.6971L38.3131 55.6029L38.6369 53.8389L40.9462 51.5296ZM39.0715 51.4785L39.3697 49.8679H40.648L40.6565 49.902L39.0715 51.4785ZM40.8014 48.5045H39.2078L38.6965 47.533C39.5061 47.0643 40.5201 47.0388 41.3467 47.4904L40.8014 48.5045ZM39.9748 45.4282C39.0289 45.4282 38.2534 44.7209 38.1426 43.8091C38.7136 43.9369 39.3101 44.0051 39.9151 44.0136C39.9407 44.0136 39.9577 44.0136 39.9833 44.0136C40.6054 44.0136 41.2189 43.9455 41.8154 43.8176C41.6876 44.7294 40.9121 45.4282 39.9748 45.4282ZM34.9812 42.386C35.5265 42.7865 36.1316 43.1189 36.7622 43.383V43.5876C36.7622 44.6954 37.3246 45.6753 38.1852 46.2548C37.887 46.4082 37.6058 46.5957 37.3501 46.8257C37.299 46.8683 37.2479 46.9195 37.1968 46.9621L36.7792 47.3711L33.0979 44.2693L34.9812 42.386ZM32.3224 58.6366V54.9212H30.959V58.6366H26.1955V52.3732C26.1955 48.8027 28.7945 45.8372 32.2798 45.3686L36.3872 48.8112C36.6599 49.0328 37.0519 49.0243 37.299 48.7772L37.6313 48.4533L38.083 49.3055L36.3787 58.6451H32.3224V58.6366ZM37.7592 58.6366L37.8785 57.9974L41.4575 54.3417L41.7984 56.1824L39.3101 58.6366H37.7592ZM41.253 58.6366L42.0966 57.81L42.25 58.6366H41.253ZM53.8052 58.6366H49.0161V54.9212H47.6527V58.6366H43.6305L41.9262 49.297L42.4034 48.4022L42.7443 48.7601C42.8806 48.8965 43.0596 48.9732 43.2385 48.9732C43.3919 48.9732 43.5453 48.922 43.6731 48.8112L47.772 45.3686C48.2151 45.4367 48.6582 45.5475 49.0843 45.6924C51.9049 46.6894 53.8052 49.3737 53.8052 52.3732V58.6366Z" fill="#4A148C" stroke="#F5E7F7" stroke-width="0.5" mask="url(#path-2-inside-1_2853_20588)"/>
</svg>
