<svg width="180" height="180" viewBox="0 0 180 180" fill="none" xmlns="http://www.w3.org/2000/svg">
<g clip-path="url(#clip0_2433_333)">
<path d="M180 0H0V180H180V0Z" fill="white"/>
<path d="M6.66602 6.66675H13.3327V13.3334H6.66602V6.66675ZM13.3327 6.66675H19.9993V13.3334H13.3327V6.66675ZM19.9993 6.66675H26.666V13.3334H19.9993V6.66675ZM26.666 6.66675H33.3327V13.3334H26.666V6.66675ZM33.3327 6.66675H39.9993V13.3334H33.3327V6.66675ZM39.9993 6.66675H46.666V13.3334H39.9993V6.66675ZM46.666 6.66675H53.3327V13.3334H46.666V6.66675ZM59.9993 6.66675H66.666V13.3334H59.9993V6.66675ZM73.3327 6.66675H79.9993V13.3334H73.3327V6.66675ZM86.666 6.66675H93.3327V13.3334H86.666V6.66675ZM93.3327 6.66675H99.9993V13.3334H93.3327V6.66675ZM113.333 6.66675H119.999V13.3334H113.333V6.66675ZM126.666 6.66675H133.333V13.3334H126.666V6.66675ZM133.333 6.66675H139.999V13.3334H133.333V6.66675ZM139.999 6.66675H146.666V13.3334H139.999V6.66675ZM146.666 6.66675H153.333V13.3334H146.666V6.66675ZM153.333 6.66675H159.999V13.3334H153.333V6.66675ZM159.999 6.66675H166.666V13.3334H159.999V6.66675ZM166.666 6.66675H173.333V13.3334H166.666V6.66675ZM6.66602 13.3334H13.3327V20.0001H6.66602V13.3334ZM46.666 13.3334H53.3327V20.0001H46.666V13.3334ZM66.666 13.3334H73.3327V20.0001H66.666V13.3334ZM73.3327 13.3334H79.9993V20.0001H73.3327V13.3334ZM79.9993 13.3334H86.666V20.0001H79.9993V13.3334ZM86.666 13.3334H93.3327V20.0001H86.666V13.3334ZM93.3327 13.3334H99.9993V20.0001H93.3327V13.3334ZM126.666 13.3334H133.333V20.0001H126.666V13.3334ZM166.666 13.3334H173.333V20.0001H166.666V13.3334ZM6.66602 20.0001H13.3327V26.6667H6.66602V20.0001ZM19.9993 20.0001H26.666V26.6667H19.9993V20.0001ZM26.666 20.0001H33.3327V26.6667H26.666V20.0001ZM33.3327 20.0001H39.9993V26.6667H33.3327V20.0001ZM46.666 20.0001H53.3327V26.6667H46.666V20.0001ZM59.9993 20.0001H66.666V26.6667H59.9993V20.0001ZM66.666 20.0001H73.3327V26.6667H66.666V20.0001ZM73.3327 20.0001H79.9993V26.6667H73.3327V20.0001ZM93.3327 20.0001H99.9993V26.6667H93.3327V20.0001ZM99.9993 20.0001H106.666V26.6667H99.9993V20.0001ZM126.666 20.0001H133.333V26.6667H126.666V20.0001ZM139.999 20.0001H146.666V26.6667H139.999V20.0001ZM146.666 20.0001H153.333V26.6667H146.666V20.0001ZM153.333 20.0001H159.999V26.6667H153.333V20.0001ZM166.666 20.0001H173.333V26.6667H166.666V20.0001ZM6.66602 26.6667H13.3327V33.3334H6.66602V26.6667ZM19.9993 26.6667H26.666V33.3334H19.9993V26.6667ZM26.666 26.6667H33.3327V33.3334H26.666V26.6667ZM33.3327 26.6667H39.9993V33.3334H33.3327V26.6667ZM46.666 26.6667H53.3327V33.3334H46.666V26.6667ZM59.9993 26.6667H66.666V33.3334H59.9993V26.6667ZM66.666 26.6667H73.3327V33.3334H66.666V26.6667ZM73.3327 26.6667H79.9993V33.3334H73.3327V26.6667ZM86.666 26.6667H93.3327V33.3334H86.666V26.6667ZM93.3327 26.6667H99.9993V33.3334H93.3327V26.6667ZM106.666 26.6667H113.333V33.3334H106.666V26.6667ZM113.333 26.6667H119.999V33.3334H113.333V26.6667ZM126.666 26.6667H133.333V33.3334H126.666V26.6667ZM139.999 26.6667H146.666V33.3334H139.999V26.6667ZM146.666 26.6667H153.333V33.3334H146.666V26.6667ZM153.333 26.6667H159.999V33.3334H153.333V26.6667ZM166.666 26.6667H173.333V33.3334H166.666V26.6667ZM6.66602 33.3334H13.3327V40.0001H6.66602V33.3334ZM19.9993 33.3334H26.666V40.0001H19.9993V33.3334ZM26.666 33.3334H33.3327V40.0001H26.666V33.3334ZM33.3327 33.3334H39.9993V40.0001H33.3327V33.3334ZM46.666 33.3334H53.3327V40.0001H46.666V33.3334ZM59.9993 33.3334H66.666V40.0001H59.9993V33.3334ZM79.9993 33.3334H86.666V40.0001H79.9993V33.3334ZM86.666 33.3334H93.3327V40.0001H86.666V33.3334ZM93.3327 33.3334H99.9993V40.0001H93.3327V33.3334ZM99.9993 33.3334H106.666V40.0001H99.9993V33.3334ZM106.666 33.3334H113.333V40.0001H106.666V33.3334ZM113.333 33.3334H119.999V40.0001H113.333V33.3334ZM126.666 33.3334H133.333V40.0001H126.666V33.3334ZM139.999 33.3334H146.666V40.0001H139.999V33.3334ZM146.666 33.3334H153.333V40.0001H146.666V33.3334ZM153.333 33.3334H159.999V40.0001H153.333V33.3334ZM166.666 33.3334H173.333V40.0001H166.666V33.3334ZM6.66602 40.0001H13.3327V46.6667H6.66602V40.0001ZM46.666 40.0001H53.3327V46.6667H46.666V40.0001ZM73.3327 40.0001H79.9993V46.6667H73.3327V40.0001ZM79.9993 40.0001H86.666V46.6667H79.9993V40.0001ZM99.9993 40.0001H106.666V46.6667H99.9993V40.0001ZM113.333 40.0001H119.999V46.6667H113.333V40.0001ZM126.666 40.0001H133.333V46.6667H126.666V40.0001ZM166.666 40.0001H173.333V46.6667H166.666V40.0001ZM6.66602 46.6667H13.3327V53.3334H6.66602V46.6667ZM13.3327 46.6667H19.9993V53.3334H13.3327V46.6667ZM19.9993 46.6667H26.666V53.3334H19.9993V46.6667ZM26.666 46.6667H33.3327V53.3334H26.666V46.6667ZM33.3327 46.6667H39.9993V53.3334H33.3327V46.6667ZM39.9993 46.6667H46.666V53.3334H39.9993V46.6667ZM46.666 46.6667H53.3327V53.3334H46.666V46.6667ZM59.9993 46.6667H66.666V53.3334H59.9993V46.6667ZM73.3327 46.6667H79.9993V53.3334H73.3327V46.6667ZM86.666 46.6667H93.3327V53.3334H86.666V46.6667ZM99.9993 46.6667H106.666V53.3334H99.9993V46.6667ZM113.333 46.6667H119.999V53.3334H113.333V46.6667ZM126.666 46.6667H133.333V53.3334H126.666V46.6667ZM133.333 46.6667H139.999V53.3334H133.333V46.6667ZM139.999 46.6667H146.666V53.3334H139.999V46.6667ZM146.666 46.6667H153.333V53.3334H146.666V46.6667ZM153.333 46.6667H159.999V53.3334H153.333V46.6667ZM159.999 46.6667H166.666V53.3334H159.999V46.6667ZM166.666 46.6667H173.333V53.3334H166.666V46.6667ZM73.3327 53.3334H79.9993V60.0001H73.3327V53.3334ZM86.666 53.3334H93.3327V60.0001H86.666V53.3334ZM106.666 53.3334H113.333V60.0001H106.666V53.3334ZM113.333 53.3334H119.999V60.0001H113.333V53.3334ZM6.66602 60.0001H13.3327V66.6667H6.66602V60.0001ZM13.3327 60.0001H19.9993V66.6667H13.3327V60.0001ZM19.9993 60.0001H26.666V66.6667H19.9993V60.0001ZM26.666 60.0001H33.3327V66.6667H26.666V60.0001ZM46.666 60.0001H53.3327V66.6667H46.666V60.0001ZM59.9993 60.0001H66.666V66.6667H59.9993V60.0001ZM73.3327 60.0001H79.9993V66.6667H73.3327V60.0001ZM79.9993 60.0001H86.666V66.6667H79.9993V60.0001ZM86.666 60.0001H93.3327V66.6667H86.666V60.0001ZM99.9993 60.0001H106.666V66.6667H99.9993V60.0001ZM106.666 60.0001H113.333V66.6667H106.666V60.0001ZM113.333 60.0001H119.999V66.6667H113.333V60.0001ZM119.999 60.0001H126.666V66.6667H119.999V60.0001ZM139.999 60.0001H146.666V66.6667H139.999V60.0001ZM146.666 60.0001H153.333V66.6667H146.666V60.0001ZM153.333 60.0001H159.999V66.6667H153.333V60.0001ZM166.666 60.0001H173.333V66.6667H166.666V60.0001ZM6.66602 66.6667H13.3327V73.3334H6.66602V66.6667ZM19.9993 66.6667H26.666V73.3334H19.9993V66.6667ZM26.666 66.6667H33.3327V73.3334H26.666V66.6667ZM53.3327 66.6667H59.9993V73.3334H53.3327V66.6667ZM73.3327 66.6667H79.9993V73.3334H73.3327V66.6667ZM86.666 66.6667H93.3327V73.3334H86.666V66.6667ZM93.3327 66.6667H99.9993V73.3334H93.3327V66.6667ZM133.333 66.6667H139.999V73.3334H133.333V66.6667ZM159.999 66.6667H166.666V73.3334H159.999V66.6667ZM26.666 73.3334H33.3327V80.0001H26.666V73.3334ZM33.3327 73.3334H39.9993V80.0001H33.3327V73.3334ZM46.666 73.3334H53.3327V80.0001H46.666V73.3334ZM59.9993 73.3334H66.666V80.0001H59.9993V73.3334ZM66.666 73.3334H73.3327V80.0001H66.666V73.3334ZM73.3327 73.3334H79.9993V80.0001H73.3327V73.3334ZM79.9993 73.3334H86.666V80.0001H79.9993V73.3334ZM86.666 73.3334H93.3327V80.0001H86.666V73.3334ZM93.3327 73.3334H99.9993V80.0001H93.3327V73.3334ZM99.9993 73.3334H106.666V80.0001H99.9993V73.3334ZM113.333 73.3334H119.999V80.0001H113.333V73.3334ZM126.666 73.3334H133.333V80.0001H126.666V73.3334ZM133.333 73.3334H139.999V80.0001H133.333V73.3334ZM19.9993 80.0001H26.666V86.6667H19.9993V80.0001ZM26.666 80.0001H33.3327V86.6667H26.666V80.0001ZM53.3327 80.0001H59.9993V86.6667H53.3327V80.0001ZM66.666 80.0001H73.3327V86.6667H66.666V80.0001ZM73.3327 80.0001H79.9993V86.6667H73.3327V80.0001ZM93.3327 80.0001H99.9993V86.6667H93.3327V80.0001ZM106.666 80.0001H113.333V86.6667H106.666V80.0001ZM113.333 80.0001H119.999V86.6667H113.333V80.0001ZM126.666 80.0001H133.333V86.6667H126.666V80.0001ZM139.999 80.0001H146.666V86.6667H139.999V80.0001ZM146.666 80.0001H153.333V86.6667H146.666V80.0001ZM153.333 80.0001H159.999V86.6667H153.333V80.0001ZM26.666 86.6667H33.3327V93.3334H26.666V86.6667ZM33.3327 86.6667H39.9993V93.3334H33.3327V86.6667ZM39.9993 86.6667H46.666V93.3334H39.9993V86.6667ZM46.666 86.6667H53.3327V93.3334H46.666V86.6667ZM59.9993 86.6667H66.666V93.3334H59.9993V86.6667ZM66.666 86.6667H73.3327V93.3334H66.666V86.6667ZM73.3327 86.6667H79.9993V93.3334H73.3327V86.6667ZM86.666 86.6667H93.3327V93.3334H86.666V86.6667ZM93.3327 86.6667H99.9993V93.3334H93.3327V86.6667ZM99.9993 86.6667H106.666V93.3334H99.9993V86.6667ZM119.999 86.6667H126.666V93.3334H119.999V86.6667ZM126.666 86.6667H133.333V93.3334H126.666V86.6667ZM139.999 86.6667H146.666V93.3334H139.999V86.6667ZM153.333 86.6667H159.999V93.3334H153.333V86.6667ZM159.999 86.6667H166.666V93.3334H159.999V86.6667ZM166.666 86.6667H173.333V93.3334H166.666V86.6667ZM33.3327 93.3334H39.9993V100H33.3327V93.3334ZM66.666 93.3334H73.3327V100H66.666V93.3334ZM79.9993 93.3334H86.666V100H79.9993V93.3334ZM86.666 93.3334H93.3327V100H86.666V93.3334ZM93.3327 93.3334H99.9993V100H93.3327V93.3334ZM99.9993 93.3334H106.666V100H99.9993V93.3334ZM106.666 93.3334H113.333V100H106.666V93.3334ZM113.333 93.3334H119.999V100H113.333V93.3334ZM119.999 93.3334H126.666V100H119.999V93.3334ZM126.666 93.3334H133.333V100H126.666V93.3334ZM133.333 93.3334H139.999V100H133.333V93.3334ZM139.999 93.3334H146.666V100H139.999V93.3334ZM166.666 93.3334H173.333V100H166.666V93.3334ZM13.3327 100H19.9993V106.667H13.3327V100ZM33.3327 100H39.9993V106.667H33.3327V100ZM46.666 100H53.3327V106.667H46.666V100ZM66.666 100H73.3327V106.667H66.666V100ZM79.9993 100H86.666V106.667H79.9993V100ZM99.9993 100H106.666V106.667H99.9993V100ZM113.333 100H119.999V106.667H113.333V100ZM119.999 100H126.666V106.667H119.999V100ZM139.999 100H146.666V106.667H139.999V100ZM153.333 100H159.999V106.667H153.333V100ZM159.999 100H166.666V106.667H159.999V100ZM6.66602 106.667H13.3327V113.333H6.66602V106.667ZM19.9993 106.667H26.666V113.333H19.9993V106.667ZM53.3327 106.667H59.9993V113.333H53.3327V106.667ZM59.9993 106.667H66.666V113.333H59.9993V106.667ZM79.9993 106.667H86.666V113.333H79.9993V106.667ZM113.333 106.667H119.999V113.333H113.333V106.667ZM119.999 106.667H126.666V113.333H119.999V106.667ZM126.666 106.667H133.333V113.333H126.666V106.667ZM133.333 106.667H139.999V113.333H133.333V106.667ZM139.999 106.667H146.666V113.333H139.999V106.667ZM166.666 106.667H173.333V113.333H166.666V106.667ZM19.9993 113.333H26.666V120H19.9993V113.333ZM39.9993 113.333H46.666V120H39.9993V113.333ZM46.666 113.333H53.3327V120H46.666V113.333ZM66.666 113.333H73.3327V120H66.666V113.333ZM73.3327 113.333H79.9993V120H73.3327V113.333ZM93.3327 113.333H99.9993V120H93.3327V113.333ZM106.666 113.333H113.333V120H106.666V113.333ZM113.333 113.333H119.999V120H113.333V113.333ZM119.999 113.333H126.666V120H119.999V113.333ZM126.666 113.333H133.333V120H126.666V113.333ZM133.333 113.333H139.999V120H133.333V113.333ZM139.999 113.333H146.666V120H139.999V113.333ZM146.666 113.333H153.333V120H146.666V113.333ZM153.333 113.333H159.999V120H153.333V113.333ZM159.999 113.333H166.666V120H159.999V113.333ZM166.666 113.333H173.333V120H166.666V113.333ZM59.9993 120H66.666V126.667H59.9993V120ZM66.666 120H73.3327V126.667H66.666V120ZM73.3327 120H79.9993V126.667H73.3327V120ZM113.333 120H119.999V126.667H113.333V120ZM139.999 120H146.666V126.667H139.999V120ZM153.333 120H159.999V126.667H153.333V120ZM166.666 120H173.333V126.667H166.666V120ZM6.66602 126.667H13.3327V133.333H6.66602V126.667ZM13.3327 126.667H19.9993V133.333H13.3327V126.667ZM19.9993 126.667H26.666V133.333H19.9993V126.667ZM26.666 126.667H33.3327V133.333H26.666V126.667ZM33.3327 126.667H39.9993V133.333H33.3327V126.667ZM39.9993 126.667H46.666V133.333H39.9993V126.667ZM46.666 126.667H53.3327V133.333H46.666V126.667ZM73.3327 126.667H79.9993V133.333H73.3327V126.667ZM86.666 126.667H93.3327V133.333H86.666V126.667ZM99.9993 126.667H106.666V133.333H99.9993V126.667ZM113.333 126.667H119.999V133.333H113.333V126.667ZM126.666 126.667H133.333V133.333H126.666V126.667ZM139.999 126.667H146.666V133.333H139.999V126.667ZM153.333 126.667H159.999V133.333H153.333V126.667ZM159.999 126.667H166.666V133.333H159.999V126.667ZM166.666 126.667H173.333V133.333H166.666V126.667ZM6.66602 133.333H13.3327V140H6.66602V133.333ZM46.666 133.333H53.3327V140H46.666V133.333ZM66.666 133.333H73.3327V140H66.666V133.333ZM79.9993 133.333H86.666V140H79.9993V133.333ZM86.666 133.333H93.3327V140H86.666V133.333ZM106.666 133.333H113.333V140H106.666V133.333ZM113.333 133.333H119.999V140H113.333V133.333ZM139.999 133.333H146.666V140H139.999V133.333ZM6.66602 140H13.3327V146.667H6.66602V140ZM19.9993 140H26.666V146.667H19.9993V140ZM26.666 140H33.3327V146.667H26.666V140ZM33.3327 140H39.9993V146.667H33.3327V140ZM46.666 140H53.3327V146.667H46.666V140ZM66.666 140H73.3327V146.667H66.666V140ZM86.666 140H93.3327V146.667H86.666V140ZM99.9993 140H106.666V146.667H99.9993V140ZM113.333 140H119.999V146.667H113.333V140ZM119.999 140H126.666V146.667H119.999V140ZM126.666 140H133.333V146.667H126.666V140ZM133.333 140H139.999V146.667H133.333V140ZM139.999 140H146.666V146.667H139.999V140ZM146.666 140H153.333V146.667H146.666V140ZM166.666 140H173.333V146.667H166.666V140ZM6.66602 146.667H13.3327V153.333H6.66602V146.667ZM19.9993 146.667H26.666V153.333H19.9993V146.667ZM26.666 146.667H33.3327V153.333H26.666V146.667ZM33.3327 146.667H39.9993V153.333H33.3327V146.667ZM46.666 146.667H53.3327V153.333H46.666V146.667ZM59.9993 146.667H66.666V153.333H59.9993V146.667ZM73.3327 146.667H79.9993V153.333H73.3327V146.667ZM79.9993 146.667H86.666V153.333H79.9993V146.667ZM119.999 146.667H126.666V153.333H119.999V146.667ZM126.666 146.667H133.333V153.333H126.666V146.667ZM139.999 146.667H146.666V153.333H139.999V146.667ZM146.666 146.667H153.333V153.333H146.666V146.667ZM153.333 146.667H159.999V153.333H153.333V146.667ZM159.999 146.667H166.666V153.333H159.999V146.667ZM166.666 146.667H173.333V153.333H166.666V146.667ZM6.66602 153.333H13.3327V160H6.66602V153.333ZM19.9993 153.333H26.666V160H19.9993V153.333ZM26.666 153.333H33.3327V160H26.666V153.333ZM33.3327 153.333H39.9993V160H33.3327V153.333ZM46.666 153.333H53.3327V160H46.666V153.333ZM59.9993 153.333H66.666V160H59.9993V153.333ZM66.666 153.333H73.3327V160H66.666V153.333ZM79.9993 153.333H86.666V160H79.9993V153.333ZM86.666 153.333H93.3327V160H86.666V153.333ZM113.333 153.333H119.999V160H113.333V153.333ZM119.999 153.333H126.666V160H119.999V153.333ZM126.666 153.333H133.333V160H126.666V153.333ZM139.999 153.333H146.666V160H139.999V153.333ZM153.333 153.333H159.999V160H153.333V153.333ZM159.999 153.333H166.666V160H159.999V153.333ZM6.66602 160H13.3327V166.667H6.66602V160ZM46.666 160H53.3327V166.667H46.666V160ZM59.9993 160H66.666V166.667H59.9993V160ZM66.666 160H73.3327V166.667H66.666V160ZM73.3327 160H79.9993V166.667H73.3327V160ZM93.3327 160H99.9993V166.667H93.3327V160ZM99.9993 160H106.666V166.667H99.9993V160ZM119.999 160H126.666V166.667H119.999V160ZM126.666 160H133.333V166.667H126.666V160ZM139.999 160H146.666V166.667H139.999V160ZM153.333 160H159.999V166.667H153.333V160ZM6.66602 166.667H13.3327V173.333H6.66602V166.667ZM13.3327 166.667H19.9993V173.333H13.3327V166.667ZM19.9993 166.667H26.666V173.333H19.9993V166.667ZM26.666 166.667H33.3327V173.333H26.666V166.667ZM33.3327 166.667H39.9993V173.333H33.3327V166.667ZM39.9993 166.667H46.666V173.333H39.9993V166.667ZM46.666 166.667H53.3327V173.333H46.666V166.667ZM59.9993 166.667H66.666V173.333H59.9993V166.667ZM66.666 166.667H73.3327V173.333H66.666V166.667ZM73.3327 166.667H79.9993V173.333H73.3327V166.667ZM79.9993 166.667H86.666V173.333H79.9993V166.667ZM93.3327 166.667H99.9993V173.333H93.3327V166.667ZM126.666 166.667H133.333V173.333H126.666V166.667ZM133.333 166.667H139.999V173.333H133.333V166.667ZM139.999 166.667H146.666V173.333H139.999V166.667ZM146.666 166.667H153.333V173.333H146.666V166.667ZM153.333 166.667H159.999V173.333H153.333V166.667ZM159.999 166.667H166.666V173.333H159.999V166.667ZM166.666 166.667H173.333V173.333H166.666V166.667Z" fill="black"/>
</g>
<defs>
<clipPath id="clip0_2433_333">
<rect width="180" height="180" fill="white"/>
</clipPath>
</defs>
</svg>
