<svg width="80" height="80" viewBox="0 0 80 80" fill="none" xmlns="http://www.w3.org/2000/svg">
<rect width="80" height="80" rx="40" fill="#F1F8E9"/>
<mask id="path-2-inside-1_2853_20572" fill="white">
<path d="M49.5369 44.4056C49.2386 44.3034 48.9404 44.2096 48.6336 44.1415C48.5995 44.0222 48.5399 43.9029 48.4461 43.8176C48.4376 43.8091 47.3298 42.7439 46.0601 41.4827C47.5002 40.0426 48.3694 38.1764 48.5399 36.1653L49.8522 35.0916C50.8066 34.3076 51.1389 33.0124 50.6788 31.8705C50.4913 31.4018 50.1675 31.0013 49.7584 30.703C50.4061 30.1406 50.8151 29.314 50.8151 28.3937V26.9791C50.8151 25.3856 49.588 24.0733 48.0201 23.9369V23.0592C48.0201 21.372 46.6481 20 44.9608 20H44.8671L30.0226 24.1159V24.6357C30.0226 25.6924 30.5595 26.6297 31.3775 27.1751V30.1917C30.4572 30.3792 29.6732 31.0013 29.3238 31.8705C28.8637 33.0124 29.196 34.3076 30.1504 35.0916L31.4201 36.1312C31.6161 38.219 32.545 40.0937 33.9425 41.4913L31.6076 43.8262C31.5224 43.9114 31.4627 44.0136 31.4287 44.1329C29.7414 44.5079 28.199 45.3856 27.023 46.6809C25.6085 48.2318 24.833 50.2599 24.833 52.3732V59.3183C24.833 59.6932 25.1398 60 25.5147 60H54.4879C54.8628 60 55.1696 59.6932 55.1696 59.3183V52.3732C55.1696 48.8027 52.9029 45.5986 49.5369 44.4056ZM31.3775 34.3417L31.0111 34.0435C30.5169 33.6429 30.3464 32.9783 30.585 32.3818C30.7214 32.0324 31.0196 31.7597 31.3775 31.6148V34.3417ZM46.9549 44.2778L43.2821 47.3541L42.9924 47.0473C42.8901 46.9365 42.7793 46.8343 42.6685 46.7405C42.4044 46.519 42.1232 46.34 41.8249 46.1951C42.643 45.6157 43.1798 44.6527 43.1798 43.579V43.3916C43.8275 43.1274 44.4495 42.7865 45.0205 42.369C45.7874 43.1274 46.4947 43.8262 46.9549 44.2778ZM48.9915 34.0349L48.574 34.3758V31.5978C48.9319 31.7341 49.2642 31.9898 49.4176 32.3732C49.6562 32.9697 49.4858 33.6344 48.9915 34.0349ZM46.8441 27.0473C46.8867 27.0132 46.9208 26.9791 46.9634 26.945C46.9719 26.9365 46.989 26.928 46.9975 26.911C47.0401 26.8683 47.0912 26.8257 47.1338 26.7831C47.1423 26.7746 47.1423 26.7661 47.1509 26.7661C47.1849 26.7235 47.2276 26.6894 47.2616 26.6468C47.2702 26.6297 47.2872 26.6212 47.2957 26.6042C47.3383 26.5616 47.3724 26.5104 47.415 26.4593C47.4491 26.4082 47.4917 26.3571 47.5258 26.3059C47.5343 26.2889 47.5429 26.2804 47.5514 26.2633C47.5769 26.2207 47.611 26.1696 47.6366 26.127C47.6451 26.1184 47.6451 26.1099 47.6536 26.1014C47.6877 26.0503 47.7133 25.9906 47.7388 25.931C47.7474 25.9139 47.7559 25.9054 47.7559 25.8884C47.7729 25.8372 47.7985 25.7946 47.8155 25.7435C47.8241 25.7265 47.8241 25.7179 47.8326 25.7009C47.8581 25.6412 47.8752 25.5816 47.8922 25.5219C47.8922 25.5049 47.9008 25.4964 47.9008 25.4793C47.9178 25.4282 47.9263 25.3771 47.9434 25.3259C47.9434 25.3174 47.9519 25.3089 47.9519 25.2919C48.7955 25.3856 49.4517 26.1099 49.4517 26.9791V28.3937C49.4517 29.3311 48.6933 30.0895 47.7559 30.0895C46.631 30.0895 45.6937 29.1777 45.6681 28.0528L45.6596 27.6097C45.6681 27.6097 45.6766 27.6012 45.6852 27.6012C45.7448 27.5841 45.813 27.5671 45.8726 27.5501C45.9323 27.533 45.9919 27.5075 46.0516 27.4904C46.0686 27.4819 46.0857 27.4819 46.1027 27.4734C46.1538 27.4563 46.205 27.4308 46.2561 27.4052C46.2646 27.4052 46.2731 27.3967 46.2817 27.3967C46.3413 27.3711 46.3924 27.337 46.4521 27.3115C46.4691 27.3029 46.4777 27.2944 46.4947 27.2859C46.5373 27.2603 46.5799 27.2348 46.631 27.2092C46.6396 27.2007 46.6566 27.1922 46.6651 27.1836C46.7163 27.1496 46.7674 27.1155 46.8185 27.0729C46.827 27.0643 46.8356 27.0558 46.8441 27.0473ZM31.4542 25.13L45.0546 21.3634C45.9493 21.4061 46.6651 22.1474 46.6651 23.0592V23.9284V24.6357C46.6651 25.5731 45.9067 26.3315 44.9694 26.3315H44.2706H33.0733C32.3149 26.3315 31.6673 25.8202 31.4542 25.13ZM32.741 35.3046V30.882C32.741 30.8649 32.741 30.8564 32.741 30.8394C32.741 30.8053 32.741 30.7712 32.741 30.7371V27.6694C32.8518 27.6779 32.9625 27.6864 33.0818 27.6864H44.3047L44.3132 28.0784C44.3473 29.7486 45.6085 31.1461 47.219 31.4018V35.3984C47.219 35.5177 47.219 35.6285 47.2105 35.7478C47.2105 35.7733 47.2105 35.7904 47.2105 35.8159C47.1083 37.6055 46.3669 39.2671 45.0801 40.5369C43.7167 41.8918 41.9016 42.6417 39.9843 42.6417C39.9672 42.6417 39.9502 42.6417 39.9331 42.6417C35.9621 42.6161 32.741 39.3268 32.741 35.3046ZM40.9472 51.5296L41.1602 52.6971L38.314 55.6029L38.6379 53.8389L40.9472 51.5296ZM39.0725 51.4785L39.3707 49.8679H40.6489L40.6575 49.902L39.0725 51.4785ZM40.8023 48.5045H39.2088L38.6975 47.533C39.5071 47.0643 40.5211 47.0388 41.3477 47.4904L40.8023 48.5045ZM39.9757 45.4282C39.0299 45.4282 38.2544 44.7209 38.1436 43.8091C38.7146 43.9369 39.3111 44.0051 39.9161 44.0136C39.9417 44.0136 39.9587 44.0136 39.9843 44.0136C40.6063 44.0136 41.2199 43.9455 41.8164 43.8176C41.6886 44.7294 40.9131 45.4282 39.9757 45.4282ZM34.9821 42.386C35.5275 42.7865 36.1325 43.1189 36.7631 43.383V43.5876C36.7631 44.6954 37.3256 45.6753 38.1862 46.2548C37.888 46.4082 37.6068 46.5957 37.3511 46.8257C37.3 46.8683 37.2489 46.9195 37.1977 46.9621L36.7802 47.3711L33.0989 44.2693L34.9821 42.386ZM32.3234 58.6366V54.9212H30.96V58.6366H26.1965V52.3732C26.1965 48.8027 28.7955 45.8372 32.2808 45.3686L36.3882 48.8112C36.6609 49.0328 37.0529 49.0243 37.3 48.7772L37.6323 48.4533L38.084 49.3055L36.3797 58.6451H32.3234V58.6366ZM37.7601 58.6366L37.8794 57.9974L41.4585 54.3417L41.7993 56.1824L39.3111 58.6366H37.7601ZM41.254 58.6366L42.0976 57.81L42.251 58.6366H41.254ZM53.8062 58.6366H49.0171V54.9212H47.6536V58.6366H43.6315L41.9272 49.297L42.4044 48.4022L42.7452 48.7601C42.8816 48.8965 43.0605 48.9732 43.2395 48.9732C43.3929 48.9732 43.5463 48.922 43.6741 48.8112L47.7729 45.3686C48.2161 45.4367 48.6592 45.5475 49.0852 45.6924C51.9059 46.6894 53.8062 49.3737 53.8062 52.3732V58.6366Z"/>
</mask>
<path d="M49.5369 44.4056C49.2386 44.3034 48.9404 44.2096 48.6336 44.1415C48.5995 44.0222 48.5399 43.9029 48.4461 43.8176C48.4376 43.8091 47.3298 42.7439 46.0601 41.4827C47.5002 40.0426 48.3694 38.1764 48.5399 36.1653L49.8522 35.0916C50.8066 34.3076 51.1389 33.0124 50.6788 31.8705C50.4913 31.4018 50.1675 31.0013 49.7584 30.703C50.4061 30.1406 50.8151 29.314 50.8151 28.3937V26.9791C50.8151 25.3856 49.588 24.0733 48.0201 23.9369V23.0592C48.0201 21.372 46.6481 20 44.9608 20H44.8671L30.0226 24.1159V24.6357C30.0226 25.6924 30.5595 26.6297 31.3775 27.1751V30.1917C30.4572 30.3792 29.6732 31.0013 29.3238 31.8705C28.8637 33.0124 29.196 34.3076 30.1504 35.0916L31.4201 36.1312C31.6161 38.219 32.545 40.0937 33.9425 41.4913L31.6076 43.8262C31.5224 43.9114 31.4627 44.0136 31.4287 44.1329C29.7414 44.5079 28.199 45.3856 27.023 46.6809C25.6085 48.2318 24.833 50.2599 24.833 52.3732V59.3183C24.833 59.6932 25.1398 60 25.5147 60H54.4879C54.8628 60 55.1696 59.6932 55.1696 59.3183V52.3732C55.1696 48.8027 52.9029 45.5986 49.5369 44.4056ZM31.3775 34.3417L31.0111 34.0435C30.5169 33.6429 30.3464 32.9783 30.585 32.3818C30.7214 32.0324 31.0196 31.7597 31.3775 31.6148V34.3417ZM46.9549 44.2778L43.2821 47.3541L42.9924 47.0473C42.8901 46.9365 42.7793 46.8343 42.6685 46.7405C42.4044 46.519 42.1232 46.34 41.8249 46.1951C42.643 45.6157 43.1798 44.6527 43.1798 43.579V43.3916C43.8275 43.1274 44.4495 42.7865 45.0205 42.369C45.7874 43.1274 46.4947 43.8262 46.9549 44.2778ZM48.9915 34.0349L48.574 34.3758V31.5978C48.9319 31.7341 49.2642 31.9898 49.4176 32.3732C49.6562 32.9697 49.4858 33.6344 48.9915 34.0349ZM46.8441 27.0473C46.8867 27.0132 46.9208 26.9791 46.9634 26.945C46.9719 26.9365 46.989 26.928 46.9975 26.911C47.0401 26.8683 47.0912 26.8257 47.1338 26.7831C47.1423 26.7746 47.1423 26.7661 47.1509 26.7661C47.1849 26.7235 47.2276 26.6894 47.2616 26.6468C47.2702 26.6297 47.2872 26.6212 47.2957 26.6042C47.3383 26.5616 47.3724 26.5104 47.415 26.4593C47.4491 26.4082 47.4917 26.3571 47.5258 26.3059C47.5343 26.2889 47.5429 26.2804 47.5514 26.2633C47.5769 26.2207 47.611 26.1696 47.6366 26.127C47.6451 26.1184 47.6451 26.1099 47.6536 26.1014C47.6877 26.0503 47.7133 25.9906 47.7388 25.931C47.7474 25.9139 47.7559 25.9054 47.7559 25.8884C47.7729 25.8372 47.7985 25.7946 47.8155 25.7435C47.8241 25.7265 47.8241 25.7179 47.8326 25.7009C47.8581 25.6412 47.8752 25.5816 47.8922 25.5219C47.8922 25.5049 47.9008 25.4964 47.9008 25.4793C47.9178 25.4282 47.9263 25.3771 47.9434 25.3259C47.9434 25.3174 47.9519 25.3089 47.9519 25.2919C48.7955 25.3856 49.4517 26.1099 49.4517 26.9791V28.3937C49.4517 29.3311 48.6933 30.0895 47.7559 30.0895C46.631 30.0895 45.6937 29.1777 45.6681 28.0528L45.6596 27.6097C45.6681 27.6097 45.6766 27.6012 45.6852 27.6012C45.7448 27.5841 45.813 27.5671 45.8726 27.5501C45.9323 27.533 45.9919 27.5075 46.0516 27.4904C46.0686 27.4819 46.0857 27.4819 46.1027 27.4734C46.1538 27.4563 46.205 27.4308 46.2561 27.4052C46.2646 27.4052 46.2731 27.3967 46.2817 27.3967C46.3413 27.3711 46.3924 27.337 46.4521 27.3115C46.4691 27.3029 46.4777 27.2944 46.4947 27.2859C46.5373 27.2603 46.5799 27.2348 46.631 27.2092C46.6396 27.2007 46.6566 27.1922 46.6651 27.1836C46.7163 27.1496 46.7674 27.1155 46.8185 27.0729C46.827 27.0643 46.8356 27.0558 46.8441 27.0473ZM31.4542 25.13L45.0546 21.3634C45.9493 21.4061 46.6651 22.1474 46.6651 23.0592V23.9284V24.6357C46.6651 25.5731 45.9067 26.3315 44.9694 26.3315H44.2706H33.0733C32.3149 26.3315 31.6673 25.8202 31.4542 25.13ZM32.741 35.3046V30.882C32.741 30.8649 32.741 30.8564 32.741 30.8394C32.741 30.8053 32.741 30.7712 32.741 30.7371V27.6694C32.8518 27.6779 32.9625 27.6864 33.0818 27.6864H44.3047L44.3132 28.0784C44.3473 29.7486 45.6085 31.1461 47.219 31.4018V35.3984C47.219 35.5177 47.219 35.6285 47.2105 35.7478C47.2105 35.7733 47.2105 35.7904 47.2105 35.8159C47.1083 37.6055 46.3669 39.2671 45.0801 40.5369C43.7167 41.8918 41.9016 42.6417 39.9843 42.6417C39.9672 42.6417 39.9502 42.6417 39.9331 42.6417C35.9621 42.6161 32.741 39.3268 32.741 35.3046ZM40.9472 51.5296L41.1602 52.6971L38.314 55.6029L38.6379 53.8389L40.9472 51.5296ZM39.0725 51.4785L39.3707 49.8679H40.6489L40.6575 49.902L39.0725 51.4785ZM40.8023 48.5045H39.2088L38.6975 47.533C39.5071 47.0643 40.5211 47.0388 41.3477 47.4904L40.8023 48.5045ZM39.9757 45.4282C39.0299 45.4282 38.2544 44.7209 38.1436 43.8091C38.7146 43.9369 39.3111 44.0051 39.9161 44.0136C39.9417 44.0136 39.9587 44.0136 39.9843 44.0136C40.6063 44.0136 41.2199 43.9455 41.8164 43.8176C41.6886 44.7294 40.9131 45.4282 39.9757 45.4282ZM34.9821 42.386C35.5275 42.7865 36.1325 43.1189 36.7631 43.383V43.5876C36.7631 44.6954 37.3256 45.6753 38.1862 46.2548C37.888 46.4082 37.6068 46.5957 37.3511 46.8257C37.3 46.8683 37.2489 46.9195 37.1977 46.9621L36.7802 47.3711L33.0989 44.2693L34.9821 42.386ZM32.3234 58.6366V54.9212H30.96V58.6366H26.1965V52.3732C26.1965 48.8027 28.7955 45.8372 32.2808 45.3686L36.3882 48.8112C36.6609 49.0328 37.0529 49.0243 37.3 48.7772L37.6323 48.4533L38.084 49.3055L36.3797 58.6451H32.3234V58.6366ZM37.7601 58.6366L37.8794 57.9974L41.4585 54.3417L41.7993 56.1824L39.3111 58.6366H37.7601ZM41.254 58.6366L42.0976 57.81L42.251 58.6366H41.254ZM53.8062 58.6366H49.0171V54.9212H47.6536V58.6366H43.6315L41.9272 49.297L42.4044 48.4022L42.7452 48.7601C42.8816 48.8965 43.0605 48.9732 43.2395 48.9732C43.3929 48.9732 43.5463 48.922 43.6741 48.8112L47.7729 45.3686C48.2161 45.4367 48.6592 45.5475 49.0852 45.6924C51.9059 46.6894 53.8062 49.3737 53.8062 52.3732V58.6366Z" fill="#33691E" stroke="#F1F8E9" stroke-width="0.5" mask="url(#path-2-inside-1_2853_20572)"/>
</svg>
