<svg width="180" height="180" viewBox="0 0 180 180" fill="none" xmlns="http://www.w3.org/2000/svg">
<g clip-path="url(#clip0_2433_257)">
<path d="M180 0H0V180H180V0Z" fill="white"/>
<path d="M6.66602 6.66663H13.3327V13.3333H6.66602V6.66663ZM13.3327 6.66663H19.9993V13.3333H13.3327V6.66663ZM19.9993 6.66663H26.666V13.3333H19.9993V6.66663ZM26.666 6.66663H33.3327V13.3333H26.666V6.66663ZM33.3327 6.66663H39.9993V13.3333H33.3327V6.66663ZM39.9993 6.66663H46.666V13.3333H39.9993V6.66663ZM46.666 6.66663H53.3327V13.3333H46.666V6.66663ZM59.9993 6.66663H66.666V13.3333H59.9993V6.66663ZM73.3327 6.66663H79.9993V13.3333H73.3327V6.66663ZM86.666 6.66663H93.3327V13.3333H86.666V6.66663ZM93.3327 6.66663H99.9993V13.3333H93.3327V6.66663ZM113.333 6.66663H119.999V13.3333H113.333V6.66663ZM126.666 6.66663H133.333V13.3333H126.666V6.66663ZM133.333 6.66663H139.999V13.3333H133.333V6.66663ZM139.999 6.66663H146.666V13.3333H139.999V6.66663ZM146.666 6.66663H153.333V13.3333H146.666V6.66663ZM153.333 6.66663H159.999V13.3333H153.333V6.66663ZM159.999 6.66663H166.666V13.3333H159.999V6.66663ZM166.666 6.66663H173.333V13.3333H166.666V6.66663ZM6.66602 13.3333H13.3327V20H6.66602V13.3333ZM46.666 13.3333H53.3327V20H46.666V13.3333ZM66.666 13.3333H73.3327V20H66.666V13.3333ZM73.3327 13.3333H79.9993V20H73.3327V13.3333ZM79.9993 13.3333H86.666V20H79.9993V13.3333ZM86.666 13.3333H93.3327V20H86.666V13.3333ZM93.3327 13.3333H99.9993V20H93.3327V13.3333ZM126.666 13.3333H133.333V20H126.666V13.3333ZM166.666 13.3333H173.333V20H166.666V13.3333ZM6.66602 20H13.3327V26.6666H6.66602V20ZM19.9993 20H26.666V26.6666H19.9993V20ZM26.666 20H33.3327V26.6666H26.666V20ZM33.3327 20H39.9993V26.6666H33.3327V20ZM46.666 20H53.3327V26.6666H46.666V20ZM59.9993 20H66.666V26.6666H59.9993V20ZM66.666 20H73.3327V26.6666H66.666V20ZM73.3327 20H79.9993V26.6666H73.3327V20ZM93.3327 20H99.9993V26.6666H93.3327V20ZM99.9993 20H106.666V26.6666H99.9993V20ZM126.666 20H133.333V26.6666H126.666V20ZM139.999 20H146.666V26.6666H139.999V20ZM146.666 20H153.333V26.6666H146.666V20ZM153.333 20H159.999V26.6666H153.333V20ZM166.666 20H173.333V26.6666H166.666V20ZM6.66602 26.6666H13.3327V33.3333H6.66602V26.6666ZM19.9993 26.6666H26.666V33.3333H19.9993V26.6666ZM26.666 26.6666H33.3327V33.3333H26.666V26.6666ZM33.3327 26.6666H39.9993V33.3333H33.3327V26.6666ZM46.666 26.6666H53.3327V33.3333H46.666V26.6666ZM59.9993 26.6666H66.666V33.3333H59.9993V26.6666ZM66.666 26.6666H73.3327V33.3333H66.666V26.6666ZM73.3327 26.6666H79.9993V33.3333H73.3327V26.6666ZM86.666 26.6666H93.3327V33.3333H86.666V26.6666ZM93.3327 26.6666H99.9993V33.3333H93.3327V26.6666ZM106.666 26.6666H113.333V33.3333H106.666V26.6666ZM113.333 26.6666H119.999V33.3333H113.333V26.6666ZM126.666 26.6666H133.333V33.3333H126.666V26.6666ZM139.999 26.6666H146.666V33.3333H139.999V26.6666ZM146.666 26.6666H153.333V33.3333H146.666V26.6666ZM153.333 26.6666H159.999V33.3333H153.333V26.6666ZM166.666 26.6666H173.333V33.3333H166.666V26.6666ZM6.66602 33.3333H13.3327V40H6.66602V33.3333ZM19.9993 33.3333H26.666V40H19.9993V33.3333ZM26.666 33.3333H33.3327V40H26.666V33.3333ZM33.3327 33.3333H39.9993V40H33.3327V33.3333ZM46.666 33.3333H53.3327V40H46.666V33.3333ZM59.9993 33.3333H66.666V40H59.9993V33.3333ZM79.9993 33.3333H86.666V40H79.9993V33.3333ZM86.666 33.3333H93.3327V40H86.666V33.3333ZM93.3327 33.3333H99.9993V40H93.3327V33.3333ZM99.9993 33.3333H106.666V40H99.9993V33.3333ZM106.666 33.3333H113.333V40H106.666V33.3333ZM113.333 33.3333H119.999V40H113.333V33.3333ZM126.666 33.3333H133.333V40H126.666V33.3333ZM139.999 33.3333H146.666V40H139.999V33.3333ZM146.666 33.3333H153.333V40H146.666V33.3333ZM153.333 33.3333H159.999V40H153.333V33.3333ZM166.666 33.3333H173.333V40H166.666V33.3333ZM6.66602 40H13.3327V46.6666H6.66602V40ZM46.666 40H53.3327V46.6666H46.666V40ZM73.3327 40H79.9993V46.6666H73.3327V40ZM79.9993 40H86.666V46.6666H79.9993V40ZM99.9993 40H106.666V46.6666H99.9993V40ZM113.333 40H119.999V46.6666H113.333V40ZM126.666 40H133.333V46.6666H126.666V40ZM166.666 40H173.333V46.6666H166.666V40ZM6.66602 46.6666H13.3327V53.3333H6.66602V46.6666ZM13.3327 46.6666H19.9993V53.3333H13.3327V46.6666ZM19.9993 46.6666H26.666V53.3333H19.9993V46.6666ZM26.666 46.6666H33.3327V53.3333H26.666V46.6666ZM33.3327 46.6666H39.9993V53.3333H33.3327V46.6666ZM39.9993 46.6666H46.666V53.3333H39.9993V46.6666ZM46.666 46.6666H53.3327V53.3333H46.666V46.6666ZM59.9993 46.6666H66.666V53.3333H59.9993V46.6666ZM73.3327 46.6666H79.9993V53.3333H73.3327V46.6666ZM86.666 46.6666H93.3327V53.3333H86.666V46.6666ZM99.9993 46.6666H106.666V53.3333H99.9993V46.6666ZM113.333 46.6666H119.999V53.3333H113.333V46.6666ZM126.666 46.6666H133.333V53.3333H126.666V46.6666ZM133.333 46.6666H139.999V53.3333H133.333V46.6666ZM139.999 46.6666H146.666V53.3333H139.999V46.6666ZM146.666 46.6666H153.333V53.3333H146.666V46.6666ZM153.333 46.6666H159.999V53.3333H153.333V46.6666ZM159.999 46.6666H166.666V53.3333H159.999V46.6666ZM166.666 46.6666H173.333V53.3333H166.666V46.6666ZM73.3327 53.3333H79.9993V60H73.3327V53.3333ZM86.666 53.3333H93.3327V60H86.666V53.3333ZM106.666 53.3333H113.333V60H106.666V53.3333ZM113.333 53.3333H119.999V60H113.333V53.3333ZM6.66602 60H13.3327V66.6666H6.66602V60ZM13.3327 60H19.9993V66.6666H13.3327V60ZM19.9993 60H26.666V66.6666H19.9993V60ZM26.666 60H33.3327V66.6666H26.666V60ZM46.666 60H53.3327V66.6666H46.666V60ZM59.9993 60H66.666V66.6666H59.9993V60ZM73.3327 60H79.9993V66.6666H73.3327V60ZM79.9993 60H86.666V66.6666H79.9993V60ZM86.666 60H93.3327V66.6666H86.666V60ZM99.9993 60H106.666V66.6666H99.9993V60ZM106.666 60H113.333V66.6666H106.666V60ZM113.333 60H119.999V66.6666H113.333V60ZM119.999 60H126.666V66.6666H119.999V60ZM139.999 60H146.666V66.6666H139.999V60ZM146.666 60H153.333V66.6666H146.666V60ZM153.333 60H159.999V66.6666H153.333V60ZM166.666 60H173.333V66.6666H166.666V60ZM6.66602 66.6666H13.3327V73.3333H6.66602V66.6666ZM19.9993 66.6666H26.666V73.3333H19.9993V66.6666ZM26.666 66.6666H33.3327V73.3333H26.666V66.6666ZM53.3327 66.6666H59.9993V73.3333H53.3327V66.6666ZM73.3327 66.6666H79.9993V73.3333H73.3327V66.6666ZM86.666 66.6666H93.3327V73.3333H86.666V66.6666ZM93.3327 66.6666H99.9993V73.3333H93.3327V66.6666ZM133.333 66.6666H139.999V73.3333H133.333V66.6666ZM159.999 66.6666H166.666V73.3333H159.999V66.6666ZM26.666 73.3333H33.3327V80H26.666V73.3333ZM33.3327 73.3333H39.9993V80H33.3327V73.3333ZM46.666 73.3333H53.3327V80H46.666V73.3333ZM59.9993 73.3333H66.666V80H59.9993V73.3333ZM66.666 73.3333H73.3327V80H66.666V73.3333ZM73.3327 73.3333H79.9993V80H73.3327V73.3333ZM79.9993 73.3333H86.666V80H79.9993V73.3333ZM86.666 73.3333H93.3327V80H86.666V73.3333ZM93.3327 73.3333H99.9993V80H93.3327V73.3333ZM99.9993 73.3333H106.666V80H99.9993V73.3333ZM113.333 73.3333H119.999V80H113.333V73.3333ZM126.666 73.3333H133.333V80H126.666V73.3333ZM133.333 73.3333H139.999V80H133.333V73.3333ZM19.9993 80H26.666V86.6666H19.9993V80ZM26.666 80H33.3327V86.6666H26.666V80ZM53.3327 80H59.9993V86.6666H53.3327V80ZM66.666 80H73.3327V86.6666H66.666V80ZM73.3327 80H79.9993V86.6666H73.3327V80ZM93.3327 80H99.9993V86.6666H93.3327V80ZM106.666 80H113.333V86.6666H106.666V80ZM113.333 80H119.999V86.6666H113.333V80ZM126.666 80H133.333V86.6666H126.666V80ZM139.999 80H146.666V86.6666H139.999V80ZM146.666 80H153.333V86.6666H146.666V80ZM153.333 80H159.999V86.6666H153.333V80ZM26.666 86.6666H33.3327V93.3333H26.666V86.6666ZM33.3327 86.6666H39.9993V93.3333H33.3327V86.6666ZM39.9993 86.6666H46.666V93.3333H39.9993V86.6666ZM46.666 86.6666H53.3327V93.3333H46.666V86.6666ZM59.9993 86.6666H66.666V93.3333H59.9993V86.6666ZM66.666 86.6666H73.3327V93.3333H66.666V86.6666ZM73.3327 86.6666H79.9993V93.3333H73.3327V86.6666ZM86.666 86.6666H93.3327V93.3333H86.666V86.6666ZM93.3327 86.6666H99.9993V93.3333H93.3327V86.6666ZM99.9993 86.6666H106.666V93.3333H99.9993V86.6666ZM119.999 86.6666H126.666V93.3333H119.999V86.6666ZM126.666 86.6666H133.333V93.3333H126.666V86.6666ZM139.999 86.6666H146.666V93.3333H139.999V86.6666ZM153.333 86.6666H159.999V93.3333H153.333V86.6666ZM159.999 86.6666H166.666V93.3333H159.999V86.6666ZM166.666 86.6666H173.333V93.3333H166.666V86.6666ZM33.3327 93.3333H39.9993V100H33.3327V93.3333ZM66.666 93.3333H73.3327V100H66.666V93.3333ZM79.9993 93.3333H86.666V100H79.9993V93.3333ZM86.666 93.3333H93.3327V100H86.666V93.3333ZM93.3327 93.3333H99.9993V100H93.3327V93.3333ZM99.9993 93.3333H106.666V100H99.9993V93.3333ZM106.666 93.3333H113.333V100H106.666V93.3333ZM113.333 93.3333H119.999V100H113.333V93.3333ZM119.999 93.3333H126.666V100H119.999V93.3333ZM126.666 93.3333H133.333V100H126.666V93.3333ZM133.333 93.3333H139.999V100H133.333V93.3333ZM139.999 93.3333H146.666V100H139.999V93.3333ZM166.666 93.3333H173.333V100H166.666V93.3333ZM13.3327 100H19.9993V106.667H13.3327V100ZM33.3327 100H39.9993V106.667H33.3327V100ZM46.666 100H53.3327V106.667H46.666V100ZM66.666 100H73.3327V106.667H66.666V100ZM79.9993 100H86.666V106.667H79.9993V100ZM99.9993 100H106.666V106.667H99.9993V100ZM113.333 100H119.999V106.667H113.333V100ZM119.999 100H126.666V106.667H119.999V100ZM139.999 100H146.666V106.667H139.999V100ZM153.333 100H159.999V106.667H153.333V100ZM159.999 100H166.666V106.667H159.999V100ZM6.66602 106.667H13.3327V113.333H6.66602V106.667ZM19.9993 106.667H26.666V113.333H19.9993V106.667ZM53.3327 106.667H59.9993V113.333H53.3327V106.667ZM59.9993 106.667H66.666V113.333H59.9993V106.667ZM79.9993 106.667H86.666V113.333H79.9993V106.667ZM113.333 106.667H119.999V113.333H113.333V106.667ZM119.999 106.667H126.666V113.333H119.999V106.667ZM126.666 106.667H133.333V113.333H126.666V106.667ZM133.333 106.667H139.999V113.333H133.333V106.667ZM139.999 106.667H146.666V113.333H139.999V106.667ZM166.666 106.667H173.333V113.333H166.666V106.667ZM19.9993 113.333H26.666V120H19.9993V113.333ZM39.9993 113.333H46.666V120H39.9993V113.333ZM46.666 113.333H53.3327V120H46.666V113.333ZM66.666 113.333H73.3327V120H66.666V113.333ZM73.3327 113.333H79.9993V120H73.3327V113.333ZM93.3327 113.333H99.9993V120H93.3327V113.333ZM106.666 113.333H113.333V120H106.666V113.333ZM113.333 113.333H119.999V120H113.333V113.333ZM119.999 113.333H126.666V120H119.999V113.333ZM126.666 113.333H133.333V120H126.666V113.333ZM133.333 113.333H139.999V120H133.333V113.333ZM139.999 113.333H146.666V120H139.999V113.333ZM146.666 113.333H153.333V120H146.666V113.333ZM153.333 113.333H159.999V120H153.333V113.333ZM159.999 113.333H166.666V120H159.999V113.333ZM166.666 113.333H173.333V120H166.666V113.333ZM59.9993 120H66.666V126.667H59.9993V120ZM66.666 120H73.3327V126.667H66.666V120ZM73.3327 120H79.9993V126.667H73.3327V120ZM113.333 120H119.999V126.667H113.333V120ZM139.999 120H146.666V126.667H139.999V120ZM153.333 120H159.999V126.667H153.333V120ZM166.666 120H173.333V126.667H166.666V120ZM6.66602 126.667H13.3327V133.333H6.66602V126.667ZM13.3327 126.667H19.9993V133.333H13.3327V126.667ZM19.9993 126.667H26.666V133.333H19.9993V126.667ZM26.666 126.667H33.3327V133.333H26.666V126.667ZM33.3327 126.667H39.9993V133.333H33.3327V126.667ZM39.9993 126.667H46.666V133.333H39.9993V126.667ZM46.666 126.667H53.3327V133.333H46.666V126.667ZM73.3327 126.667H79.9993V133.333H73.3327V126.667ZM86.666 126.667H93.3327V133.333H86.666V126.667ZM99.9993 126.667H106.666V133.333H99.9993V126.667ZM113.333 126.667H119.999V133.333H113.333V126.667ZM126.666 126.667H133.333V133.333H126.666V126.667ZM139.999 126.667H146.666V133.333H139.999V126.667ZM153.333 126.667H159.999V133.333H153.333V126.667ZM159.999 126.667H166.666V133.333H159.999V126.667ZM166.666 126.667H173.333V133.333H166.666V126.667ZM6.66602 133.333H13.3327V140H6.66602V133.333ZM46.666 133.333H53.3327V140H46.666V133.333ZM66.666 133.333H73.3327V140H66.666V133.333ZM79.9993 133.333H86.666V140H79.9993V133.333ZM86.666 133.333H93.3327V140H86.666V133.333ZM106.666 133.333H113.333V140H106.666V133.333ZM113.333 133.333H119.999V140H113.333V133.333ZM139.999 133.333H146.666V140H139.999V133.333ZM6.66602 140H13.3327V146.667H6.66602V140ZM19.9993 140H26.666V146.667H19.9993V140ZM26.666 140H33.3327V146.667H26.666V140ZM33.3327 140H39.9993V146.667H33.3327V140ZM46.666 140H53.3327V146.667H46.666V140ZM66.666 140H73.3327V146.667H66.666V140ZM86.666 140H93.3327V146.667H86.666V140ZM99.9993 140H106.666V146.667H99.9993V140ZM113.333 140H119.999V146.667H113.333V140ZM119.999 140H126.666V146.667H119.999V140ZM126.666 140H133.333V146.667H126.666V140ZM133.333 140H139.999V146.667H133.333V140ZM139.999 140H146.666V146.667H139.999V140ZM146.666 140H153.333V146.667H146.666V140ZM166.666 140H173.333V146.667H166.666V140ZM6.66602 146.667H13.3327V153.333H6.66602V146.667ZM19.9993 146.667H26.666V153.333H19.9993V146.667ZM26.666 146.667H33.3327V153.333H26.666V146.667ZM33.3327 146.667H39.9993V153.333H33.3327V146.667ZM46.666 146.667H53.3327V153.333H46.666V146.667ZM59.9993 146.667H66.666V153.333H59.9993V146.667ZM73.3327 146.667H79.9993V153.333H73.3327V146.667ZM79.9993 146.667H86.666V153.333H79.9993V146.667ZM119.999 146.667H126.666V153.333H119.999V146.667ZM126.666 146.667H133.333V153.333H126.666V146.667ZM139.999 146.667H146.666V153.333H139.999V146.667ZM146.666 146.667H153.333V153.333H146.666V146.667ZM153.333 146.667H159.999V153.333H153.333V146.667ZM159.999 146.667H166.666V153.333H159.999V146.667ZM166.666 146.667H173.333V153.333H166.666V146.667ZM6.66602 153.333H13.3327V160H6.66602V153.333ZM19.9993 153.333H26.666V160H19.9993V153.333ZM26.666 153.333H33.3327V160H26.666V153.333ZM33.3327 153.333H39.9993V160H33.3327V153.333ZM46.666 153.333H53.3327V160H46.666V153.333ZM59.9993 153.333H66.666V160H59.9993V153.333ZM66.666 153.333H73.3327V160H66.666V153.333ZM79.9993 153.333H86.666V160H79.9993V153.333ZM86.666 153.333H93.3327V160H86.666V153.333ZM113.333 153.333H119.999V160H113.333V153.333ZM119.999 153.333H126.666V160H119.999V153.333ZM126.666 153.333H133.333V160H126.666V153.333ZM139.999 153.333H146.666V160H139.999V153.333ZM153.333 153.333H159.999V160H153.333V153.333ZM159.999 153.333H166.666V160H159.999V153.333ZM6.66602 160H13.3327V166.667H6.66602V160ZM46.666 160H53.3327V166.667H46.666V160ZM59.9993 160H66.666V166.667H59.9993V160ZM66.666 160H73.3327V166.667H66.666V160ZM73.3327 160H79.9993V166.667H73.3327V160ZM93.3327 160H99.9993V166.667H93.3327V160ZM99.9993 160H106.666V166.667H99.9993V160ZM119.999 160H126.666V166.667H119.999V160ZM126.666 160H133.333V166.667H126.666V160ZM139.999 160H146.666V166.667H139.999V160ZM153.333 160H159.999V166.667H153.333V160ZM6.66602 166.667H13.3327V173.333H6.66602V166.667ZM13.3327 166.667H19.9993V173.333H13.3327V166.667ZM19.9993 166.667H26.666V173.333H19.9993V166.667ZM26.666 166.667H33.3327V173.333H26.666V166.667ZM33.3327 166.667H39.9993V173.333H33.3327V166.667ZM39.9993 166.667H46.666V173.333H39.9993V166.667ZM46.666 166.667H53.3327V173.333H46.666V166.667ZM59.9993 166.667H66.666V173.333H59.9993V166.667ZM66.666 166.667H73.3327V173.333H66.666V166.667ZM73.3327 166.667H79.9993V173.333H73.3327V166.667ZM79.9993 166.667H86.666V173.333H79.9993V166.667ZM93.3327 166.667H99.9993V173.333H93.3327V166.667ZM126.666 166.667H133.333V173.333H126.666V166.667ZM133.333 166.667H139.999V173.333H133.333V166.667ZM139.999 166.667H146.666V173.333H139.999V166.667ZM146.666 166.667H153.333V173.333H146.666V166.667ZM153.333 166.667H159.999V173.333H153.333V166.667ZM159.999 166.667H166.666V173.333H159.999V166.667ZM166.666 166.667H173.333V173.333H166.666V166.667Z" fill="black"/>
</g>
<defs>
<clipPath id="clip0_2433_257">
<rect width="180" height="180" fill="white"/>
</clipPath>
</defs>
</svg>
