<svg width="120" height="120" viewBox="0 0 120 120" fill="none" xmlns="http://www.w3.org/2000/svg">
<g clip-path="url(#clip0_2667_211)">
<path d="M32 60L56 80L88 40M60 116C52.646 116 45.364 114.552 38.5697 111.737C31.7755 108.923 25.6021 104.798 20.402 99.598C15.2019 94.3979 11.077 88.2245 8.26275 81.4303C5.44848 74.636 4 67.354 4 60C4 52.646 5.44848 45.364 8.26275 38.5697C11.077 31.7755 15.2019 25.6021 20.402 20.402C25.6021 15.2019 31.7755 11.077 38.5697 8.26275C45.364 5.44848 52.646 4 60 4C74.8521 4 89.0959 9.89998 99.598 20.402C110.1 30.9041 116 45.1479 116 60C116 74.8521 110.1 89.0959 99.598 99.598C89.0959 110.1 74.8521 116 60 116Z" stroke="#00796B" stroke-width="8" stroke-linecap="round" stroke-linejoin="round"/>
</g>
<defs>
<clipPath id="clip0_2667_211">
<rect width="120" height="120" fill="white"/>
</clipPath>
</defs>
</svg>
