<svg width="56" height="56" viewBox="0 0 56 56" fill="none" xmlns="http://www.w3.org/2000/svg">
<rect width="56" height="56" fill="white"/>
<g filter="url(#filter0_d_2433_514)">
<rect x="8" y="8" width="40" height="40" rx="20" fill="white"/>
</g>
<path d="M35.775 20.1247C35.7713 21.3658 36.1402 22.5795 36.8339 23.6087C37.5273 24.6376 38.5135 25.4348 39.6649 25.8973C39.8517 25.9767 39.9998 26.1263 40.0775 26.3139C40.1553 26.5017 40.1562 26.7126 40.0799 26.9011C40.0037 27.0895 39.8564 27.2405 39.6699 27.3214C39.4836 27.4022 39.273 27.4067 39.0835 27.3338C37.8604 26.8413 36.7829 26.0454 35.9527 25.0211L35.775 24.8019V25.0841V31.5V31.6L35.875 20.125M35.775 20.1247L35.875 20.125M35.775 20.1247C35.775 20.1248 35.775 20.1249 35.775 20.125H35.875M35.775 20.1247C35.7749 19.9193 35.6933 19.7223 35.548 19.577C35.4027 19.4317 35.2055 19.35 35 19.35C34.7945 19.35 34.5973 19.4317 34.452 19.577C34.3067 19.7223 34.225 19.9195 34.225 20.125C34.225 21.776 33.5692 23.3593 32.4017 24.5267C31.2343 25.6942 29.651 26.35 28 26.35C26.349 26.35 24.7657 25.6942 23.5983 24.5267C22.4308 23.3593 21.775 21.776 21.775 20.125C21.775 19.9195 21.6933 19.7223 21.548 19.577C21.4027 19.4317 21.2055 19.35 21 19.35C20.7945 19.35 20.5973 19.4317 20.452 19.577C20.3067 19.7223 20.225 19.9194 20.225 20.1249M35.875 20.125C35.875 19.8929 35.7828 19.6704 35.6187 19.5063C35.4546 19.3422 35.2321 19.25 35 19.25C34.7679 19.25 34.5454 19.3422 34.3813 19.5063C34.2172 19.6704 34.125 19.8929 34.125 20.125C34.125 21.7495 33.4797 23.3074 32.331 24.456C31.1824 25.6047 29.6245 26.25 28 26.25C26.3755 26.25 24.8176 25.6047 23.669 24.456C22.5203 23.3074 21.875 21.7495 21.875 20.125C21.875 19.8929 21.7828 19.6704 21.6187 19.5063C21.4546 19.3422 21.2321 19.25 21 19.25C20.7679 19.25 20.5454 19.3422 20.3813 19.5063C20.2172 19.6704 20.125 19.8929 20.125 20.125M20.225 20.1249C20.225 20.1248 20.225 20.1248 20.225 20.1247L20.125 20.125M20.225 20.1249C20.225 20.1249 20.225 20.125 20.225 20.125H20.125M20.225 20.1249C20.2286 21.3659 19.8598 22.5796 19.1661 23.6087C18.4727 24.6376 17.4865 25.4349 16.3351 25.8973C16.1483 25.9767 16.0002 26.1263 15.9225 26.3139C15.8447 26.5017 15.8438 26.7126 15.9201 26.9011C15.9963 27.0895 16.1436 27.2405 16.3301 27.3214C16.5164 27.4022 16.727 27.4067 16.9165 27.3338M20.125 20.125L16.9165 27.3338M35.875 25.0841C35.908 25.1247 35.9413 25.165 35.975 25.2049V25.0841H35.875ZM35.875 25.0841L35.7973 25.147C35.823 25.1787 35.8489 25.2101 35.875 25.2414V25.0841ZM20.125 25.0841L20.2027 25.147C20.177 25.1787 20.1511 25.2101 20.125 25.2414V25.0841ZM20.125 25.0841H20.025V25.2049C20.0587 25.165 20.092 25.1247 20.125 25.0841ZM16.9165 27.3338C16.9163 27.3339 16.916 27.334 16.9158 27.3341L16.9531 27.4269L16.9172 27.3336C16.9169 27.3336 16.9167 27.3337 16.9165 27.3338ZM29.85 27.8031V27.6778L29.7278 27.7056C28.5905 27.9648 27.4095 27.9648 26.2722 27.7056L26.15 27.6778V27.8031V31.5V31.6H26.25H29.75H29.85V31.5V27.8031ZM21.9527 25.0058L21.775 24.7862V25.0687V31.5V31.6H21.875H24.5H24.6V31.5V27.1764V27.1145L24.5446 27.0869C23.5416 26.5868 22.6577 25.8771 21.9527 25.0058ZM31.4 31.5V31.6H31.5H34.125H34.225V31.5V25.0698V24.7873L34.0473 25.0069C33.3423 25.8782 32.4584 26.5879 31.4554 27.088L31.4 27.1156V27.1775V31.5Z" fill="#141414" stroke="white" stroke-width="0.2"/>
<defs>
<filter id="filter0_d_2433_514" x="4" y="6" width="48" height="48" filterUnits="userSpaceOnUse" color-interpolation-filters="sRGB">
<feFlood flood-opacity="0" result="BackgroundImageFix"/>
<feColorMatrix in="SourceAlpha" type="matrix" values="0 0 0 0 0 0 0 0 0 0 0 0 0 0 0 0 0 0 127 0" result="hardAlpha"/>
<feOffset dy="2"/>
<feGaussianBlur stdDeviation="2"/>
<feComposite in2="hardAlpha" operator="out"/>
<feColorMatrix type="matrix" values="0 0 0 0 0 0 0 0 0 0 0 0 0 0 0 0 0 0 0.16 0"/>
<feBlend mode="normal" in2="BackgroundImageFix" result="effect1_dropShadow_2433_514"/>
<feBlend mode="normal" in="SourceGraphic" in2="effect1_dropShadow_2433_514" result="shape"/>
</filter>
</defs>
</svg>
