<svg width="56" height="56" viewBox="0 0 56 56" fill="none" xmlns="http://www.w3.org/2000/svg">
<rect width="56" height="56" fill="white"/>
<g filter="url(#filter0_d_2433_520)">
<rect x="8" y="8" width="40" height="40" rx="20" fill="white"/>
</g>
<path d="M18.5714 25.6771H37.4286V24.1317C37.4286 23.7218 37.263 23.3287 36.9683 23.0389C36.6736 22.7491 36.2739 22.5862 35.8571 22.5862H20.1429C19.7261 22.5862 19.3264 22.7491 19.0317 23.0389C18.737 23.3287 18.5714 23.7218 18.5714 24.1317V25.6771ZM18.5714 27.2226V34.9499C18.5714 35.3597 18.737 35.7528 19.0317 36.0427C19.3264 36.3325 19.7261 36.4953 20.1429 36.4953H35.8571C36.2739 36.4953 36.6736 36.3325 36.9683 36.0427C37.263 35.7528 37.4286 35.3597 37.4286 34.9499V27.2226H18.5714ZM20.1429 21.0408H35.8571C36.6907 21.0408 37.4901 21.3664 38.0795 21.9461C38.6689 22.5257 39 23.3119 39 24.1317V34.9499C39 35.7696 38.6689 36.5558 38.0795 37.1355C37.4901 37.7151 36.6907 38.0408 35.8571 38.0408H20.1429C19.3093 38.0408 18.5099 37.7151 17.9205 37.1355C17.3311 36.5558 17 35.7696 17 34.9499V24.1317C17 23.3119 17.3311 22.5257 17.9205 21.9461C18.5099 21.3664 19.3093 21.0408 20.1429 21.0408Z" fill="black"/>
<path d="M24.6667 19.4994V21.0396H31.3333V19.4994H24.6667ZM24.6667 17.9592H31.3333C31.7754 17.9592 32.1993 18.1215 32.5118 18.4103C32.8244 18.6992 33 19.0909 33 19.4994V21.0396C33 21.4481 32.8244 21.8399 32.5118 22.1287C32.1993 22.4176 31.7754 22.5798 31.3333 22.5798H24.6667C24.2246 22.5798 23.8007 22.4176 23.4882 22.1287C23.1756 21.8399 23 21.4481 23 21.0396V19.4994C23 19.0909 23.1756 18.6992 23.4882 18.4103C23.8007 18.1215 24.2246 17.9592 24.6667 17.9592Z" fill="black"/>
<defs>
<filter id="filter0_d_2433_520" x="4" y="6" width="48" height="48" filterUnits="userSpaceOnUse" color-interpolation-filters="sRGB">
<feFlood flood-opacity="0" result="BackgroundImageFix"/>
<feColorMatrix in="SourceAlpha" type="matrix" values="0 0 0 0 0 0 0 0 0 0 0 0 0 0 0 0 0 0 127 0" result="hardAlpha"/>
<feOffset dy="2"/>
<feGaussianBlur stdDeviation="2"/>
<feComposite in2="hardAlpha" operator="out"/>
<feColorMatrix type="matrix" values="0 0 0 0 0 0 0 0 0 0 0 0 0 0 0 0 0 0 0.16 0"/>
<feBlend mode="normal" in2="BackgroundImageFix" result="effect1_dropShadow_2433_520"/>
<feBlend mode="normal" in="SourceGraphic" in2="effect1_dropShadow_2433_520" result="shape"/>
</filter>
</defs>
</svg>
