<svg width="56" height="56" viewBox="0 0 56 56" fill="none" xmlns="http://www.w3.org/2000/svg">
<rect width="56" height="56" fill="white"/>
<g filter="url(#filter0_d_2433_533)">
<rect x="8" y="8" width="40" height="40" rx="20" fill="white"/>
</g>
<path d="M21.0838 17.99C21.2128 17.8363 21.3731 17.713 21.5535 17.6284C21.7339 17.5438 21.9301 17.5 22.1287 17.5H33.8713C34.0699 17.5 34.2661 17.5438 34.4465 17.6284C34.6269 17.713 34.7872 17.8363 34.9163 17.99L38.5036 22.2516C38.8239 22.6322 39 23.1168 39 23.618V23.975C39.0001 24.668 38.7875 25.3436 38.392 25.9076C37.9965 26.4715 37.4378 26.8956 36.7941 27.1204C36.1503 27.3453 35.4536 27.3598 34.8014 27.1618C34.1492 26.9638 33.574 26.5633 33.1562 26.0162C32.8512 26.4163 32.4603 26.74 32.0134 26.9625C31.5665 27.185 31.0756 27.3005 30.5781 27.3C30.0807 27.3006 29.5897 27.1852 29.1428 26.9626C28.6959 26.7401 28.305 26.4164 28 26.0162C27.695 26.4164 27.3041 26.7401 26.8572 26.9626C26.4103 27.1852 25.9193 27.3006 25.4219 27.3C24.9244 27.3006 24.4334 27.1852 23.9865 26.9626C23.5397 26.7401 23.1487 26.4164 22.8438 26.0162C22.426 26.5633 21.8508 26.9638 21.1986 27.1618C20.5464 27.3598 19.8497 27.3453 19.2059 27.1204C18.5622 26.8956 18.0035 26.4715 17.608 25.9076C17.2125 25.3436 16.9999 24.668 17 23.975V23.618C17 23.1168 17.1761 22.6322 17.4964 22.2516L21.0851 17.9886L21.0838 17.99ZM23.5312 23.975C23.5312 24.4855 23.7304 24.9752 24.085 25.3362C24.4396 25.6972 24.9205 25.9 25.4219 25.9C25.9233 25.9 26.4042 25.6972 26.7587 25.3362C27.1133 24.9752 27.3125 24.4855 27.3125 23.975C27.3125 23.7893 27.3849 23.6113 27.5139 23.48C27.6428 23.3487 27.8177 23.275 28 23.275C28.1823 23.275 28.3572 23.3487 28.4861 23.48C28.6151 23.6113 28.6875 23.7893 28.6875 23.975C28.6875 24.4855 28.8867 24.9752 29.2413 25.3362C29.5958 25.6972 30.0767 25.9 30.5781 25.9C31.0795 25.9 31.5604 25.6972 31.915 25.3362C32.2696 24.9752 32.4688 24.4855 32.4688 23.975C32.4688 23.7893 32.5412 23.6113 32.6701 23.48C32.799 23.3487 32.9739 23.275 33.1562 23.275C33.3386 23.275 33.5135 23.3487 33.6424 23.48C33.7713 23.6113 33.8438 23.7893 33.8438 23.975C33.8438 24.4855 34.0429 24.9752 34.3975 25.3362C34.7521 25.6972 35.233 25.9 35.7344 25.9C36.2358 25.9 36.7167 25.6972 37.0712 25.3362C37.4258 24.9752 37.625 24.4855 37.625 23.975V23.618C37.625 23.4512 37.5665 23.2898 37.46 23.163L33.8713 18.9H22.1287L18.54 23.163C18.4335 23.2898 18.375 23.4512 18.375 23.618V23.975C18.375 24.4855 18.5742 24.9752 18.9288 25.3362C19.2833 25.6972 19.7642 25.9 20.2656 25.9C20.767 25.9 21.2479 25.6972 21.6025 25.3362C21.9571 24.9752 22.1562 24.4855 22.1562 23.975C22.1562 23.7893 22.2287 23.6113 22.3576 23.48C22.4865 23.3487 22.6614 23.275 22.8438 23.275C23.0261 23.275 23.201 23.3487 23.3299 23.48C23.4588 23.6113 23.5312 23.7893 23.5312 23.975ZM19.0625 28C19.2448 28 19.4197 28.0737 19.5486 28.205C19.6776 28.3363 19.75 28.5143 19.75 28.7V37.1H21.125V30.1C21.125 29.7287 21.2699 29.3726 21.5277 29.1101C21.7856 28.8475 22.1353 28.7 22.5 28.7H26.625C26.9897 28.7 27.3394 28.8475 27.5973 29.1101C27.8551 29.3726 28 29.7287 28 30.1V37.1H36.25V28.7C36.25 28.5143 36.3224 28.3363 36.4514 28.205C36.5803 28.0737 36.7552 28 36.9375 28C37.1198 28 37.2947 28.0737 37.4236 28.205C37.5526 28.3363 37.625 28.5143 37.625 28.7V37.1H38.3125C38.4948 37.1 38.6697 37.1737 38.7986 37.305C38.9276 37.4363 39 37.6143 39 37.8C39 37.9857 38.9276 38.1637 38.7986 38.295C38.6697 38.4263 38.4948 38.5 38.3125 38.5H17.6875C17.5052 38.5 17.3303 38.4263 17.2014 38.295C17.0724 38.1637 17 37.9857 17 37.8C17 37.6143 17.0724 37.4363 17.2014 37.305C17.3303 37.1737 17.5052 37.1 17.6875 37.1H18.375V28.7C18.375 28.5143 18.4474 28.3363 18.5764 28.205C18.7053 28.0737 18.8802 28 19.0625 28ZM22.5 37.1H26.625V30.1H22.5V37.1ZM29.375 30.1C29.375 29.7287 29.5199 29.3726 29.7777 29.1101C30.0356 28.8475 30.3853 28.7 30.75 28.7H33.5C33.8647 28.7 34.2144 28.8475 34.4723 29.1101C34.7301 29.3726 34.875 29.7287 34.875 30.1V34.3C34.875 34.6713 34.7301 35.0274 34.4723 35.2899C34.2144 35.5525 33.8647 35.7 33.5 35.7H30.75C30.3853 35.7 30.0356 35.5525 29.7777 35.2899C29.5199 35.0274 29.375 34.6713 29.375 34.3V30.1ZM33.5 30.1H30.75V34.3H33.5V30.1Z" fill="#141414"/>
<defs>
<filter id="filter0_d_2433_533" x="4" y="6" width="48" height="48" filterUnits="userSpaceOnUse" color-interpolation-filters="sRGB">
<feFlood flood-opacity="0" result="BackgroundImageFix"/>
<feColorMatrix in="SourceAlpha" type="matrix" values="0 0 0 0 0 0 0 0 0 0 0 0 0 0 0 0 0 0 127 0" result="hardAlpha"/>
<feOffset dy="2"/>
<feGaussianBlur stdDeviation="2"/>
<feComposite in2="hardAlpha" operator="out"/>
<feColorMatrix type="matrix" values="0 0 0 0 0 0 0 0 0 0 0 0 0 0 0 0 0 0 0.16 0"/>
<feBlend mode="normal" in2="BackgroundImageFix" result="effect1_dropShadow_2433_533"/>
<feBlend mode="normal" in="SourceGraphic" in2="effect1_dropShadow_2433_533" result="shape"/>
</filter>
</defs>
</svg>
