<svg width="56" height="56" viewBox="0 0 56 56" fill="none" xmlns="http://www.w3.org/2000/svg">
<rect width="56" height="56" fill="white"/>
<g filter="url(#filter0_d_2433_501)">
<rect x="8" y="8" width="40" height="40" rx="20" fill="white"/>
</g>
<path d="M28 17.8467L28.3426 17.0682C28.2343 17.0232 28.1178 17 28 17C27.8822 17 27.7657 17.0232 27.6574 17.0682L28 17.8467ZM28 38.1541L27.568 38.8886C27.6996 38.9616 27.8485 39 28 39C28.1515 39 28.3004 38.9616 28.432 38.8886L28 38.1541ZM23.3827 35.5897L22.9495 36.3253L23.3815 35.5897H23.3827ZM27.6563 17.0693L20.2333 20.1595L20.9161 21.7164L28.3414 18.6251L27.6574 17.0682L27.6563 17.0693ZM19 21.9747V29.7141H20.7419V21.9747H19ZM22.9495 36.3253L27.568 38.8886L28.432 37.4197L23.8135 34.8553L22.9495 36.3253ZM28.432 38.8886L33.0505 36.3253L32.1865 34.8553L27.568 37.4197L28.432 38.8886ZM37 29.713V21.9758H35.2581V29.7152H37V29.713ZM35.769 20.1606L28.3426 17.0693L27.6574 18.624L35.0827 21.7164L35.7679 20.1606H35.769ZM37 21.9758C37 21.1861 36.5157 20.472 35.769 20.1606L35.0827 21.7164C35.1349 21.7382 35.1793 21.7744 35.2104 21.8206C35.2416 21.8667 35.2582 21.9207 35.2581 21.9758H37ZM33.0505 36.3253C34.2502 35.6593 35.2473 34.697 35.9409 33.536C36.6345 32.375 36.9999 31.0565 37 29.7141H35.2581C35.2578 30.758 34.9736 31.7833 34.4342 32.6862C33.8948 33.589 33.1194 34.3373 32.1865 34.8553L33.0505 36.3253ZM19 29.7141C19.0001 31.0565 19.3655 32.375 20.0591 33.536C20.7527 34.697 21.7498 35.6593 22.9495 36.3253L23.8135 34.8553C22.8805 34.3372 22.1049 33.5887 21.5655 32.6857C21.0261 31.7826 20.742 30.7571 20.7419 29.713H19V29.7141ZM20.231 20.1595C19.8656 20.3117 19.5543 20.5648 19.3355 20.8872C19.1167 21.2097 19.0001 21.5885 19 21.9747H20.7419C20.7419 21.8619 20.8116 21.7592 20.9185 21.7141L20.231 20.1617V20.1595Z" fill="#141414"/>
<path d="M25 28.1333L27 30L31 26" stroke="#141414" stroke-width="1.5" stroke-linecap="round" stroke-linejoin="round"/>
<defs>
<filter id="filter0_d_2433_501" x="4" y="6" width="48" height="48" filterUnits="userSpaceOnUse" color-interpolation-filters="sRGB">
<feFlood flood-opacity="0" result="BackgroundImageFix"/>
<feColorMatrix in="SourceAlpha" type="matrix" values="0 0 0 0 0 0 0 0 0 0 0 0 0 0 0 0 0 0 127 0" result="hardAlpha"/>
<feOffset dy="2"/>
<feGaussianBlur stdDeviation="2"/>
<feComposite in2="hardAlpha" operator="out"/>
<feColorMatrix type="matrix" values="0 0 0 0 0 0 0 0 0 0 0 0 0 0 0 0 0 0 0.16 0"/>
<feBlend mode="normal" in2="BackgroundImageFix" result="effect1_dropShadow_2433_501"/>
<feBlend mode="normal" in="SourceGraphic" in2="effect1_dropShadow_2433_501" result="shape"/>
</filter>
</defs>
</svg>
