<svg width="56" height="56" viewBox="0 0 56 56" fill="none" xmlns="http://www.w3.org/2000/svg">
<rect width="56" height="56" fill="white"/>
<g filter="url(#filter0_d_2433_495)">
<rect x="8" y="8" width="40" height="40" rx="20" fill="white"/>
</g>
<path d="M20.1248 29.0002V28.8752H19.9998H18.9998C18.9998 28.8752 18.9998 28.8752 18.9998 28.8752C18.8268 28.8752 18.6576 28.8238 18.5138 28.7277C18.3699 28.6315 18.2578 28.4949 18.1916 28.335C18.1254 28.1752 18.1081 27.9993 18.1418 27.8295C18.1755 27.6598 18.2588 27.504 18.3812 27.3816C18.3812 27.3816 18.3812 27.3816 18.3812 27.3816L27.3812 18.3816L27.3813 18.3815C27.4624 18.3002 27.5588 18.2357 27.665 18.1917C27.7711 18.1477 27.8849 18.125 27.9998 18.125C28.1147 18.125 28.2285 18.1477 28.3346 18.1917C28.4407 18.2357 28.5371 18.3002 28.6183 18.3815L28.6184 18.3816L37.6184 27.3816C37.6184 27.3816 37.6184 27.3816 37.6184 27.3816C37.7407 27.504 37.824 27.6598 37.8578 27.8295C37.8915 27.9993 37.8742 28.1752 37.808 28.335C37.7418 28.4949 37.6296 28.6315 37.4858 28.7277C37.3419 28.8238 37.1728 28.8752 36.9998 28.8752H35.9998H35.8748V29.0002V36.0002C35.8748 37.0342 35.0338 37.8752 33.9998 37.8752H21.9998C20.9658 37.8752 20.1248 37.0342 20.1248 36.0002V29.0002ZM25.8748 36.0002V36.1252H25.9998H29.9998H30.1248V36.0002V31.0002V30.8752H29.9998H25.9998H25.8748V31.0002V36.0002ZM28.0882 20.3258L27.9998 20.2374L27.9114 20.3258L21.9114 26.3258L21.8748 26.3624V26.4142V36.0002V36.1252H21.9998H23.9998H24.1248V36.0002V31.0002C24.1248 29.9662 24.9658 29.1252 25.9998 29.1252H29.9998C31.0338 29.1252 31.8748 29.9662 31.8748 31.0002V36.0002V36.1252H31.9998H34.0008H34.1258L34.1258 36.0002L34.1248 31.0002V26.4142V26.3624L34.0882 26.3258L28.0882 20.3258Z" fill="#141414" stroke="white" stroke-width="0.25"/>
<defs>
<filter id="filter0_d_2433_495" x="4" y="6" width="48" height="48" filterUnits="userSpaceOnUse" color-interpolation-filters="sRGB">
<feFlood flood-opacity="0" result="BackgroundImageFix"/>
<feColorMatrix in="SourceAlpha" type="matrix" values="0 0 0 0 0 0 0 0 0 0 0 0 0 0 0 0 0 0 127 0" result="hardAlpha"/>
<feOffset dy="2"/>
<feGaussianBlur stdDeviation="2"/>
<feComposite in2="hardAlpha" operator="out"/>
<feColorMatrix type="matrix" values="0 0 0 0 0 0 0 0 0 0 0 0 0 0 0 0 0 0 0.16 0"/>
<feBlend mode="normal" in2="BackgroundImageFix" result="effect1_dropShadow_2433_495"/>
<feBlend mode="normal" in="SourceGraphic" in2="effect1_dropShadow_2433_495" result="shape"/>
</filter>
</defs>
</svg>
