<svg width="80" height="80" viewBox="0 0 80 80" fill="none" xmlns="http://www.w3.org/2000/svg">
<circle cx="40" cy="40" r="40" fill="#F3E5F5"/>
<g clip-path="url(#clip0_88_1268)">
<path fill-rule="evenodd" clip-rule="evenodd" d="M40.0609 20.2842C40.4188 20.2842 40.7967 20.3806 41.101 20.5977L59.3708 33.6333C59.5635 33.7707 59.6082 34.0383 59.4708 34.231C59.3333 34.4237 59.0657 34.4685 58.873 34.331L56.4239 32.5835V51.1218C56.4239 51.9737 55.7269 52.6561 54.8771 52.6561H54.257C54.0203 52.6561 53.8285 52.4642 53.8285 52.2275C53.8285 51.9909 54.0203 51.799 54.257 51.799H54.8771C55.2625 51.799 55.5667 51.4913 55.5667 51.1218V31.972L40.6031 21.2954C40.4705 21.2008 40.2757 21.1413 40.0609 21.1413C39.8461 21.1413 39.6513 21.2008 39.5186 21.2954L24.555 31.972V51.1218C24.555 51.4913 24.8592 51.799 25.2446 51.799H25.7999C26.0366 51.799 26.2285 51.9909 26.2285 52.2275C26.2285 52.4642 26.0366 52.6561 25.7999 52.6561H25.2446C24.3949 52.6561 23.6978 51.9737 23.6978 51.1218V32.5836L21.2488 34.331C21.0561 34.4685 20.7885 34.4237 20.651 34.231C20.5135 34.0383 20.5583 33.7707 20.751 33.6333L39.0208 20.5977C39.3251 20.3806 39.703 20.2842 40.0609 20.2842ZM39.1579 37.5357C37.8217 38.143 37.1999 38.8945 37.1999 39.5699C37.1999 40.2452 37.8217 40.9967 39.1579 41.6041C40.4554 42.1938 42.2781 42.5699 44.3142 42.5699C46.3503 42.5699 48.1729 42.1938 49.4705 41.6041C50.8066 40.9967 51.4285 40.2452 51.4285 39.5699C51.4285 38.8945 50.8066 38.143 49.4705 37.5357C48.1729 36.9459 46.3503 36.5699 44.3142 36.5699C42.2781 36.5699 40.4554 36.9459 39.1579 37.5357ZM51.4285 41.3475C51.0027 41.7542 50.4464 42.102 49.8251 42.3844C48.3927 43.0355 46.4438 43.427 44.3142 43.427C42.1845 43.427 40.2357 43.0355 38.8032 42.3844C38.1819 42.102 37.6257 41.7542 37.1999 41.3475V42.3127C37.1999 42.5494 37.008 42.7413 36.7713 42.7413C36.5346 42.7413 36.3427 42.5494 36.3427 42.3127V39.5699C36.3427 38.3517 37.4094 37.3889 38.8032 36.7553C40.2357 36.1042 42.1845 35.7128 44.3142 35.7128C46.4438 35.7128 48.3927 36.1042 49.8251 36.7553C51.2189 37.3889 52.2856 38.3517 52.2856 39.5699V53.2842C52.2856 54.494 51.2331 55.4519 49.8553 56.0849C48.4397 56.7353 46.5129 57.1302 44.4037 57.141C44.1669 57.1423 43.9741 56.9514 43.9729 56.7147C43.9717 56.478 44.1625 56.2851 44.3992 56.2839C46.4156 56.2735 48.2166 55.8945 49.4974 55.306C50.8159 54.7002 51.4285 53.9546 51.4285 53.2842V51.633C51.1037 51.9436 50.7043 52.2188 50.2613 52.4553C49.0747 53.0886 47.448 53.5207 45.6285 53.6622C45.3926 53.6805 45.1863 53.5041 45.168 53.2681C45.1497 53.0322 45.3261 52.8259 45.5621 52.8076C47.2982 52.6726 48.8023 52.2625 49.8577 51.6991C50.9378 51.1225 51.4285 50.4579 51.4285 49.8556V48.2045C51.0925 48.5257 50.6765 48.8093 50.2145 49.0514C49.0015 49.6874 47.3397 50.1161 45.4856 50.2441C45.2494 50.2604 45.0448 50.0822 45.0285 49.8461C45.0122 49.6099 45.1904 49.4053 45.4266 49.389C47.1963 49.2668 48.7351 48.8593 49.8165 48.2923C50.9241 47.7116 51.4285 47.0374 51.4285 46.427V44.7761C51.0027 45.1827 50.4464 45.5306 49.8251 45.813C48.3927 46.4641 46.4438 46.8556 44.3142 46.8556C44.1933 46.8556 44.073 46.8543 43.9534 46.8518C43.7167 46.8469 43.5289 46.651 43.5338 46.4144C43.5388 46.1778 43.7346 45.9899 43.9713 45.9949C44.0849 45.9973 44.1992 45.9985 44.3142 45.9985C46.3503 45.9985 48.1729 45.6224 49.4705 45.0326C50.8066 44.4253 51.4285 43.6738 51.4285 42.9985V41.3475ZM36.0856 44.7985C32.1565 44.7985 28.9713 47.9836 28.9713 51.9128C28.9713 55.8418 32.1565 59.027 36.0856 59.027C40.0147 59.027 43.1999 55.8418 43.1999 51.9128C43.1999 47.9836 40.0147 44.7985 36.0856 44.7985ZM28.1142 51.9128C28.1142 47.5102 31.6831 43.9413 36.0856 43.9413C40.4881 43.9413 44.057 47.5102 44.057 51.9128C44.057 56.3152 40.4881 59.8842 36.0856 59.8842C31.6831 59.8842 28.1142 56.3152 28.1142 51.9128ZM35.704 48.459C35.1317 48.5682 34.711 48.9463 34.711 49.585C34.711 49.9598 34.8337 50.263 35.0097 50.6346C35.0242 50.6652 35.0391 50.6963 35.0543 50.7281L35.0617 50.7435C35.1835 50.9977 35.324 51.2906 35.42 51.6326H37.603C37.8397 51.6326 38.0316 51.8245 38.0316 52.0612C38.0316 52.2979 37.8397 52.4898 37.603 52.4898H35.5363C35.5319 53.6994 35.0209 54.4129 34.5114 54.9342H38.4094C38.6461 54.9342 38.8379 55.1261 38.8379 55.3628C38.8379 55.5995 38.6461 55.7914 38.4094 55.7914H33.457C33.2877 55.7914 33.1342 55.6917 33.0654 55.5369C32.9966 55.3821 33.0254 55.2014 33.1389 55.0757C33.3058 54.8907 33.4751 54.7302 33.6373 54.5763C34.1979 54.0448 34.6747 53.5926 34.6792 52.4898H33.457C33.2203 52.4898 33.0285 52.2979 33.0285 52.0612C33.0285 51.8245 33.2203 51.6326 33.457 51.6326H34.5187C34.4533 51.4597 34.3727 51.2906 34.2853 51.1071L34.2849 51.1062C34.2685 51.0718 34.2518 51.0369 34.235 51.0014C34.0521 50.6151 33.8538 50.1637 33.8538 49.585C33.8538 48.4371 34.6712 47.7835 35.5434 47.6171C36.3892 47.4557 37.409 47.7245 37.9406 48.5219C38.0719 48.7189 38.0187 48.9849 37.8217 49.1162C37.6248 49.2475 37.3587 49.1943 37.2274 48.9974C36.9337 48.5567 36.3026 48.3448 35.704 48.459Z" fill="#4A148C"/>
</g>
<defs>
<clipPath id="clip0_88_1268">
<rect width="40" height="40" fill="white" transform="translate(20 20)"/>
</clipPath>
</defs>
</svg>
