<svg width="360" height="324" viewBox="0 0 360 324" fill="none" xmlns="http://www.w3.org/2000/svg">
<g clip-path="url(#clip0_2175_527)">
<path d="M238.136 4.53541C238.136 4.53541 180.402 -12.4623 123.393 21.9174C66.3846 56.2972 37.3102 120.411 12.3673 171.851C-12.5757 223.29 1.25365 273.687 44.4592 294.853C87.6654 316.019 117.376 280.228 178.213 275.567C239.052 270.905 255.355 278.487 306.048 242.872C356.74 207.257 366.381 128.554 326.947 72.608C287.513 16.662 238.136 4.53541 238.136 4.53541Z" fill="#BBDEFB"/>
<path opacity="0.7" d="M238.136 4.53541C238.136 4.53541 180.402 -12.4623 123.393 21.9174C66.3846 56.2972 37.3102 120.411 12.3673 171.851C-12.5757 223.29 1.25365 273.687 44.4592 294.853C87.6654 316.019 117.376 280.228 178.213 275.567C239.052 270.905 255.355 278.487 306.048 242.872C356.74 207.257 366.381 128.554 326.947 72.608C287.513 16.662 238.136 4.53541 238.136 4.53541Z" fill="white"/>
<path d="M84.2001 32.705C82.6343 34.4041 81.4946 36.5025 80.9506 38.8312C79.4705 36.8436 77.107 35.5547 74.4376 35.5547C72.9874 35.5547 71.6276 35.939 70.4485 36.6055C69.7222 28.5122 62.9239 22.1675 54.6408 22.1675C47.0202 22.1675 40.6566 27.5376 39.1207 34.6989C37.2562 32.8645 34.7009 31.7305 31.879 31.7305C29.2592 31.7305 26.8681 32.7058 25.0469 34.3122" stroke="#141414" stroke-miterlimit="10"/>
<path d="M127.451 15.9698C126.391 15.8039 125.304 15.7183 124.198 15.7183C114.153 15.7183 105.764 22.7962 103.74 32.2358C101.283 29.8183 97.9152 28.3227 94.1949 28.3227C91.6286 28.3227 89.2304 29.0332 87.1836 30.2686" stroke="#141414" stroke-miterlimit="10"/>
<path d="M139.214 22.0731C137.742 20.5555 136.042 19.2603 134.169 18.2426" stroke="#141414" stroke-miterlimit="10"/>
<path d="M131.676 42.4392H170.35C169.155 40.4768 167.003 39.162 164.537 39.162C162.982 39.162 161.553 39.6893 160.407 40.5664C158.952 36.3767 154.979 33.3635 150.293 33.3635C148.38 33.3635 146.589 33.8704 145.035 34.7475C144.685 30.8407 143.26 27.2436 141.06 24.2524" stroke="#141414" stroke-miterlimit="10"/>
<path d="M23.4294 36.1158C22.2456 37.7961 21.5508 39.845 21.5508 42.0566C21.5508 42.1862 21.5649 42.3112 21.5696 42.4393H80.6065H89.6544H124.064" stroke="#141414" stroke-miterlimit="10"/>
<path d="M160.669 49.3263C159.044 47.9399 156.936 47.1029 154.632 47.1029C150.165 47.1029 146.434 50.2513 145.534 54.4488C144.441 53.3737 142.943 52.7088 141.288 52.7088C138.42 52.7088 136.024 54.705 135.398 57.3826C134.74 56.4985 133.688 55.9256 132.501 55.9256C131.856 55.9256 131.252 56.0961 130.727 56.3924C130.404 52.7929 127.38 49.9715 123.696 49.9715C120.307 49.9715 117.476 52.3599 116.794 55.5444C115.965 54.7286 114.828 54.2241 113.573 54.2241C111.036 54.2241 108.979 56.2808 108.979 58.8169C108.979 58.8743 108.986 58.9301 108.988 58.9867H135.245H139.269H175.158C174.627 58.1143 173.669 57.5296 172.573 57.5296C171.881 57.5296 171.245 57.7638 170.736 58.1544C170.088 56.291 168.321 54.951 166.238 54.951C165.387 54.951 164.591 55.1766 163.899 55.5672C163.835 54.8599 163.693 54.1745 163.48 53.5222" stroke="#141414" stroke-miterlimit="10"/>
<path d="M291.168 168.977C289.998 170.248 289.146 171.816 288.739 173.555C287.633 172.07 285.866 171.107 283.871 171.107C282.787 171.107 281.771 171.393 280.89 171.892C280.347 165.842 275.266 161.101 269.075 161.101C263.38 161.101 258.623 165.115 257.476 170.466C256.082 169.095 254.173 168.247 252.064 168.247C250.106 168.247 248.319 168.976 246.958 170.177" stroke="#141414" stroke-miterlimit="10"/>
<path d="M323.492 156.47C322.7 156.346 321.888 156.282 321.06 156.282C313.553 156.282 307.283 161.572 305.771 168.626C303.935 166.819 301.417 165.702 298.637 165.702C296.719 165.702 294.926 166.233 293.396 167.157" stroke="#141414" stroke-miterlimit="10"/>
<path d="M332.283 161.031C331.183 159.897 329.912 158.929 328.513 158.169" stroke="#141414" stroke-miterlimit="10"/>
<path d="M326.649 176.252H355.553C354.66 174.785 353.051 173.803 351.209 173.803C350.046 173.803 348.979 174.197 348.122 174.853C347.034 171.722 344.065 169.47 340.563 169.47C339.134 169.47 337.794 169.849 336.634 170.505C336.372 167.585 335.307 164.896 333.663 162.661" stroke="#141414" stroke-miterlimit="10"/>
<path d="M245.75 171.526C244.865 172.782 244.346 174.313 244.346 175.966C244.346 176.063 244.357 176.156 244.36 176.252H288.482H295.244H320.96" stroke="#141414" stroke-miterlimit="10"/>
<path d="M348.318 181.399C347.104 180.362 345.529 179.737 343.807 179.737C340.468 179.737 337.679 182.09 337.007 185.227C336.19 184.423 335.071 183.926 333.834 183.926C331.691 183.926 329.899 185.419 329.432 187.42C328.94 186.759 328.154 186.33 327.267 186.33C326.785 186.33 326.333 186.458 325.941 186.679C325.7 183.989 323.44 181.881 320.686 181.881C318.154 181.881 316.038 183.665 315.528 186.046C314.908 185.436 314.059 185.06 313.121 185.06C311.225 185.06 309.688 186.597 309.688 188.492C309.688 188.536 309.692 188.577 309.694 188.62H329.317H332.324H359.147C358.75 187.967 358.034 187.53 357.215 187.53C356.697 187.53 356.223 187.706 355.841 187.997C355.358 186.605 354.037 185.603 352.48 185.603C351.844 185.603 351.249 185.772 350.732 186.064C350.685 185.535 350.578 185.023 350.419 184.535" stroke="#141414" stroke-miterlimit="10"/>
<path d="M163.52 93.1669H56.2412V251.542H163.52V93.1669Z" fill="#141414" stroke="#141414" stroke-miterlimit="10" stroke-linecap="round" stroke-linejoin="round"/>
<path d="M156.62 100.845H63.1426V244.042H156.62V100.845Z" fill="white" stroke="#141414" stroke-miterlimit="10" stroke-linecap="round" stroke-linejoin="round"/>
<path d="M133.503 104.578H86.2568V93.4874C86.2568 90.6078 88.5913 88.2737 91.4713 88.2737H128.29C131.17 88.2737 133.504 90.6078 133.504 93.4874V104.578H133.503Z" fill="#7D7D7D" stroke="#141414" stroke-miterlimit="10" stroke-linecap="round" stroke-linejoin="round"/>
<path d="M113.041 81.6084H106.718C103.626 81.6084 101.12 84.1147 101.12 87.2057V88.2258H118.639V87.2057C118.64 84.1139 116.133 81.6084 113.041 81.6084Z" fill="#7D7D7D" stroke="#141414" stroke-miterlimit="10" stroke-linecap="round" stroke-linejoin="round"/>
<path d="M133.5 134C139.299 134 144 129.299 144 123.5C144 117.701 139.299 113 133.5 113C127.701 113 123 117.701 123 123.5C123 129.299 127.701 134 133.5 134Z" fill="#141414" stroke="#141414" stroke-miterlimit="10" stroke-linecap="round" stroke-linejoin="round"/>
<path d="M133.5 133C138.747 133 143 128.747 143 123.5C143 118.253 138.747 114 133.5 114C128.253 114 124 118.253 124 123.5C124 128.747 128.253 133 133.5 133Z" fill="white" stroke="#141414" stroke-miterlimit="10" stroke-linecap="round" stroke-linejoin="round"/>
<path d="M71.2227 123.08H107.694" stroke="#141414" stroke-miterlimit="10" stroke-linecap="round" stroke-linejoin="round"/>
<path d="M71.2227 130.641H107.694" stroke="#141414" stroke-miterlimit="10" stroke-linecap="round" stroke-linejoin="round"/>
<path d="M71.2227 155.545H148.168" stroke="#141414" stroke-miterlimit="10" stroke-linecap="round" stroke-linejoin="round"/>
<path d="M80.5625 162.66H71.667V171.999H80.5625V162.66Z" stroke="#141414" stroke-miterlimit="10" stroke-linecap="round" stroke-linejoin="round"/>
<path d="M121.927 162.66H113.031V171.999H121.927V162.66Z" stroke="#141414" stroke-miterlimit="10" stroke-linecap="round" stroke-linejoin="round"/>
<path d="M84.1211 171.999H105.915" stroke="#141414" stroke-miterlimit="10" stroke-linecap="round" stroke-linejoin="round"/>
<path d="M125.485 171.999H147.279" stroke="#141414" stroke-miterlimit="10" stroke-linecap="round" stroke-linejoin="round"/>
<path d="M80.5625 180.893H71.667V190.232H80.5625V180.893Z" stroke="#141414" stroke-miterlimit="10" stroke-linecap="round" stroke-linejoin="round"/>
<path d="M121.927 180.893H113.031V190.232H121.927V180.893Z" stroke="#141414" stroke-miterlimit="10" stroke-linecap="round" stroke-linejoin="round"/>
<path d="M84.1211 190.232H105.915" stroke="#141414" stroke-miterlimit="10" stroke-linecap="round" stroke-linejoin="round"/>
<path d="M125.485 190.232H147.279" stroke="#141414" stroke-miterlimit="10" stroke-linecap="round" stroke-linejoin="round"/>
<path d="M80.5625 199.126H71.667V208.465H80.5625V199.126Z" stroke="#141414" stroke-miterlimit="10" stroke-linecap="round" stroke-linejoin="round"/>
<path d="M121.927 199.126H113.031V208.465H121.927V199.126Z" stroke="#141414" stroke-miterlimit="10" stroke-linecap="round" stroke-linejoin="round"/>
<path d="M84.1211 208.465H105.915" stroke="#141414" stroke-miterlimit="10" stroke-linecap="round" stroke-linejoin="round"/>
<path d="M125.485 208.465H147.279" stroke="#141414" stroke-miterlimit="10" stroke-linecap="round" stroke-linejoin="round"/>
<path d="M80.5625 217.359H71.667V226.698H80.5625V217.359Z" stroke="#141414" stroke-miterlimit="10" stroke-linecap="round" stroke-linejoin="round"/>
<path d="M121.927 217.359H113.031V226.698H121.927V217.359Z" stroke="#141414" stroke-miterlimit="10" stroke-linecap="round" stroke-linejoin="round"/>
<path d="M84.1211 226.698H105.915" stroke="#141414" stroke-miterlimit="10" stroke-linecap="round" stroke-linejoin="round"/>
<path d="M125.485 226.698H147.279" stroke="#141414" stroke-miterlimit="10" stroke-linecap="round" stroke-linejoin="round"/>
<path d="M259.853 49.3026H177.717V203.547H259.853V49.3026Z" fill="#BBDEFB" stroke="#141414" stroke-miterlimit="10" stroke-linecap="round" stroke-linejoin="round"/>
<path d="M251.428 67.7275C247.067 67.7275 243.53 64.1925 243.53 59.8307H193.512C193.512 64.1917 189.976 67.7275 185.614 67.7275V184.596C189.976 184.596 193.512 188.132 193.512 192.493C193.512 192.67 193.497 192.845 193.486 193.019H243.557C243.545 192.845 243.53 192.67 243.53 192.493C243.53 188.132 247.066 184.596 251.428 184.596C251.606 184.596 251.78 184.611 251.955 184.623V67.7016C251.78 67.7126 251.606 67.7275 251.428 67.7275ZM218.785 150.378C205.554 150.378 194.828 139.654 194.828 126.425C194.828 113.196 205.553 102.472 218.785 102.472C232.015 102.472 242.741 113.196 242.741 126.425C242.741 139.654 232.016 150.378 218.785 150.378Z" fill="white" stroke="#141414" stroke-miterlimit="10" stroke-linecap="round" stroke-linejoin="round"/>
<path d="M282.423 63.6839L201.272 51.0122L177.469 203.406L258.619 216.078L282.423 63.6839Z" fill="#BBDEFB" stroke="#141414" stroke-miterlimit="10" stroke-linecap="round" stroke-linejoin="round"/>
<path d="M271.267 80.5826C266.957 79.9099 264.009 75.8711 264.682 71.5627L215.262 63.8474C214.59 68.1566 210.55 71.1037 206.241 70.431L188.209 185.9C192.519 186.573 195.466 190.612 194.794 194.92C194.766 195.096 194.724 195.265 194.686 195.437L244.158 203.16C244.173 202.985 244.185 202.811 244.213 202.636C244.885 198.326 248.925 195.379 253.234 196.052C253.409 196.08 253.579 196.121 253.75 196.16L271.79 80.6384C271.617 80.6219 271.443 80.6101 271.267 80.5826ZM226.262 157.208C213.19 155.167 204.247 142.917 206.288 129.848C208.33 116.777 220.581 107.836 233.654 109.877C246.726 111.918 255.669 124.168 253.628 137.237C251.585 150.308 239.334 159.249 226.262 157.208Z" fill="white" stroke="#141414" stroke-miterlimit="10" stroke-linecap="round" stroke-linejoin="round"/>
<path d="M310.394 90.012L234.041 59.7494L177.194 203.135L253.547 233.398L310.394 90.012Z" fill="#BBDEFB" stroke="#141414" stroke-miterlimit="10" stroke-linecap="round" stroke-linejoin="round"/>
<path d="M295.774 104.046C291.718 102.439 289.735 97.8493 291.342 93.7955L244.844 75.3651C243.236 79.4196 238.646 81.4033 234.592 79.7961L191.517 188.438C195.572 190.045 197.556 194.635 195.948 198.689C195.883 198.854 195.804 199.01 195.73 199.168L242.277 217.618C242.331 217.452 242.381 217.284 242.446 217.119C244.054 213.065 248.644 211.081 252.699 212.688C252.864 212.754 253.02 212.832 253.178 212.907L296.273 104.214C296.106 104.162 295.939 104.111 295.774 104.046ZM234.964 168.85C222.665 163.975 216.647 150.053 221.522 137.756C226.398 125.458 240.322 119.441 252.621 124.316C264.92 129.191 270.938 143.113 266.063 155.41C261.187 167.708 247.264 173.726 234.964 168.85Z" fill="white" stroke="#141414" stroke-miterlimit="10" stroke-linecap="round" stroke-linejoin="round"/>
<path d="M333.272 124.688L266.331 77.0977L176.933 202.807L243.874 250.398L333.272 124.688Z" fill="#BBDEFB" stroke="#141414" stroke-miterlimit="10" stroke-linecap="round" stroke-linejoin="round"/>
<path d="M315.735 134.81C312.18 132.283 311.348 127.353 313.875 123.798L273.11 94.8195C270.582 98.3741 265.652 99.2064 262.097 96.6797L194.367 191.928C197.922 194.455 198.755 199.384 196.228 202.939C196.125 203.084 196.012 203.217 195.901 203.352L236.71 232.362C236.802 232.213 236.89 232.063 236.993 231.918C239.52 228.364 244.451 227.531 248.006 230.058C248.151 230.161 248.285 230.274 248.42 230.385L316.18 135.094C316.031 135.002 315.881 134.914 315.735 134.81ZM241.232 183.257C230.449 175.592 227.923 160.638 235.589 149.856C243.256 139.075 258.211 136.548 268.995 144.214C279.778 151.88 282.305 166.833 274.638 177.615C266.972 188.397 252.015 190.923 241.232 183.257Z" fill="white" stroke="#141414" stroke-miterlimit="10" stroke-linecap="round" stroke-linejoin="round"/>
<path d="M196.951 212.464C225.158 212.464 248.024 189.601 248.024 161.399C248.024 133.196 225.158 110.333 196.951 110.333C168.744 110.333 145.878 133.196 145.878 161.399C145.878 189.601 168.744 212.464 196.951 212.464Z" fill="white" stroke="#141414" stroke-miterlimit="10" stroke-linecap="round" stroke-linejoin="round"/>
<path d="M156.191 131.118H161.688" stroke="#141414" stroke-miterlimit="10" stroke-linecap="round" stroke-linejoin="round"/>
<path d="M158.773 127.781H163.913" stroke="#141414" stroke-miterlimit="10" stroke-linecap="round" stroke-linejoin="round"/>
<path d="M161.227 125.185H166.325" stroke="#141414" stroke-miterlimit="10" stroke-linecap="round" stroke-linejoin="round"/>
<path d="M164.38 122.434H168.879" stroke="#141414" stroke-miterlimit="10" stroke-linecap="round" stroke-linejoin="round"/>
<path d="M152.846 136.125H157.979" stroke="#141414" stroke-miterlimit="10" stroke-linecap="round" stroke-linejoin="round"/>
<path d="M149.114 144.099H154.27" stroke="#141414" stroke-miterlimit="10" stroke-linecap="round" stroke-linejoin="round"/>
<path d="M146.548 153.742H152.044" stroke="#141414" stroke-miterlimit="10" stroke-linecap="round" stroke-linejoin="round"/>
<path d="M146.177 164.498H151.673" stroke="#141414" stroke-miterlimit="10" stroke-linecap="round" stroke-linejoin="round"/>
<path d="M201.775 212.464C229.982 212.464 252.848 189.601 252.848 161.399C252.848 133.196 229.982 110.333 201.775 110.333C173.568 110.333 150.702 133.196 150.702 161.399C150.702 189.601 173.568 212.464 201.775 212.464Z" fill="white" stroke="#141414" stroke-miterlimit="10" stroke-linecap="round" stroke-linejoin="round"/>
<path d="M241.41 170.657C246.46 148.771 232.809 126.936 210.92 121.887C189.032 116.838 167.194 130.487 162.144 152.372C157.094 174.258 170.744 196.093 192.633 201.142C214.522 206.191 236.36 192.543 241.41 170.657Z" fill="white" stroke="#141414" stroke-miterlimit="10" stroke-linecap="round" stroke-linejoin="round"/>
<path d="M201.775 120.73C201.504 120.73 201.236 120.745 200.967 120.751C223.056 121.183 240.833 139.209 240.833 161.399C240.833 183.588 223.056 201.615 200.967 202.047C201.236 202.053 201.504 202.067 201.775 202.067C224.239 202.067 242.449 183.859 242.449 161.399C242.449 138.938 224.239 120.73 201.775 120.73Z" fill="white" stroke="#141414" stroke-miterlimit="10" stroke-linecap="round" stroke-linejoin="round"/>
<g clip-path="url(#clip1_2175_527)">
<path d="M213.245 176.131H198.531C199.754 173.025 200.452 169.7 200.627 166.244H208.486C209.97 166.244 211.149 165.063 211.149 163.575C211.149 162.088 209.97 160.906 208.486 160.906H200.496C200.277 158.806 199.885 156.706 199.273 154.606C199.099 153.994 199.011 153.425 199.011 152.988C199.011 150.1 201.282 147.869 204.294 147.869C207.22 147.869 209.577 150.231 209.577 153.163C209.577 155 211.062 156.488 212.896 156.488C214.73 156.488 216.214 155 216.214 153.163C216.214 146.556 210.844 141.219 204.294 141.219C197.614 141.219 192.375 146.381 192.375 152.988C192.375 154.038 192.549 155.219 192.899 156.444C193.335 157.931 193.597 159.463 193.815 160.906H190.454C188.969 160.906 187.79 162.088 187.79 163.575C187.79 165.063 188.969 166.244 190.454 166.244H194.034C193.815 169.569 192.986 172.763 191.501 175.606L191.239 176.131H189.318C187.485 176.131 186 177.619 186 179.456C186 181.294 187.485 182.781 189.318 182.781H213.289C215.123 182.781 216.607 181.294 216.607 179.456C216.607 177.619 215.079 176.131 213.245 176.131Z" fill="#141414"/>
</g>
<path d="M73.7475 320.438H25.3975V267.947L48.1113 244.453L73.7475 267.947V320.438Z" fill="#999999" stroke="#141414" stroke-miterlimit="10" stroke-linecap="round" stroke-linejoin="round"/>
<path d="M232.314 320.438H116.449V208.217L183.317 180.304L232.314 208.217V320.438Z" fill="#999999" stroke="#141414" stroke-miterlimit="10" stroke-linecap="round" stroke-linejoin="round"/>
<path d="M131.91 258.053H71.5986V320.507H131.91V258.053Z" fill="white" stroke="#141414" stroke-miterlimit="10" stroke-linecap="round" stroke-linejoin="round"/>
<path d="M201.528 267.947H168.398V320.508H201.528V267.947Z" fill="#C2C2C2" stroke="#141414" stroke-miterlimit="10" stroke-linecap="round" stroke-linejoin="round"/>
<path d="M191.018 275.367H175.819V320.507H191.018V275.367Z" fill="white" stroke="#141414" stroke-miterlimit="10" stroke-linecap="round" stroke-linejoin="round"/>
<path d="M188.624 275.367H178.215V320.507H188.624V275.367Z" fill="#141414" stroke="#141414" stroke-miterlimit="10" stroke-linecap="round" stroke-linejoin="round"/>
<path d="M188.623 315.721H160.138V318.621H188.623V315.721Z" fill="white" stroke="#141414" stroke-miterlimit="10" stroke-linecap="round" stroke-linejoin="round"/>
<path d="M191.018 275.367H175.819V279.077H191.018V275.367Z" fill="white" stroke="#141414" stroke-miterlimit="10" stroke-linecap="round" stroke-linejoin="round"/>
<path d="M62.3222 275.367H37.9404V320.507H62.3222V275.367Z" fill="white" stroke="#141414" stroke-miterlimit="10" stroke-linecap="round" stroke-linejoin="round"/>
<path d="M58.4813 275.367H41.7822V320.507H58.4813V275.367Z" fill="#141414" stroke="#141414" stroke-miterlimit="10" stroke-linecap="round" stroke-linejoin="round"/>
<path d="M62.3222 275.367H37.9404V279.077H62.3222V275.367Z" fill="white" stroke="#141414" stroke-miterlimit="10" stroke-linecap="round" stroke-linejoin="round"/>
<path d="M148.817 266.89H129.438V301.956H148.817V266.89Z" fill="#C2C2C2" stroke="#141414" stroke-miterlimit="10" stroke-linecap="round" stroke-linejoin="round"/>
<path d="M293.324 320.438H210.047V208.217L251.196 180.304L293.324 208.217V320.438Z" fill="white" stroke="#141414" stroke-miterlimit="10" stroke-linecap="round" stroke-linejoin="round"/>
<path d="M294.367 208.586L251.115 180.531L209.697 208.834V211.565L251.412 183.263L294.367 211.326V208.586Z" fill="white" stroke="#141414" stroke-miterlimit="10" stroke-linecap="round" stroke-linejoin="round"/>
<path d="M240.558 187.52L205.21 244.038L210.046 244.655L246.838 184.351L293.324 252.921L295.798 252.821L249.422 181.507L240.558 187.52Z" fill="#141414" stroke="#141414" stroke-miterlimit="10" stroke-linecap="round" stroke-linejoin="round"/>
<path d="M210.046 208.217H111.502L150.453 180.304L251.115 180.874L210.046 208.217Z" fill="#141414" stroke="#141414" stroke-miterlimit="10" stroke-linecap="round" stroke-linejoin="round"/>
<path d="M271.333 256.637H224.615V320.438H271.333V256.637Z" fill="#BABABA" stroke="#141414" stroke-miterlimit="10" stroke-linecap="round" stroke-linejoin="round"/>
<path d="M275.044 256.637H228.326V320.438H275.044V256.637Z" fill="white" stroke="#141414" stroke-miterlimit="10" stroke-linecap="round" stroke-linejoin="round"/>
<path d="M267.953 266.321H235.417V299.931H267.953V266.321Z" fill="white" stroke="#141414" stroke-width="2" stroke-miterlimit="10" stroke-linecap="round" stroke-linejoin="round"/>
<path d="M258.522 266.321H244.849V299.931H258.522V266.321Z" fill="white" stroke="#141414" stroke-width="2" stroke-miterlimit="10" stroke-linecap="round" stroke-linejoin="round"/>
<path d="M276.467 253.788H219.494V259.485H276.467V253.788Z" fill="#BABABA" stroke="#141414" stroke-miterlimit="10" stroke-linecap="round" stroke-linejoin="round"/>
<path d="M280.172 253.788H223.199V259.485H280.172V253.788Z" fill="white" stroke="#141414" stroke-miterlimit="10" stroke-linecap="round" stroke-linejoin="round"/>
<path d="M192.524 266.89H189.634V297.651H192.524V266.89Z" fill="white" stroke="#141414" stroke-miterlimit="10" stroke-linecap="round" stroke-linejoin="round"/>
<path d="M200.579 266.89H197.688V297.651H200.579V266.89Z" fill="white" stroke="#141414" stroke-miterlimit="10" stroke-linecap="round" stroke-linejoin="round"/>
<path d="M193.413 297.22H188.624V300.668H193.413V297.22Z" fill="white" stroke="#141414" stroke-miterlimit="10" stroke-linecap="round" stroke-linejoin="round"/>
<path d="M201.529 297.22H196.739V300.668H201.529V297.22Z" fill="white" stroke="#141414" stroke-miterlimit="10" stroke-linecap="round" stroke-linejoin="round"/>
<path d="M193.413 269.964H188.624V271.903H193.413V269.964Z" fill="white" stroke="#141414" stroke-miterlimit="10" stroke-linecap="round" stroke-linejoin="round"/>
<path d="M201.529 269.964H196.739V271.903H201.529V269.964Z" fill="white" stroke="#141414" stroke-miterlimit="10" stroke-linecap="round" stroke-linejoin="round"/>
<path d="M203.259 300.38H186.334V320.438H203.259V300.38Z" fill="white" stroke="#141414" stroke-miterlimit="10" stroke-linecap="round" stroke-linejoin="round"/>
<path d="M151.707 266.89H148.816V297.651H151.707V266.89Z" fill="white" stroke="#141414" stroke-miterlimit="10" stroke-linecap="round" stroke-linejoin="round"/>
<path d="M159.761 266.89H156.871V297.651H159.761V266.89Z" fill="white" stroke="#141414" stroke-miterlimit="10" stroke-linecap="round" stroke-linejoin="round"/>
<path d="M152.596 297.22H147.807V300.668H152.596V297.22Z" fill="white" stroke="#141414" stroke-miterlimit="10" stroke-linecap="round" stroke-linejoin="round"/>
<path d="M160.711 297.22H155.922V300.668H160.711V297.22Z" fill="white" stroke="#141414" stroke-miterlimit="10" stroke-linecap="round" stroke-linejoin="round"/>
<path d="M152.596 269.964H147.807V271.903H152.596V269.964Z" fill="white" stroke="#141414" stroke-miterlimit="10" stroke-linecap="round" stroke-linejoin="round"/>
<path d="M160.711 269.964H155.922V271.903H160.711V269.964Z" fill="white" stroke="#141414" stroke-miterlimit="10" stroke-linecap="round" stroke-linejoin="round"/>
<path d="M162.441 300.38H145.517V320.438H162.441V300.38Z" fill="white" stroke="#141414" stroke-miterlimit="10" stroke-linecap="round" stroke-linejoin="round"/>
<path d="M145.939 300.38H125.304V320.438H145.939V300.38Z" fill="#999999" stroke="#141414" stroke-miterlimit="10" stroke-linecap="round" stroke-linejoin="round"/>
<path d="M203.259 269.739H139.449L150.274 264.042H203.259V269.739Z" fill="white" stroke="#141414" stroke-miterlimit="10" stroke-linecap="round" stroke-linejoin="round"/>
<path d="M235.733 274.866H267.638" stroke="#141414" stroke-miterlimit="10" stroke-linecap="round" stroke-linejoin="round"/>
<path d="M235.733 282.84H267.638" stroke="#141414" stroke-miterlimit="10" stroke-linecap="round" stroke-linejoin="round"/>
<path d="M235.733 290.816H267.638" stroke="#141414" stroke-miterlimit="10" stroke-linecap="round" stroke-linejoin="round"/>
<path d="M45.2923 243.365L22.165 268.442H24.1002L46.814 244.453L45.2923 243.365Z" fill="#141414" stroke="#141414" stroke-miterlimit="10" stroke-linecap="round" stroke-linejoin="round"/>
<path d="M69.7437 267.329H133.147L180.65 243.365H45.292L69.7437 267.329Z" fill="#141414" stroke="#141414" stroke-miterlimit="10" stroke-linecap="round" stroke-linejoin="round"/>
<path d="M213.655 243.365H176.939L111.502 267.329H144.279L213.655 243.365Z" fill="#141414" stroke="#141414" stroke-miterlimit="10" stroke-linecap="round" stroke-linejoin="round"/>
<path d="M295.798 246.026L252.671 179.862C252.323 179.328 251.757 179.02 251.089 179.019C250.452 179.028 249.865 179.364 249.532 179.908L210.729 243.995L135.622 268.151V272.026L212.48 247.342C212.917 247.211 213.29 246.922 213.528 246.533L251.169 184.351L295.799 252.822V246.026H295.798Z" fill="white" stroke="#141414" stroke-miterlimit="10" stroke-linecap="round" stroke-linejoin="round"/>
<path d="M198.511 212.394H185.407V234.041H198.511V212.394Z" stroke="#141414" stroke-width="2" stroke-miterlimit="10" stroke-linecap="round" stroke-linejoin="round"/>
<path d="M191.959 212.964V233.471" stroke="#141414" stroke-miterlimit="10" stroke-linecap="round" stroke-linejoin="round"/>
<path d="M198.225 223.218H185.691" stroke="#141414" stroke-miterlimit="10" stroke-linecap="round" stroke-linejoin="round"/>
<path d="M106.304 275.675H93.2002V297.321H106.304V275.675Z" stroke="#141414" stroke-width="2" stroke-miterlimit="10" stroke-linecap="round" stroke-linejoin="round"/>
<path d="M99.752 276.244V296.751" stroke="#141414" stroke-miterlimit="10" stroke-linecap="round" stroke-linejoin="round"/>
<path d="M106.018 286.498H93.4844" stroke="#141414" stroke-miterlimit="10" stroke-linecap="round" stroke-linejoin="round"/>
<path d="M257.203 211.984H244.1V233.631H257.203V211.984Z" stroke="#141414" stroke-width="2" stroke-miterlimit="10" stroke-linecap="round" stroke-linejoin="round"/>
<path d="M250.652 212.554V233.061" stroke="#141414" stroke-miterlimit="10" stroke-linecap="round" stroke-linejoin="round"/>
<path d="M256.919 222.807H244.384" stroke="#141414" stroke-miterlimit="10" stroke-linecap="round" stroke-linejoin="round"/>
<path d="M170.498 212.394H157.395V234.041H170.498V212.394Z" stroke="#141414" stroke-width="2" stroke-miterlimit="10" stroke-linecap="round" stroke-linejoin="round"/>
<path d="M163.947 212.964V233.471" stroke="#141414" stroke-miterlimit="10" stroke-linecap="round" stroke-linejoin="round"/>
<path d="M170.214 223.218H157.68" stroke="#141414" stroke-miterlimit="10" stroke-linecap="round" stroke-linejoin="round"/>
<path d="M142.487 212.394H129.383V234.041H142.487V212.394Z" stroke="#141414" stroke-width="2" stroke-miterlimit="10" stroke-linecap="round" stroke-linejoin="round"/>
<path d="M135.936 212.964V233.471" stroke="#141414" stroke-miterlimit="10" stroke-linecap="round" stroke-linejoin="round"/>
<path d="M142.202 223.218H129.668" stroke="#141414" stroke-miterlimit="10" stroke-linecap="round" stroke-linejoin="round"/>
<path d="M84.2907 258.672H76.869L68.2109 250.015H75.6318L84.2907 258.672Z" fill="#6E6E6E"/>
<path d="M107.173 258.672H99.7509L91.0928 250.015H98.5144L107.173 258.672Z" fill="#6E6E6E"/>
<path d="M45.3171 282.169H42.625V290.826H45.3171V282.169Z" fill="#B5B5B5" stroke="#141414" stroke-miterlimit="10" stroke-linecap="round" stroke-linejoin="round"/>
<path d="M48.3074 282.169H45.6152V290.826H48.3074V282.169Z" fill="#B5B5B5" stroke="#141414" stroke-miterlimit="10" stroke-linecap="round" stroke-linejoin="round"/>
<path d="M51.2966 282.169H48.6045V290.826H51.2966V282.169Z" fill="#B5B5B5" stroke="#141414" stroke-miterlimit="10" stroke-linecap="round" stroke-linejoin="round"/>
<path d="M54.2869 282.169H51.5947V290.826H54.2869V282.169Z" fill="#B5B5B5" stroke="#141414" stroke-miterlimit="10" stroke-linecap="round" stroke-linejoin="round"/>
<path d="M57.2761 282.169H54.584V290.826H57.2761V282.169Z" fill="#B5B5B5" stroke="#141414" stroke-miterlimit="10" stroke-linecap="round" stroke-linejoin="round"/>
<path d="M135.622 267.666H69.124V272.026H135.622V267.666Z" fill="white" stroke="#141414" stroke-miterlimit="10" stroke-linecap="round" stroke-linejoin="round"/>
<path d="M135.622 267.666H110.666V272.026H135.622V267.666Z" fill="#BABABA" stroke="#141414" stroke-miterlimit="10" stroke-linecap="round" stroke-linejoin="round"/>
<path d="M69.1238 267.666L45.2923 243.365L22.165 268.442H25.3972L45.3764 247.149L69.1238 272.026V267.666Z" fill="#BABABA" stroke="#141414" stroke-miterlimit="10" stroke-linecap="round" stroke-linejoin="round"/>
<path d="M188.623 317.795H160.138V320.507H188.623V317.795Z" fill="white" stroke="#141414" stroke-miterlimit="10" stroke-linecap="round" stroke-linejoin="round"/>
<path d="M209.698 208.834H111.122V211.565H209.698V208.834Z" fill="#BABABA" stroke="#141414" stroke-miterlimit="10" stroke-linecap="round" stroke-linejoin="round"/>
<path d="M100.266 297.816H96.9894C95.966 297.816 95.1367 296.987 95.1367 295.964V295.305C95.1367 294.282 95.966 293.453 96.9894 293.453H100.266C101.29 293.453 102.119 294.282 102.119 295.305V295.964C102.119 296.986 101.29 297.816 100.266 297.816Z" fill="#141414" stroke="#141414" stroke-miterlimit="10" stroke-linecap="round" stroke-linejoin="round"/>
<path d="M119.214 282.688H147.799L162.347 293.452L187.369 297.815V310.907H75.3501L66.9121 307.125V302.179L101.827 294.907L116.73 283.528C117.444 282.983 118.317 282.688 119.214 282.688Z" fill="#BBDEFB" stroke="#141414" stroke-miterlimit="10" stroke-linecap="round" stroke-linejoin="round"/>
<path d="M124.232 294.907H101.537L116.44 283.528C117.154 282.983 118.026 282.688 118.924 282.688H140.235L124.232 294.907Z" fill="white" stroke="#141414" stroke-miterlimit="10" stroke-linecap="round" stroke-linejoin="round"/>
<path d="M115.938 318.034C119.233 314.74 119.233 309.398 115.938 306.103C112.642 302.808 107.3 302.808 104.005 306.103C100.709 309.398 100.709 314.74 104.005 318.034C107.3 321.329 112.642 321.329 115.938 318.034Z" fill="white" stroke="#141414" stroke-miterlimit="10" stroke-linecap="round" stroke-linejoin="round"/>
<path d="M115.803 319.869C120.113 318.098 122.171 313.168 120.399 308.859C118.627 304.549 113.697 302.492 109.386 304.263C105.076 306.035 103.018 310.964 104.79 315.274C106.562 319.583 111.492 321.641 115.803 319.869Z" fill="#141414" stroke="#141414" stroke-miterlimit="10" stroke-linecap="round" stroke-linejoin="round"/>
<path d="M116.957 312.071C116.957 314.481 115.003 316.434 112.593 316.434C110.183 316.434 108.229 314.481 108.229 312.071C108.229 309.661 110.183 307.708 112.593 307.708C115.003 307.707 116.957 309.661 116.957 312.071Z" fill="white" stroke="#141414" stroke-miterlimit="10" stroke-linecap="round" stroke-linejoin="round"/>
<path d="M90.7719 303.634C90.3254 303.634 89.89 303.679 89.4624 303.746C89.0348 303.679 88.5993 303.634 88.1528 303.634C83.4925 303.634 79.7148 307.411 79.7148 312.071C79.7148 316.73 83.4925 320.508 88.1528 320.508C88.5993 320.508 89.034 320.463 89.4624 320.396C89.89 320.463 90.3254 320.508 90.7719 320.508C95.4322 320.508 99.2099 316.73 99.2099 312.071C99.2099 307.411 95.4322 303.634 90.7719 303.634Z" fill="#141414" stroke="#141414" stroke-miterlimit="10" stroke-linecap="round" stroke-linejoin="round"/>
<path d="M155.074 303.634C154.627 303.634 154.192 303.679 153.764 303.746C153.337 303.679 152.901 303.634 152.455 303.634C147.794 303.634 144.017 307.411 144.017 312.071C144.017 316.73 147.794 320.508 152.455 320.508C152.901 320.508 153.337 320.463 153.764 320.396C154.192 320.463 154.627 320.508 155.074 320.508C159.734 320.508 163.512 316.73 163.512 312.071C163.512 307.411 159.734 303.634 155.074 303.634Z" fill="#141414" stroke="#141414" stroke-miterlimit="10" stroke-linecap="round" stroke-linejoin="round"/>
<path d="M181.03 314.013C182.105 309.479 179.302 304.932 174.767 303.856C170.233 302.781 165.685 305.584 164.61 310.118C163.534 314.652 166.338 319.199 170.872 320.274C175.407 321.35 179.954 318.546 181.03 314.013Z" fill="white" stroke="#141414" stroke-miterlimit="10" stroke-linecap="round" stroke-linejoin="round"/>
<path d="M178.65 319.869C182.96 318.097 185.018 313.167 183.246 308.858C181.475 304.548 176.544 302.491 172.234 304.262C167.924 306.034 165.866 310.964 167.638 315.273C169.41 319.583 174.34 321.64 178.65 319.869Z" fill="#141414" stroke="#141414" stroke-miterlimit="10" stroke-linecap="round" stroke-linejoin="round"/>
<path d="M179.805 312.071C179.805 314.481 177.851 316.434 175.44 316.434C173.029 316.434 171.076 314.481 171.076 312.071C171.076 309.661 173.03 307.708 175.44 307.708C177.85 307.708 179.805 309.661 179.805 312.071Z" fill="white" stroke="#141414" stroke-miterlimit="10" stroke-linecap="round" stroke-linejoin="round"/>
<path d="M184.751 293.452L171.872 283.923C170.788 283.121 169.475 282.688 168.127 282.688H140.234L124.232 294.907L89.3164 302.179V307.125L97.7544 310.907H103.422C103.332 310.484 103.283 310.047 103.283 309.598V309.307C103.283 305.853 106.083 303.053 109.539 303.053H115.94C119.394 303.053 122.195 305.853 122.195 309.307V309.598C122.195 310.047 122.146 310.484 122.055 314.106H166.124C166.033 310.484 165.984 310.046 165.984 309.598V309.307C165.984 305.853 168.784 303.053 172.24 303.053H178.641C182.096 303.053 184.897 305.853 184.897 309.307V309.598C184.897 310.047 184.848 310.484 184.757 310.907H194.062V301.192C194.062 299.132 192.871 297.258 191.005 296.383L184.751 293.452Z" fill="#BBDEFB" stroke="#141414" stroke-miterlimit="10" stroke-linecap="round" stroke-linejoin="round"/>
<path d="M153.909 284.724H140.914L127.578 294.907H153.909V284.724Z" fill="white" stroke="#141414" stroke-miterlimit="10" stroke-linecap="round" stroke-linejoin="round"/>
<path d="M156.092 284.724H166.668C168.049 284.724 169.391 285.179 170.488 286.016L182.132 294.907H156.091V284.724H156.092Z" fill="white" stroke="#141414" stroke-miterlimit="10" stroke-linecap="round" stroke-linejoin="round"/>
<path d="M89.3172 302.179H66.9131V307.125H89.3172V302.179Z" fill="white" stroke="#141414" stroke-miterlimit="10" stroke-linecap="round" stroke-linejoin="round"/>
<path d="M195.807 307.998H188.533V312.07H195.807V307.998Z" fill="#141414" stroke="#141414" stroke-miterlimit="10" stroke-linecap="round" stroke-linejoin="round"/>
<path d="M97.1722 307.125H66.04V312.071H97.1722V307.125Z" fill="#141414" stroke="#141414" stroke-miterlimit="10" stroke-linecap="round" stroke-linejoin="round"/>
<path d="M133.435 297.816H130.158C129.135 297.816 128.306 296.987 128.306 295.964V295.305C128.306 294.282 129.135 293.453 130.158 293.453H133.435C134.459 293.453 135.288 294.282 135.288 295.305V295.964C135.288 296.986 134.459 297.816 133.435 297.816Z" fill="#141414" stroke="#141414" stroke-miterlimit="10" stroke-linecap="round" stroke-linejoin="round"/>
<path d="M88.1533 302.47H82.916V306.543H88.1533V302.47Z" fill="white" stroke="#141414" stroke-miterlimit="10" stroke-linecap="round" stroke-linejoin="round"/>
<path d="M73.0234 302.47H67.7861V306.543H73.0234V302.47Z" fill="white" stroke="#141414" stroke-miterlimit="10" stroke-linecap="round" stroke-linejoin="round"/>
<path d="M73.0234 303.925H82.6255" stroke="#141414" stroke-miterlimit="10" stroke-linecap="round" stroke-linejoin="round"/>
<path d="M73.0234 305.415H82.6255" stroke="#141414" stroke-miterlimit="10" stroke-linecap="round" stroke-linejoin="round"/>
<path d="M125.612 309.157H163.78" stroke="#141414" stroke-width="2" stroke-miterlimit="10" stroke-linecap="round" stroke-linejoin="round"/>
<path d="M154.783 283.67V311.882H124.931V308.529C124.931 306.537 124.349 304.589 123.258 302.923L122.341 301.524L127.521 296.89" stroke="#141414" stroke-miterlimit="10" stroke-linecap="round" stroke-linejoin="round"/>
<path d="M182.455 295.527V301.933H171.163C169.665 301.933 168.229 302.528 167.17 303.586L166.525 304.232C165.466 305.291 164.871 306.727 164.871 308.224V311.61H156.42" stroke="#141414" stroke-miterlimit="10" stroke-linecap="round" stroke-linejoin="round"/>
<path d="M153.859 297.977H150.314V300.002H153.859V297.977Z" fill="#141414" stroke="#141414" stroke-miterlimit="10" stroke-linecap="round" stroke-linejoin="round"/>
<path d="M181.37 297.977H177.826V300.002H181.37V297.977Z" fill="#141414" stroke="#141414" stroke-miterlimit="10" stroke-linecap="round" stroke-linejoin="round"/>
<path d="M300.677 320.352C300.677 320.352 293.9 313.576 295.797 308.426C297.695 303.276 302.845 310.865 302.845 310.865C302.845 310.865 303.388 298.939 307.183 298.939C310.978 298.939 310.165 308.968 310.165 308.968C310.165 308.968 312.334 306.257 314.773 307.884C317.213 309.51 315.045 317.913 315.045 317.913C315.045 317.913 316.671 310.595 320.195 310.595C323.719 310.595 320.467 320.082 320.467 320.082" fill="#BBDEFB"/>
<path d="M299.05 320.081C299.05 320.081 294.713 314.118 296.068 313.034C297.423 311.95 299.321 315.202 299.321 315.202C299.321 315.202 297.965 307.341 302.303 307.07C306.641 306.799 305.014 316.557 305.014 316.557C305.014 316.557 307.183 310.593 309.352 312.22C311.52 313.846 310.707 318.725 310.707 318.725C310.707 318.725 310.978 314.66 313.689 314.66C316.4 314.66 318.026 317.912 318.026 317.912C318.026 317.912 320.466 313.847 322.364 315.202C324.261 316.558 322.364 320.352 322.364 320.352" stroke="#141414" stroke-miterlimit="10" stroke-linecap="round" stroke-linejoin="round"/>
<path d="M214.791 320.352C214.791 320.352 209.989 315.551 211.334 311.902C212.679 308.253 216.328 313.63 216.328 313.63C216.328 313.63 216.712 305.18 219.401 305.18C222.09 305.18 221.514 312.285 221.514 312.285C221.514 312.285 223.051 310.365 224.779 311.518C226.508 312.67 224.971 318.623 224.971 318.623C224.971 318.623 226.123 313.438 228.621 313.438C231.118 313.438 228.812 320.159 228.812 320.159" fill="#BBDEFB"/>
<path d="M213.639 320.16C213.639 320.16 210.565 315.935 211.526 315.167C212.486 314.399 213.83 316.704 213.83 316.704C213.83 316.704 212.87 311.135 215.943 310.942C219.017 310.75 217.864 317.663 217.864 317.663C217.864 317.663 219.401 313.438 220.938 314.59C222.474 315.743 221.898 319.2 221.898 319.2C221.898 319.2 222.09 316.319 224.011 316.319C225.931 316.319 227.084 318.624 227.084 318.624C227.084 318.624 228.813 315.743 230.158 316.704C231.502 317.664 230.158 320.353 230.158 320.353" stroke="#141414" stroke-miterlimit="10" stroke-linecap="round" stroke-linejoin="round"/>
<path d="M7.43314 320.352C7.43314 320.352 2.40021 315.32 3.80955 311.496C5.2189 307.671 9.0437 313.307 9.0437 313.307C9.0437 313.307 9.44615 304.451 12.2648 304.451C15.0835 304.451 14.4791 311.898 14.4791 311.898C14.4791 311.898 16.0896 309.885 17.9014 311.092C19.7132 312.3 18.1027 318.54 18.1027 318.54C18.1027 318.54 19.3108 313.105 21.9275 313.105C24.5441 313.105 22.1287 320.15 22.1287 320.15" fill="#BBDEFB"/>
<path d="M6.2256 320.151C6.2256 320.151 3.00446 315.723 4.01136 314.918C5.01826 314.112 6.42682 316.528 6.42682 316.528C6.42682 316.528 5.41992 310.691 8.64105 310.49C11.8622 310.289 10.6541 317.535 10.6541 317.535C10.6541 317.535 12.2646 313.107 13.8752 314.314C15.4858 315.522 14.8821 319.145 14.8821 319.145C14.8821 319.145 15.0833 316.125 17.0963 316.125C19.1094 316.125 20.3175 318.541 20.3175 318.541C20.3175 318.541 22.1293 315.521 23.5386 316.528C24.948 317.535 23.5386 320.352 23.5386 320.352" stroke="#141414" stroke-miterlimit="10" stroke-linecap="round" stroke-linejoin="round"/>
<path d="M2.15527 320.507H325.212" stroke="#141414" stroke-miterlimit="10" stroke-linecap="round" stroke-linejoin="round"/>
</g>
<defs>
<clipPath id="clip0_2175_527">
<rect width="360" height="324" fill="white"/>
</clipPath>
<clipPath id="clip1_2175_527">
<rect width="31" height="42" fill="white" transform="translate(186 141)"/>
</clipPath>
</defs>
</svg>
