<svg width="40" height="40" viewBox="0 0 40 40" fill="none" xmlns="http://www.w3.org/2000/svg">
<rect x="0.5" y="0.5" width="39" height="39" rx="19.5" fill="#F3F9FE" stroke="#1976D2"/>
<path d="M23.8923 21.12C23.9456 21.12 23.9883 21.1413 24.0203 21.184C24.0629 21.216 24.0843 21.2587 24.0843 21.312V22.928C24.0843 22.9813 24.0629 23.0293 24.0203 23.072C23.9883 23.104 23.9456 23.12 23.8923 23.12H23.2043C23.1509 23.12 23.1243 23.1467 23.1243 23.2V25.808C23.1243 25.8613 23.1029 25.9093 23.0603 25.952C23.0283 25.984 22.9856 26 22.9323 26H21.0603C21.0069 26 20.9589 25.984 20.9163 25.952C20.8843 25.9093 20.8683 25.8613 20.8683 25.808V23.2C20.8683 23.1467 20.8416 23.12 20.7883 23.12H15.8763C15.8229 23.12 15.7749 23.104 15.7323 23.072C15.7003 23.0293 15.6842 22.9813 15.6842 22.928V21.648C15.6842 21.584 15.7003 21.504 15.7323 21.408L18.6123 14.944C18.6549 14.848 18.7296 14.8 18.8363 14.8H20.8363C20.9109 14.8 20.9589 14.8213 20.9803 14.864C21.0123 14.896 21.0123 14.9493 20.9803 15.024L18.3083 21.024C18.2976 21.0453 18.2976 21.0667 18.3083 21.088C18.3189 21.1093 18.3349 21.12 18.3563 21.12H20.7883C20.8416 21.12 20.8683 21.0933 20.8683 21.04V19.056C20.8683 19.0027 20.8843 18.96 20.9163 18.928C20.9589 18.8853 21.0069 18.864 21.0603 18.864H22.9323C22.9856 18.864 23.0283 18.8853 23.0603 18.928C23.1029 18.96 23.1243 19.0027 23.1243 19.056V21.04C23.1243 21.0933 23.1509 21.12 23.2043 21.12H23.8923Z" fill="#1976D2"/>
</svg>
