<svg width="40" height="40" viewBox="0 0 40 40" fill="none" xmlns="http://www.w3.org/2000/svg">
<rect x="0.5" y="0.5" width="39" height="39" rx="19.5" fill="#F3F9FE" stroke="#1976D2"/>
<path d="M19.7514 23.968C19.7301 23.9893 19.7248 24.0107 19.7354 24.032C19.7461 24.0533 19.7674 24.064 19.7994 24.064H24.1354C24.1888 24.064 24.2314 24.0853 24.2634 24.128C24.3061 24.16 24.3274 24.2027 24.3274 24.256V25.808C24.3274 25.8613 24.3061 25.9093 24.2634 25.952C24.2314 25.984 24.1888 26 24.1354 26H16.9354C16.8821 26 16.8341 25.984 16.7914 25.952C16.7594 25.9093 16.7434 25.8613 16.7434 25.808V24.336C16.7434 24.24 16.7754 24.16 16.8394 24.096C17.3621 23.584 17.8954 23.0293 18.4394 22.432C18.9834 21.824 19.3248 21.4453 19.4634 21.296C19.7621 20.944 20.0661 20.608 20.3754 20.288C21.3461 19.2107 21.8314 18.4107 21.8314 17.888C21.8314 17.5147 21.6981 17.2107 21.4314 16.976C21.1648 16.7307 20.8181 16.608 20.3914 16.608C19.9648 16.608 19.6181 16.7307 19.3514 16.976C19.0848 17.2107 18.9514 17.5253 18.9514 17.92V18.32C18.9514 18.3733 18.9301 18.4213 18.8874 18.464C18.8554 18.496 18.8128 18.512 18.7594 18.512H16.8714C16.8181 18.512 16.7701 18.496 16.7274 18.464C16.6954 18.4213 16.6794 18.3733 16.6794 18.32V17.568C16.7114 16.992 16.8928 16.4853 17.2234 16.048C17.5541 15.6 17.9914 15.2587 18.5354 15.024C19.0901 14.7893 19.7088 14.672 20.3914 14.672C21.1488 14.672 21.8048 14.816 22.3594 15.104C22.9248 15.3813 23.3568 15.76 23.6554 16.24C23.9648 16.72 24.1194 17.2533 24.1194 17.84C24.1194 18.288 24.0074 18.7467 23.7834 19.216C23.5594 19.6853 23.2234 20.192 22.7754 20.736C22.4448 21.152 22.0874 21.5627 21.7034 21.968C21.3194 22.3733 20.7488 22.96 19.9914 23.728L19.7514 23.968Z" fill="#1976D2"/>
</svg>
