<svg width="40" height="40" viewBox="0 0 40 40" fill="none" xmlns="http://www.w3.org/2000/svg">
<rect x="0.5" y="0.5" width="39" height="39" rx="19.5" fill="#F3F9FE" stroke="#1976D2"/>
<path d="M19.5719 14.848C19.6252 14.816 19.7052 14.8 19.8119 14.8H21.7479C21.8012 14.8 21.8439 14.8213 21.8759 14.864C21.9185 14.896 21.9399 14.9387 21.9399 14.992V25.808C21.9399 25.8613 21.9185 25.9093 21.8759 25.952C21.8439 25.984 21.8012 26 21.7479 26H19.8759C19.8225 26 19.7745 25.984 19.7319 25.952C19.6999 25.9093 19.6839 25.8613 19.6839 25.808V17.04C19.6839 17.0187 19.6732 16.9973 19.6519 16.976C19.6305 16.9547 19.6092 16.9493 19.5879 16.96L18.0039 17.392L17.9399 17.408C17.8439 17.408 17.7959 17.3493 17.7959 17.232L17.7479 15.856C17.7479 15.7493 17.7959 15.6747 17.8919 15.632L19.5719 14.848Z" fill="#1976D2"/>
</svg>
