<svg width="40" height="40" viewBox="0 0 40 40" fill="none" xmlns="http://www.w3.org/2000/svg">
<rect x="0.5" y="0.5" width="39" height="39" rx="19.5" fill="#F3F9FE" stroke="#1976D2"/>
<path d="M23.8117 20.656C24.025 21.1467 24.1317 21.712 24.1317 22.352C24.1317 22.928 24.0357 23.4613 23.8437 23.952C23.5877 24.6347 23.1557 25.168 22.5477 25.552C21.9504 25.936 21.241 26.128 20.4197 26.128C19.609 26.128 18.8944 25.9253 18.2757 25.52C17.6677 25.1147 17.2304 24.5653 16.9637 23.872C16.8144 23.456 16.729 23.008 16.7077 22.528C16.7077 22.4 16.7717 22.336 16.8997 22.336H18.7877C18.9157 22.336 18.9797 22.4 18.9797 22.528C19.0224 22.88 19.081 23.1413 19.1557 23.312C19.2517 23.5893 19.4064 23.808 19.6197 23.968C19.8437 24.1173 20.105 24.192 20.4037 24.192C21.001 24.192 21.4117 23.9307 21.6357 23.408C21.785 23.088 21.8597 22.7147 21.8597 22.288C21.8597 21.7867 21.7797 21.376 21.6197 21.056C21.3744 20.5547 20.9637 20.304 20.3877 20.304C20.2704 20.304 20.1477 20.3413 20.0197 20.416C19.8917 20.48 19.737 20.576 19.5557 20.704C19.513 20.736 19.4704 20.752 19.4277 20.752C19.3637 20.752 19.3157 20.72 19.2837 20.656L18.3397 19.328C18.3184 19.296 18.3077 19.2587 18.3077 19.216C18.3077 19.152 18.329 19.0987 18.3717 19.056L20.9157 16.832C20.937 16.8107 20.9424 16.7893 20.9317 16.768C20.9317 16.7467 20.9157 16.736 20.8837 16.736H17.1237C17.0704 16.736 17.0224 16.72 16.9797 16.688C16.9477 16.6453 16.9317 16.5973 16.9317 16.544V14.992C16.9317 14.9387 16.9477 14.896 16.9797 14.864C17.0224 14.8213 17.0704 14.8 17.1237 14.8H23.7957C23.849 14.8 23.8917 14.8213 23.9237 14.864C23.9664 14.896 23.9877 14.9387 23.9877 14.992V16.752C23.9877 16.8373 23.9504 16.9173 23.8757 16.992L21.7797 18.912C21.7584 18.9333 21.7477 18.9547 21.7477 18.976C21.7584 18.9973 21.785 19.008 21.8277 19.008C22.7557 19.1893 23.417 19.7387 23.8117 20.656Z" fill="#1976D2"/>
</svg>
