<svg width="40" height="40" viewBox="0 0 40 40" fill="none" xmlns="http://www.w3.org/2000/svg">
<rect x="0.5" y="0.5" width="39" height="39" rx="19.5" fill="#F3F9FE" stroke="#1976D2"/>
<path d="M24.0435 20.896C24.2035 21.4187 24.2835 21.9253 24.2835 22.416C24.2835 22.96 24.1982 23.4507 24.0275 23.888C23.7822 24.5707 23.3502 25.1147 22.7315 25.52C22.1128 25.9147 21.3875 26.112 20.5555 26.112C19.7448 26.112 19.0302 25.92 18.4115 25.536C17.8035 25.1413 17.3715 24.608 17.1155 23.936C17.0088 23.6587 16.9288 23.3653 16.8755 23.056V23.024C16.8755 22.9067 16.9395 22.848 17.0675 22.848H19.0035C19.1102 22.848 19.1795 22.9067 19.2115 23.024C19.2222 23.088 19.2382 23.1413 19.2595 23.184C19.2808 23.2267 19.2968 23.264 19.3075 23.296C19.4142 23.5733 19.5742 23.7867 19.7875 23.936C20.0008 24.0853 20.2515 24.16 20.5395 24.16C20.8382 24.16 21.0995 24.08 21.3235 23.92C21.5475 23.76 21.7128 23.536 21.8195 23.248C21.9262 23.0347 21.9795 22.7573 21.9795 22.416C21.9795 22.1067 21.9315 21.8293 21.8355 21.584C21.7608 21.3067 21.6115 21.0933 21.3875 20.944C21.1635 20.7947 20.9022 20.72 20.6035 20.72C20.3048 20.72 20.0275 20.7893 19.7715 20.928C19.5155 21.0667 19.3448 21.248 19.2595 21.472C19.2275 21.5787 19.1582 21.632 19.0515 21.632H17.0835C17.0302 21.632 16.9822 21.616 16.9395 21.584C16.9075 21.5413 16.8915 21.4933 16.8915 21.44V14.992C16.8915 14.9387 16.9075 14.896 16.9395 14.864C16.9822 14.8213 17.0302 14.8 17.0835 14.8H23.6915C23.7448 14.8 23.7875 14.8213 23.8195 14.864C23.8622 14.896 23.8835 14.9387 23.8835 14.992V16.544C23.8835 16.5973 23.8622 16.6453 23.8195 16.688C23.7875 16.72 23.7448 16.736 23.6915 16.736H19.2275C19.1742 16.736 19.1475 16.7627 19.1475 16.816L19.1315 19.184C19.1315 19.2587 19.1635 19.2747 19.2275 19.232C19.7075 18.9227 20.2622 18.768 20.8915 18.768C21.6382 18.768 22.2888 18.96 22.8435 19.344C23.4088 19.7173 23.8088 20.2347 24.0435 20.896Z" fill="#1976D2"/>
</svg>
