<svg width="50" height="50" viewBox="0 0 50 50" fill="none" xmlns="http://www.w3.org/2000/svg">
<path d="M32.7763 1.60508C33.3393 1.60508 33.8787 1.83114 34.2735 2.23254L41.8214 9.9069C42.2077 10.2997 42.4242 10.8285 42.4242 11.3794V45.296C42.4242 47.0081 41.0363 48.396 39.3242 48.396H16H10.6772C8.96508 48.396 7.57716 47.0081 7.57716 45.296V4.70508C7.57716 2.99299 8.96508 1.60508 10.6772 1.60508H32.7763ZM32.7242 3.04144C32.7242 2.98621 32.6794 2.94144 32.6242 2.94144H10.7948C9.74547 2.94144 8.89481 3.7921 8.89481 4.84144V45.1596C8.89481 46.209 9.74547 47.0596 10.7948 47.0596L39.2066 47.0596C40.2559 47.0596 41.1066 46.209 41.1066 45.1596V11.5642C41.1066 11.5089 41.0618 11.4642 41.0066 11.4642H35.8242C34.1121 11.4642 32.7242 10.0763 32.7242 8.36417V3.04144ZM34.2132 4.0634C34.1504 3.99959 34.0419 4.04402 34.0419 4.13352V8.2278C34.0419 9.27715 34.8925 10.1278 35.9419 10.1278H39.9381C40.0268 10.1278 40.0716 10.0209 40.0094 9.95769L34.2132 4.0634Z" fill="#333333" stroke="#333333" stroke-width="0.2"/>
<path d="M16.1484 28.7701H16.0484V28.8701V28.9944V30.0054V30.1054H16.1484H33.8507H33.9507V30.0054V28.8701V28.7701H33.8507H16.1484Z" fill="#333333" stroke="#333333" stroke-width="0.2"/>
<path d="M16.1484 33.2076H16.0484V33.3076V33.4319V34.4429V34.5429H16.1484H33.8507H33.9507V34.4429V33.3076V33.2076H33.8507H16.1484Z" fill="#333333" stroke="#333333" stroke-width="0.2"/>
<path d="M21.6328 18.2691H21.5328V18.3691V18.4923V21.9169V22.0169H21.6328H28.3682H28.4682V21.9169V18.3691V18.2691H28.3682H27.2527H27.1527V18.3691V20.6817H22.8483V18.3691V18.2691H22.7483H21.6328Z" fill="#333333" stroke="#333333" stroke-width="0.2"/>
<path d="M24.9976 14.6695C23.8625 14.6695 22.9352 15.6149 22.9352 16.7648C22.9352 17.9148 23.8627 18.8601 24.9976 18.8601C26.1325 18.8601 27.0611 17.9149 27.0611 16.7648C27.0611 15.6148 26.1326 14.6695 24.9976 14.6695ZM24.9976 16.0037C25.4165 16.0037 25.7446 16.3348 25.7446 16.7648C25.7446 17.1948 25.4166 17.526 24.9976 17.526C24.5786 17.526 24.2506 17.1948 24.2506 16.7648C24.2506 16.3348 24.5787 16.0037 24.9976 16.0037Z" fill="#333333" stroke="#333333" stroke-width="0.2"/>
<path d="M24.9999 11.0182C21.0252 11.0182 17.7945 14.3054 17.7945 18.3425C17.7945 22.3797 21.0252 25.6668 24.9999 25.6669C28.9746 25.6669 32.2063 22.3797 32.2063 18.3425C32.2063 14.3054 28.9746 11.0182 24.9999 11.0182ZM24.9999 12.3523C28.2578 12.3523 30.8898 15.0259 30.8898 18.3425C30.8898 21.6591 28.2578 24.3327 24.9999 24.3327C21.742 24.3327 19.1111 21.6591 19.1111 18.3425C19.1111 15.0259 21.742 12.3523 24.9999 12.3523Z" fill="#333333" stroke="#333333" stroke-width="0.2"/>
<path d="M16.1484 37.6461H16.0484V37.7461V37.8704V38.8813V38.9813H16.1484H33.8507H33.9507V38.8813V37.7461V37.6461H33.8507H16.1484Z" fill="#333333" stroke="#333333" stroke-width="0.2"/>
<path d="M24.9996 11.1412C21.0907 11.1412 17.9156 14.372 17.9156 18.3422C17.9156 22.3123 21.0907 25.5431 24.9996 25.5431C28.9083 25.5431 32.0836 22.3123 32.0836 18.3422C32.0836 14.372 28.9083 11.1412 24.9996 11.1412ZM24.9996 12.2289C28.3229 12.2289 31.0106 14.959 31.0106 18.3422C31.0106 21.7253 28.3229 24.4555 24.9996 24.4555C21.6761 24.4555 18.9887 21.7253 18.9887 18.3422C18.9887 14.959 21.6761 12.2289 24.9996 12.2289Z" stroke="#333333" stroke-width="0.2"/>
</svg>
