<svg width="20" height="20" viewBox="0 0 20 20" fill="none" xmlns="http://www.w3.org/2000/svg">
<path d="M9.99996 1.70001C5.41663 1.70001 1.66663 5.44168 1.66663 10.05C1.66663 14.2167 4.71663 17.675 8.69996 18.3V12.4667H6.58329V10.05H8.69996V8.20835C8.69996 6.11668 9.94163 4.96668 11.85 4.96668C12.7583 4.96668 13.7083 5.12501 13.7083 5.12501V7.18335H12.6583C11.625 7.18335 11.3 7.82501 11.3 8.48335V10.05H13.6166L13.2416 12.4667H11.3V18.3C13.2637 17.9899 15.0518 16.9879 16.3416 15.4751C17.6313 13.9622 18.3378 12.038 18.3333 10.05C18.3333 5.44168 14.5833 1.70001 9.99996 1.70001Z" fill="white"/>
</svg>
