<svg width="32" height="32" viewBox="0 0 32 32" fill="none" xmlns="http://www.w3.org/2000/svg">
<rect width="32" height="32" fill="#141414"/>
<path d="M21.23 13C20.845 13.175 20.43 13.29 20 13.345C20.44 13.08 20.78 12.66 20.94 12.155C20.525 12.405 20.065 12.58 19.58 12.68C19.185 12.25 18.63 12 18 12C16.825 12 15.865 12.96 15.865 14.145C15.865 14.315 15.885 14.48 15.92 14.635C14.14 14.545 12.555 13.69 11.5 12.395C11.315 12.71 11.21 13.08 11.21 13.47C11.21 14.215 11.585 14.875 12.165 15.25C11.81 15.25 11.48 15.15 11.19 15V15.015C11.19 16.055 11.93 16.925 12.91 17.12C12.5954 17.2061 12.2651 17.2181 11.945 17.155C12.0808 17.5812 12.3468 17.9542 12.7055 18.2215C13.0643 18.4887 13.4977 18.6368 13.945 18.645C13.1868 19.2452 12.247 19.5697 11.28 19.565C11.11 19.565 10.94 19.555 10.77 19.535C11.72 20.145 12.85 20.5 14.06 20.5C18 20.5 20.165 17.23 20.165 14.395C20.165 14.3 20.165 14.21 20.16 14.115C20.58 13.815 20.94 13.435 21.23 13Z" fill="white"/>
</svg>
