<svg width="32" height="32" viewBox="0 0 32 32" fill="none" xmlns="http://www.w3.org/2000/svg">
<rect width="32" height="32" fill="#141414"/>
<path d="M19.5 11.5C19.7652 11.5 20.0196 11.6054 20.2071 11.7929C20.3946 11.9804 20.5 12.2348 20.5 12.5V19.5C20.5 19.7652 20.3946 20.0196 20.2071 20.2071C20.0196 20.3946 19.7652 20.5 19.5 20.5H12.5C12.2348 20.5 11.9804 20.3946 11.7929 20.2071C11.6054 20.0196 11.5 19.7652 11.5 19.5V12.5C11.5 12.2348 11.6054 11.9804 11.7929 11.7929C11.9804 11.6054 12.2348 11.5 12.5 11.5H19.5ZM19.25 19.25V16.6C19.25 16.1677 19.0783 15.7531 18.7726 15.4474C18.4669 15.1417 18.0523 14.97 17.62 14.97C17.195 14.97 16.7 15.23 16.46 15.62V15.065H15.065V19.25H16.46V16.785C16.46 16.4 16.77 16.085 17.155 16.085C17.3407 16.085 17.5187 16.1587 17.65 16.29C17.7813 16.4213 17.855 16.5993 17.855 16.785V19.25H19.25ZM13.44 14.28C13.6628 14.28 13.8764 14.1915 14.034 14.034C14.1915 13.8764 14.28 13.6628 14.28 13.44C14.28 12.975 13.905 12.595 13.44 12.595C13.2159 12.595 13.001 12.684 12.8425 12.8425C12.684 13.001 12.595 13.2159 12.595 13.44C12.595 13.905 12.975 14.28 13.44 14.28ZM14.135 19.25V15.065H12.75V19.25H14.135Z" fill="white"/>
</svg>
