<svg width="32" height="32" viewBox="0 0 32 32" fill="none" xmlns="http://www.w3.org/2000/svg">
<rect width="32" height="32" fill="#141414"/>
<path d="M16.02 11C13.29 11 11.065 13.225 11.065 15.955C11.065 16.83 11.295 17.68 11.725 18.43L11.025 21L13.65 20.31C14.375 20.705 15.19 20.915 16.02 20.915C18.75 20.915 20.975 18.69 20.975 15.96C20.975 14.635 20.46 13.39 19.525 12.455C19.0666 11.992 18.5206 11.6249 17.9188 11.3751C17.3171 11.1252 16.6716 10.9978 16.02 11ZM16.025 11.835C17.125 11.835 18.155 12.265 18.935 13.045C19.3178 13.4277 19.6213 13.8822 19.8281 14.3824C20.0349 14.8826 20.1409 15.4188 20.14 15.96C20.14 18.23 18.29 20.075 16.02 20.075C15.28 20.075 14.555 19.88 13.925 19.5L13.775 19.415L12.215 19.825L12.63 18.305L12.53 18.145C12.117 17.4894 11.8985 16.7299 11.9 15.955C11.905 13.685 13.75 11.835 16.025 11.835ZM14.265 13.665C14.185 13.665 14.05 13.695 13.935 13.82C13.825 13.945 13.5 14.25 13.5 14.855C13.5 15.465 13.945 16.05 14 16.135C14.07 16.22 14.88 17.47 16.125 18C16.42 18.135 16.65 18.21 16.83 18.265C17.125 18.36 17.395 18.345 17.61 18.315C17.85 18.28 18.34 18.015 18.445 17.725C18.55 17.435 18.55 17.19 18.52 17.135C18.485 17.085 18.405 17.055 18.28 17C18.155 16.93 17.545 16.63 17.435 16.59C17.32 16.55 17.25 16.53 17.155 16.65C17.075 16.775 16.835 17.055 16.765 17.135C16.69 17.22 16.62 17.23 16.5 17.17C16.37 17.105 15.97 16.975 15.5 16.555C15.13 16.225 14.885 15.82 14.81 15.695C14.75 15.575 14.805 15.5 14.865 15.445C14.92 15.39 15 15.3 15.05 15.225C15.115 15.155 15.135 15.1 15.175 15.02C15.215 14.935 15.195 14.865 15.165 14.805C15.135 14.75 14.885 14.13 14.78 13.885C14.68 13.645 14.58 13.675 14.5 13.67C14.43 13.67 14.35 13.665 14.265 13.665Z" fill="white"/>
</svg>
