<svg width="32" height="32" viewBox="0 0 32 32" fill="none" xmlns="http://www.w3.org/2000/svg">
<rect width="32" height="32" fill="#141414"/>
<path d="M16 11.02C13.25 11.02 11 13.265 11 16.03C11 18.53 12.83 20.605 15.22 20.98V17.48H13.95V16.03H15.22V14.925C15.22 13.67 15.965 12.98 17.11 12.98C17.655 12.98 18.225 13.075 18.225 13.075V14.31H17.595C16.975 14.31 16.78 14.695 16.78 15.09V16.03H18.17L17.945 17.48H16.78V20.98C17.9582 20.7939 19.0311 20.1928 19.805 19.285C20.5788 18.3773 21.0027 17.2228 21 16.03C21 13.265 18.75 11.02 16 11.02Z" fill="white"/>
</svg>
