<svg width="32" height="32" viewBox="0 0 32 32" fill="none" xmlns="http://www.w3.org/2000/svg">
<rect width="32" height="32" fill="#141414"/>
<path d="M15 17.5L17.595 16L15 14.5V17.5ZM20.78 13.585C20.845 13.82 20.89 14.135 20.92 14.535C20.955 14.935 20.97 15.28 20.97 15.58L21 16C21 17.095 20.92 17.9 20.78 18.415C20.655 18.865 20.365 19.155 19.915 19.28C19.68 19.345 19.25 19.39 18.59 19.42C17.94 19.455 17.345 19.47 16.795 19.47L16 19.5C13.905 19.5 12.6 19.42 12.085 19.28C11.635 19.155 11.345 18.865 11.22 18.415C11.155 18.18 11.11 17.865 11.08 17.465C11.045 17.065 11.03 16.72 11.03 16.42L11 16C11 14.905 11.08 14.1 11.22 13.585C11.345 13.135 11.635 12.845 12.085 12.72C12.32 12.655 12.75 12.61 13.41 12.58C14.06 12.545 14.655 12.53 15.205 12.53L16 12.5C18.095 12.5 19.4 12.58 19.915 12.72C20.365 12.845 20.655 13.135 20.78 13.585Z" fill="white"/>
</svg>
