<svg width="50" height="50" viewBox="0 0 50 50" fill="none" xmlns="http://www.w3.org/2000/svg">
<path d="M19.3238 38.3129L19.3677 38.1813H19.2289H7.81262C6.80348 38.18 5.83602 37.7786 5.12244 37.0651C4.40887 36.3515 4.00746 35.384 4.00625 34.3749L4.00625 7.81256C4.00748 6.80344 4.40889 5.836 5.12244 5.12244C5.83602 4.40887 6.80348 4.00746 7.81262 4.00625L42.1874 4.00625C43.1966 4.00748 44.164 4.40889 44.8776 5.12244C45.5911 5.83602 45.9925 6.80348 45.9938 7.81262V34.3749C45.9925 35.384 45.5911 36.3515 44.8776 37.0651C44.164 37.7786 43.1965 38.18 42.1874 38.1813H30.7711H30.6324L30.6762 38.3129L31.7176 41.4379L31.7404 41.5062H31.8125H32.8125C33.4076 41.5062 33.9783 41.7426 34.3991 42.1634C34.8199 42.5842 35.0562 43.1549 35.0562 43.75C35.0562 44.3451 34.8199 44.9158 34.3991 45.3366C33.9783 45.7574 33.4076 45.9938 32.8125 45.9938H17.1875C16.5924 45.9938 16.0217 45.7574 15.6009 45.3366C15.1801 44.9158 14.9438 44.3451 14.9438 43.75C14.9438 43.1549 15.1801 42.5842 15.6009 42.1634C16.0217 41.7426 16.5924 41.5062 17.1875 41.5062H18.1867H18.2588L18.2816 41.4379L19.3238 38.3129ZM25.7812 19.4312H25.6812V19.5312V32.0312V32.1313H25.7812H44.5312H44.6312V32.0312V19.5312V19.4312H44.5312H25.7812ZM44.5312 18.0688H44.6312V17.9688V7.8125C44.6312 7.16438 44.3738 6.5428 43.9155 6.08451C43.4572 5.62622 42.8356 5.36875 42.1875 5.36875H25.7812H25.6812V5.46875V17.9688V18.0688H25.7812H44.5312ZM24.3188 5.46875V5.36875H24.2188H7.8125C7.16438 5.36875 6.5428 5.62622 6.08451 6.08451C5.62622 6.5428 5.36875 7.16438 5.36875 7.8125V32.0312V32.1313H5.46875H24.2188H24.3188V32.0312V5.46875ZM30.1656 41.5062H30.3044L30.2605 41.3746L29.2191 38.2496L29.1963 38.1813H29.1242H20.8758H20.8037L20.7809 38.2496L19.7387 41.3746L19.6948 41.5062H19.8336H30.1656ZM5.46875 33.4937H5.36875V33.5938V34.375C5.36875 35.0231 5.62622 35.6447 6.08451 36.103C6.5428 36.5613 7.16438 36.8187 7.8125 36.8187H42.1875C42.8356 36.8187 43.4572 36.5613 43.9155 36.103C44.3738 35.6447 44.6312 35.0231 44.6312 34.375V33.5938V33.4937H44.5312H5.46875ZM33.4356 44.3731C33.6009 44.2079 33.6938 43.9837 33.6938 43.75C33.6938 43.5163 33.6009 43.2921 33.4356 43.1269C33.2704 42.9616 33.0462 42.8688 32.8125 42.8688H17.1875C16.9538 42.8688 16.7296 42.9616 16.5644 43.1269C16.3991 43.2921 16.3062 43.5163 16.3062 43.75C16.3062 43.9837 16.3991 44.2079 16.5644 44.3731C16.7296 44.5384 16.9538 44.6312 17.1875 44.6312H32.8125C33.0462 44.6312 33.2704 44.5384 33.4356 44.3731Z" fill="#333333" stroke="white" stroke-width="0.2"/>
<path d="M37.2685 11.5336L37.1804 11.6195L37.2824 11.6882C37.7994 12.0363 38.223 12.5062 38.5159 13.0563C38.8089 13.6065 38.9622 14.2202 38.9625 14.8435C38.9625 14.8435 38.9625 14.8435 38.9625 14.8435V15.6247C38.9625 15.8054 38.8907 15.9787 38.763 16.1065C38.6352 16.2342 38.4619 16.306 38.2812 16.306H32.0312C31.8506 16.306 31.6773 16.2342 31.5495 16.1065C31.4218 15.9787 31.35 15.8054 31.35 15.6247L31.35 14.8435C31.35 14.8435 31.35 14.8435 31.35 14.8435C31.3503 14.2202 31.5036 13.6065 31.7966 13.0563C32.0895 12.5062 32.5131 12.0363 33.0301 11.6882L33.1321 11.6195L33.044 11.5336C32.6135 11.1136 32.3179 10.5748 32.195 9.98599C32.0722 9.39717 32.1276 8.7851 32.3544 8.22796C32.5811 7.67083 32.9687 7.19394 33.4678 6.85821C33.9669 6.52248 34.5548 6.34316 35.1562 6.34316C35.7577 6.34316 36.3456 6.52248 36.8447 6.85821C37.3438 7.19394 37.7314 7.67083 37.9581 8.22796C38.1849 8.7851 38.2403 9.39717 38.1175 9.98599C37.9946 10.5748 37.699 11.1136 37.2685 11.5336ZM37.5 14.9435H37.6V14.8435C37.6 14.1954 37.3425 13.5738 36.8842 13.1155C36.4259 12.6572 35.8044 12.3997 35.1562 12.3997C34.5081 12.3997 33.8866 12.6572 33.4283 13.1155C32.97 13.5738 32.7125 14.1954 32.7125 14.8435V14.9435H32.8125H37.5ZM33.7739 8.4511C33.5913 8.7245 33.4938 9.04593 33.4938 9.37474C33.4938 9.81566 33.6689 10.2385 33.9807 10.5503C34.2925 10.8621 34.7153 11.0372 35.1562 11.0372C35.4851 11.0372 35.8065 10.9397 36.0799 10.7571C36.3533 10.5744 36.5664 10.3147 36.6922 10.011C36.818 9.70717 36.851 9.3729 36.7868 9.0504C36.7227 8.72791 36.5643 8.43168 36.3318 8.19917C36.0993 7.96667 35.8031 7.80833 35.4806 7.74418C35.1581 7.68004 34.8238 7.71296 34.52 7.83879C34.2163 7.96462 33.9566 8.17771 33.7739 8.4511Z" fill="#333333" stroke="white" stroke-width="0.2"/>
<path d="M37.2685 25.5961L37.1804 25.682L37.2824 25.7507C37.7994 26.0988 38.223 26.5687 38.5159 27.1188C38.8089 27.669 38.9622 28.2827 38.9625 28.906C38.9625 28.906 38.9625 28.906 38.9625 28.906V29.6872C38.9625 29.8679 38.8907 30.0412 38.763 30.169C38.6352 30.2967 38.4619 30.3685 38.2812 30.3685H32.0312C31.8506 30.3685 31.6773 30.2967 31.5495 30.169C31.4218 30.0412 31.35 29.8679 31.35 29.6872L31.35 28.906C31.35 28.906 31.35 28.906 31.35 28.906C31.3503 28.2827 31.5036 27.669 31.7966 27.1188C32.0895 26.5687 32.5131 26.0988 33.0301 25.7507L33.1321 25.682L33.044 25.5961C32.6135 25.1761 32.3179 24.6373 32.195 24.0485C32.0722 23.4597 32.1276 22.8476 32.3544 22.2905C32.5811 21.7333 32.9687 21.2564 33.4678 20.9207C33.9669 20.585 34.5548 20.4057 35.1562 20.4057C35.7577 20.4057 36.3456 20.585 36.8447 20.9207C37.3438 21.2564 37.7314 21.7333 37.9581 22.2905C38.1849 22.8476 38.2403 23.4597 38.1175 24.0485C37.9946 24.6373 37.699 25.1761 37.2685 25.5961ZM32.7125 28.906V29.006H32.8125H37.5H37.6V28.906C37.6 28.2579 37.3425 27.6363 36.8842 27.178C36.4259 26.7197 35.8044 26.4622 35.1562 26.4622C34.5081 26.4622 33.8866 26.7197 33.4283 27.178C32.97 27.6363 32.7125 28.2579 32.7125 28.906ZM33.7739 22.5136C33.5913 22.787 33.4938 23.1084 33.4938 23.4372C33.4938 23.8782 33.6689 24.301 33.9807 24.6128C34.2925 24.9246 34.7153 25.0997 35.1562 25.0997C35.4851 25.0997 35.8065 25.0022 36.0799 24.8196C36.3533 24.6369 36.5664 24.3772 36.6922 24.0735C36.818 23.7697 36.851 23.4354 36.7868 23.1129C36.7227 22.7904 36.5643 22.4942 36.3318 22.2617C36.0993 22.0292 35.8031 21.8708 35.4806 21.8067C35.1581 21.7425 34.8238 21.7755 34.52 21.9013C34.2163 22.0271 33.9566 22.2402 33.7739 22.5136Z" fill="#333333" stroke="white" stroke-width="0.2"/>
<path d="M18.4938 18.418L18.3735 18.5143L18.5104 18.585C19.2578 18.9707 19.8847 19.5545 20.3227 20.2726C20.7607 20.9906 20.9928 21.8153 20.9937 22.6564V26.5625C20.9937 26.7432 20.922 26.9165 20.7942 27.0442C20.6665 27.172 20.4932 27.2437 20.3125 27.2437H10.9375C10.7568 27.2437 10.5835 27.172 10.4558 27.0442C10.328 26.9165 10.2563 26.7432 10.2563 26.5625V22.6563C10.2575 21.8149 10.4901 20.9901 10.9286 20.2721C11.3671 19.554 11.9947 18.9703 12.7427 18.585L12.8797 18.5144L12.7594 18.418C12.0174 17.824 11.4783 17.0142 11.2165 16.1005C10.9547 15.1868 10.9832 14.2144 11.298 13.3176C11.6127 12.4208 12.1983 11.6439 12.9737 11.0942C13.7491 10.5446 14.6761 10.2494 15.6266 10.2494C16.577 10.2494 17.504 10.5446 18.2794 11.0942C19.0548 11.6439 19.6404 12.4208 19.9552 13.3176C20.2699 14.2144 20.2984 15.1868 20.0366 16.1005C19.7748 17.0142 19.2357 17.824 18.4938 18.418ZM19.5312 25.8812H19.6313V25.7812V22.6562C19.6313 21.8009 19.2915 20.9806 18.6867 20.3758C18.0819 19.771 17.2616 19.4312 16.4062 19.4312H14.8438C13.9884 19.4312 13.1681 19.771 12.5633 20.3758C11.9585 20.9806 11.6187 21.8009 11.6187 22.6562V25.7812V25.8812H11.7188H19.5312ZM17.4167 12.1623C16.8864 11.8079 16.2628 11.6187 15.625 11.6187C14.7697 11.6187 13.9494 11.9585 13.3446 12.5633C12.7398 13.1681 12.4 13.9884 12.4 14.8437C12.4 15.4816 12.5891 16.1051 12.9435 16.6355C13.2979 17.1658 13.8016 17.5792 14.3908 17.8233C14.9801 18.0674 15.6286 18.1312 16.2542 18.0068C16.8798 17.8823 17.4544 17.5752 17.9054 17.1242C18.3564 16.6731 18.6636 16.0985 18.788 15.4729C18.9125 14.8473 18.8486 14.1989 18.6045 13.6096C18.3604 13.0203 17.9471 12.5166 17.4167 12.1623Z" fill="#333333" stroke="white" stroke-width="0.2"/>
</svg>
