<svg width="20" height="20" viewBox="0 0 20 20" fill="none" xmlns="http://www.w3.org/2000/svg">
<path d="M10.0334 1.66668C5.48337 1.66668 1.77504 5.37501 1.77504 9.92501C1.77504 11.3833 2.15837 12.8 2.87504 14.05L1.70837 18.3333L6.08337 17.1833C7.29171 17.8417 8.65004 18.1917 10.0334 18.1917C14.5834 18.1917 18.2917 14.4833 18.2917 9.93334C18.2917 7.72501 17.4334 5.65001 15.875 4.09168C15.111 3.31995 14.201 2.70807 13.1981 2.29172C12.1951 1.87537 11.1193 1.66289 10.0334 1.66668ZM10.0417 3.05834C11.875 3.05834 13.5917 3.77501 14.8917 5.07501C15.5297 5.7128 16.0355 6.47027 16.3802 7.30398C16.7248 8.13768 16.9015 9.03122 16.9 9.93334C16.9 13.7167 13.8167 16.7917 10.0334 16.7917C8.80004 16.7917 7.59171 16.4667 6.54171 15.8333L6.29171 15.6917L3.69171 16.375L4.38337 13.8417L4.21671 13.575C3.52832 12.4822 3.16422 11.2165 3.16671 9.92501C3.17504 6.14167 6.25004 3.05834 10.0417 3.05834ZM7.10837 6.10834C6.97504 6.10834 6.75004 6.15834 6.55837 6.36668C6.37504 6.57501 5.83337 7.08334 5.83337 8.09168C5.83337 9.10834 6.57504 10.0833 6.66671 10.225C6.78337 10.3667 8.13337 12.45 10.2084 13.3333C10.7 13.5583 11.0834 13.6833 11.3834 13.775C11.875 13.9333 12.325 13.9083 12.6834 13.8583C13.0834 13.8 13.9 13.3583 14.075 12.875C14.25 12.3917 14.25 11.9833 14.2 11.8917C14.1417 11.8083 14.0084 11.7583 13.8 11.6667C13.5917 11.55 12.575 11.05 12.3917 10.9833C12.2 10.9167 12.0834 10.8833 11.925 11.0833C11.7917 11.2917 11.3917 11.7583 11.275 11.8917C11.15 12.0333 11.0334 12.05 10.8334 11.95C10.6167 11.8417 9.95004 11.625 9.16671 10.925C8.55004 10.375 8.14171 9.70001 8.01671 9.49168C7.91671 9.29168 8.00837 9.16668 8.10837 9.07501C8.20004 8.98334 8.33337 8.83334 8.41671 8.70834C8.52504 8.59167 8.55837 8.50001 8.62504 8.36667C8.69171 8.22501 8.65837 8.10834 8.60837 8.00834C8.55837 7.91668 8.14171 6.88334 7.96671 6.47501C7.80004 6.07501 7.63337 6.12501 7.50004 6.11668C7.38337 6.11668 7.25004 6.10834 7.10837 6.10834Z" fill="white"/>
</svg>
