<svg width="20" height="20" viewBox="0 0 20 20" fill="none" xmlns="http://www.w3.org/2000/svg">
<path d="M8.33329 12.5L12.6583 10L8.33329 7.50002V12.5ZM17.9666 5.97502C18.075 6.36669 18.15 6.89169 18.2 7.55835C18.2583 8.22502 18.2833 8.80002 18.2833 9.30002L18.3333 10C18.3333 11.825 18.2 13.1667 17.9666 14.025C17.7583 14.775 17.275 15.2584 16.525 15.4667C16.1333 15.575 15.4166 15.65 14.3166 15.7C13.2333 15.7584 12.2416 15.7834 11.325 15.7834L9.99996 15.8334C6.50829 15.8334 4.33329 15.7 3.47496 15.4667C2.72496 15.2584 2.24163 14.775 2.03329 14.025C1.92496 13.6334 1.84996 13.1084 1.79996 12.4417C1.74163 11.775 1.71663 11.2 1.71663 10.7L1.66663 10C1.66663 8.17502 1.79996 6.83335 2.03329 5.97502C2.24163 5.22502 2.72496 4.74169 3.47496 4.53335C3.86663 4.42502 4.58329 4.35002 5.68329 4.30002C6.76663 4.24169 7.75829 4.21669 8.67496 4.21669L9.99996 4.16669C13.4916 4.16669 15.6666 4.30002 16.525 4.53335C17.275 4.74169 17.7583 5.22502 17.9666 5.97502Z" fill="white"/>
</svg>
