<svg width="50" height="50" viewBox="0 0 50 50" fill="none" xmlns="http://www.w3.org/2000/svg">
<path fill-rule="evenodd" clip-rule="evenodd" d="M7.99712 15.0825C10.717 15.0825 12.9124 17.2745 12.9124 19.9966C12.9124 22.7175 10.717 24.9141 7.99712 24.9141C5.28011 24.9141 3.08876 22.718 3.08876 19.9966C3.08876 17.2745 5.28011 15.0825 7.99712 15.0825ZM7.99712 14C4.68995 14 2 16.6916 2 19.9971C2 23.3049 4.68995 26 7.99712 26C11.3049 26 14 23.3049 14 19.9971C14 16.691 11.3049 14 7.99712 14Z" fill="#333333"/>
<path fill-rule="evenodd" clip-rule="evenodd" d="M41.9965 15.0851C44.7162 15.0851 46.9085 17.2795 46.9085 20.0014C46.9085 22.7217 44.7162 24.9114 41.9965 24.9114C39.2798 24.9114 37.0887 22.7223 37.0887 20.0014C37.0887 17.28 39.2798 15.0851 41.9965 15.0851ZM41.9965 14C38.6897 14 36 16.6967 36 20.0014C36 23.305 38.6897 26 41.9965 26C45.3069 26 48 23.3056 48 20.0014C48 16.6967 45.3074 14 41.9965 14Z" fill="#333333"/>
<path fill-rule="evenodd" clip-rule="evenodd" d="M41.7614 28C38.3196 28 35.5301 30.7399 35.5301 34.1212V38.3567C35.5182 38.6591 35.7605 38.9103 36.0693 38.9103C36.3741 38.9103 36.6198 38.6585 36.6055 38.3567V34.1212C36.6055 31.3138 38.8946 29.0628 41.7614 29.0628C44.6322 29.0628 46.9246 31.3138 46.9246 34.1212V41.8205C46.9246 43.0003 45.9766 43.9372 44.78 43.9372H34.0964C33.7649 43.9372 33.5545 43.8141 33.3799 43.6005C33.2013 43.383 33.0893 43.0593 33.0768 42.7254C33.0654 42.3916 33.1513 42.0611 33.323 41.8262C33.4953 41.5957 33.7325 41.4378 34.1442 41.399L41.3496 40.7431C42.0406 40.6819 42.5701 40.4301 42.8726 40.017C43.1752 39.6039 43.2161 39.1334 43.2161 38.7057V33.8087C43.228 33.5046 42.9858 33.2523 42.677 33.2523C42.3722 33.2523 42.1265 33.5046 42.1407 33.8087V38.7057C42.1407 39.048 42.0878 39.2739 41.9991 39.3937C41.9104 39.5167 41.7534 39.6393 41.2473 39.6865L34.0436 40.3424C33.356 40.407 32.793 40.7459 32.4557 41.2057C32.1151 41.6649 31.982 42.2246 32.0019 42.7625C32.0235 43.3043 32.1947 43.8405 32.5445 44.2677C32.8936 44.6948 33.4504 45 34.0964 45H44.7806C46.5549 45 48 43.5707 48 41.8211V34.1206C47.9994 30.7394 45.206 28 41.7614 28Z" fill="#333333"/>
<path fill-rule="evenodd" clip-rule="evenodd" d="M8.4985 28C4.90977 28 2 30.6662 2 33.9638V43.4841C2 43.7694 2.25024 44 2.55859 44H6.53395C6.84526 44.0027 7.10262 43.7722 7.10262 43.4841C7.10262 43.1934 6.84526 42.9623 6.53395 42.965H3.11777V33.9632C3.11777 31.228 5.50571 29.0349 8.4985 29.0349C11.4907 29.0349 13.8786 31.228 13.8786 33.9632V36.0742C13.8757 36.3617 14.1253 36.5982 14.4408 36.5982C14.7521 36.5982 15.0035 36.3617 15 36.0742V33.9632C14.9994 30.6662 12.0872 28 8.4985 28Z" fill="#333333"/>
<path fill-rule="evenodd" clip-rule="evenodd" d="M18.6857 30C18.4187 30 18.1938 30.1859 18.1584 30.4394L17.6344 33.9271C17.5344 34.6027 18.5885 34.746 18.688 34.0709L19.1451 31.022H24.8548L23.1311 42.5148H17.418L17.6547 40.948L21.1279 39.0223C21.6812 38.7153 22.0067 38.2023 22.091 37.6819C22.1787 37.1619 22.059 36.6344 21.8043 36.1766C21.5524 35.7205 21.1572 35.3178 20.636 35.0957C20.1177 34.8703 19.47 34.8481 18.8465 35.1119L13.2599 37.4824C12.7995 37.6797 12.5949 37.6538 12.4565 37.5948C12.3227 37.5359 12.1726 37.3786 12.0029 37.0971L9.93564 33.6239C9.79227 33.3791 9.47013 33.2888 9.21546 33.4267C8.95459 33.565 8.86352 33.8828 9.01363 34.1309L11.0831 37.604C11.2945 37.9586 11.5666 38.3304 12.0293 38.5272C12.4948 38.7277 13.0693 38.6823 13.6895 38.4175L19.2766 36.0474C19.6516 35.8869 19.9383 35.9145 20.2042 36.028C20.4719 36.1437 20.7114 36.3739 20.8665 36.656C21.0217 36.9371 21.0835 37.2587 21.0397 37.5197C20.9953 37.7786 20.8783 37.9791 20.5972 38.1359L12.3598 42.7051C11.335 43.2737 10.0559 42.9445 9.46732 41.9619L5.99741 36.1545C5.85461 35.9048 5.52292 35.8172 5.26599 35.961C5.00794 36.1042 4.92361 36.422 5.0754 36.6674L8.5425 42.4689C9.41504 43.9298 11.3737 44.4341 12.8928 43.5926L16.4858 41.5993L16.2812 42.9564C16.2368 43.2634 16.483 43.5385 16.8057 43.5385H23.5898C23.8529 43.5385 24.0756 43.3504 24.1144 43.0996L25.9944 30.5875C26.041 30.2773 25.792 30.0016 25.467 30.0016H18.6857V30Z" fill="#333333"/>
<path fill-rule="evenodd" clip-rule="evenodd" d="M18.187 6.06491H31.8101C32.9596 6.06491 33.8725 6.92708 33.8725 8.02408V14.8725C33.8725 15.9695 32.9596 16.8322 31.8101 16.8322H29.9867C29.6767 16.8322 29.4215 17.0693 29.4215 17.3627V20.5512C29.4215 20.7714 29.2909 20.888 29.1424 20.9268C28.9934 20.9651 28.8199 20.9702 28.6052 20.616L26.4778 17.0986C26.3782 16.9319 26.1922 16.8322 25.9907 16.8322H18.1899C17.0368 16.8322 16.1281 15.9695 16.1281 14.8725V8.02408C16.1281 6.92708 17.0344 6.06491 18.187 6.06491ZM18.187 5.00056C16.4292 5.00056 15 6.35887 15 8.02465V14.873C15 16.5394 16.4322 17.8977 18.1899 17.8977H25.6645L27.6274 21.1442C28.037 21.8217 28.8008 22.1184 29.431 21.9568C30.0619 21.7986 30.549 21.2354 30.549 20.5523V17.8982H31.8101C33.5678 17.8982 35 16.5399 35 14.8736V8.02408C35 6.3583 33.5684 5 31.8101 5H18.187V5.00056Z" fill="#333333"/>
</svg>
