<svg width="50" height="50" viewBox="0 0 50 50" fill="none" xmlns="http://www.w3.org/2000/svg">
<g clip-path="url(#clip0_2098_1899)">
<path d="M7.33267 2.36328C5.25754 2.36328 3.56152 4.03355 3.56152 6.08238V44.3161C3.56152 46.3649 5.25754 48.0367 7.33267 48.0367H23.7729C23.8777 48.0365 23.9814 48.0159 24.0781 47.9761C24.1748 47.9362 24.2626 47.8779 24.3365 47.8045C24.4103 47.731 24.4688 47.6439 24.5086 47.5481C24.5484 47.4523 24.5686 47.3497 24.5682 47.2462C24.5674 47.0381 24.4833 46.8388 24.3343 46.6918C24.1852 46.5449 23.9834 46.4621 23.7729 46.4617H7.33267C6.11084 46.4617 5.15527 45.5176 5.15527 44.3161V6.08238C5.15527 4.8809 6.11084 3.93828 7.33267 3.93828H21.6733H36.0093C37.2311 3.93828 38.1851 4.88091 38.1851 6.08238V25.6745C38.1847 25.7784 38.2051 25.8814 38.2452 25.9775C38.2852 26.0736 38.3441 26.1609 38.4185 26.2344C38.4929 26.3079 38.5812 26.3661 38.6785 26.4057C38.7757 26.4453 38.8799 26.4655 38.9851 26.4651C39.0898 26.4647 39.1933 26.4439 39.2898 26.404C39.3863 26.364 39.474 26.3057 39.5477 26.2323C39.6214 26.1588 39.6797 26.0718 39.7194 25.9761C39.7591 25.8804 39.7793 25.7779 39.7789 25.6745V6.08238C39.7789 4.03355 38.0844 2.36328 36.0093 2.36328H21.6733H7.33267ZM16.724 10.9027C16.619 10.904 16.5154 10.9256 16.419 10.9666C16.3226 11.0075 16.2353 11.0668 16.1621 11.1411L11.9381 15.4016L10.5622 13.7682C10.495 13.6887 10.4126 13.6231 10.3198 13.5751C10.2269 13.5272 10.1254 13.4978 10.021 13.4886C9.91661 13.4795 9.81144 13.4908 9.71148 13.5219C9.61153 13.5529 9.51875 13.6032 9.43848 13.6698C9.35794 13.736 9.29143 13.8174 9.24275 13.9091C9.19407 14.0008 9.16418 14.1011 9.15478 14.2043C9.14538 14.3074 9.15667 14.4114 9.18799 14.5102C9.21931 14.6091 9.27005 14.7008 9.33731 14.7803L11.2797 17.0705C11.3511 17.155 11.4396 17.2237 11.5396 17.2724C11.6395 17.321 11.7487 17.3483 11.86 17.3527C11.9713 17.357 12.0823 17.3382 12.1858 17.2976C12.2893 17.2569 12.3831 17.1953 12.461 17.1166L17.2967 12.2455C17.3708 12.1719 17.4293 12.0846 17.4691 11.9885C17.5089 11.8925 17.5291 11.7896 17.5285 11.6859C17.5279 11.5821 17.5065 11.4795 17.4657 11.3839C17.4248 11.2883 17.3653 11.2016 17.2904 11.1288C17.2157 11.0562 17.1271 10.9988 17.0299 10.96C16.9327 10.9212 16.8288 10.9017 16.724 10.9027ZM21.3387 13.5713C21.1281 13.5717 20.9263 13.6544 20.7773 13.8014C20.6283 13.9484 20.5442 14.1477 20.5434 14.3557C20.543 14.4593 20.5632 14.5619 20.603 14.6577C20.6427 14.7535 20.7012 14.8406 20.7751 14.914C20.849 14.9875 20.9368 15.0458 21.0335 15.0856C21.1302 15.1255 21.2339 15.1461 21.3387 15.1463H33.3914C33.4966 15.1467 33.6008 15.1265 33.698 15.087C33.7953 15.0474 33.8836 14.9892 33.958 14.9157C34.0324 14.8422 34.0913 14.7549 34.1313 14.6588C34.1714 14.5627 34.1918 14.4597 34.1914 14.3557C34.191 14.2523 34.17 14.15 34.1296 14.0546C34.0891 13.9592 34.0301 13.8726 33.9558 13.7998C33.8815 13.7269 33.7934 13.6693 33.6966 13.6301C33.5998 13.5909 33.4961 13.5709 33.3914 13.5713H21.3387ZM16.7271 21.9708C16.622 21.9717 16.5181 21.9932 16.4214 22.0338C16.3247 22.0745 16.2371 22.1335 16.1637 22.2077L11.9349 26.4635L10.5622 24.8393C10.4263 24.6805 10.2321 24.5812 10.0222 24.563C9.8122 24.5449 9.60348 24.6094 9.44158 24.7424C9.28067 24.8764 9.18005 25.0678 9.16168 25.2747C9.14331 25.4816 9.20869 25.6872 9.34355 25.8468L11.2766 28.1416C11.3483 28.2263 11.4373 28.2952 11.5378 28.3438C11.6383 28.3924 11.748 28.4196 11.8598 28.4237C11.9717 28.4277 12.0832 28.4086 12.187 28.3674C12.2908 28.3262 12.3847 28.2639 12.4626 28.1847L17.3061 23.312C17.3799 23.2382 17.4382 23.1508 17.4776 23.0547C17.517 22.9586 17.5368 22.8558 17.5357 22.7522C17.5347 22.6486 17.513 22.5462 17.4717 22.4509C17.4304 22.3556 17.3704 22.2693 17.2952 22.1969C17.2203 22.1242 17.1316 22.0668 17.0341 22.028C16.9366 21.9892 16.8322 21.9697 16.7271 21.9708ZM21.3356 24.6332C21.1245 24.6351 20.9228 24.7193 20.7746 24.8675C20.6264 25.0157 20.5438 25.2157 20.5449 25.4238C20.5438 25.6319 20.6264 25.8319 20.7746 25.9801C20.9228 26.1283 21.1245 26.2125 21.3356 26.2144H33.3945C33.6056 26.2125 33.8073 26.1283 33.9555 25.9801C34.1037 25.8319 34.1863 25.6319 34.1852 25.4238C34.1863 25.2157 34.1037 25.0157 33.9555 24.8675C33.8073 24.7193 33.6056 24.6351 33.3945 24.6332H21.3356ZM43.8566 28.7937C43.7974 28.793 43.7385 28.7935 43.6792 28.7953C42.7299 28.8242 41.7833 29.2056 41.0567 29.9227L39.8271 31.1378L36.3672 34.5508C36.3513 34.566 36.3252 34.5883 36.2847 34.6324L28.9915 41.8291C28.872 41.947 28.7935 42.0995 28.7674 42.2644L28.0094 47.0724C27.9897 47.1951 27.9997 47.3206 28.0385 47.4387C28.0773 47.5568 28.1437 47.6642 28.2325 47.7521C28.3213 47.8399 28.4298 47.9058 28.5493 47.9444C28.6688 47.9829 28.7957 47.9929 28.9199 47.9737L33.7914 47.2293C33.9583 47.2035 34.1125 47.1259 34.2319 47.0078L41.55 39.7773L45.0675 36.312L46.2971 35.0969C47.7733 33.64 47.8339 31.2766 46.3795 29.8412C46.3774 29.8396 46.3753 29.8381 46.3732 29.8365C46.3669 29.8302 46.3485 29.8106 46.3141 29.7781C46.3125 29.776 46.3109 29.7739 46.3093 29.7718C45.624 29.1299 44.7458 28.8077 43.8566 28.7937ZM43.8223 30.358C44.3312 30.366 44.8282 30.5537 45.2153 30.9163C45.2192 30.9202 45.2286 30.9316 45.2558 30.9579C46.0759 31.7723 46.0659 33.0993 45.1733 33.9802L43.9391 35.1953L43.9033 35.2307L40.9181 32.2806L40.9508 32.2483L42.1866 31.0332C42.6542 30.5717 43.2456 30.349 43.8223 30.358ZM16.7255 33.045C16.6207 33.0452 16.5171 33.0659 16.4204 33.1057C16.3237 33.1456 16.2359 33.2039 16.1621 33.2773L11.9442 37.5331L10.5622 35.9043C10.495 35.8248 10.4126 35.7592 10.3197 35.7113C10.2269 35.6633 10.1253 35.6339 10.021 35.6248C9.91658 35.6156 9.8114 35.6269 9.71145 35.658C9.61149 35.6891 9.51872 35.7393 9.43844 35.8059C9.35791 35.8722 9.2914 35.9535 9.24272 36.0452C9.19404 36.1369 9.16415 36.2372 9.15475 36.3404C9.14535 36.4435 9.15664 36.5475 9.18796 36.6464C9.21928 36.7452 9.27002 36.837 9.33728 36.9164L11.2797 39.2066C11.3509 39.2912 11.4394 39.3601 11.5393 39.4088C11.6392 39.4576 11.7483 39.4851 11.8596 39.4896C11.9709 39.4941 12.0819 39.4754 12.1855 39.4349C12.2891 39.3944 12.3829 39.3328 12.461 39.2542L17.2967 34.3816C17.3705 34.308 17.4289 34.2208 17.4685 34.1249C17.5081 34.029 17.5282 33.9263 17.5277 33.8227C17.5271 33.7191 17.5058 33.6167 17.4651 33.5212C17.4244 33.4258 17.365 33.3392 17.2904 33.2665C17.139 33.1218 16.936 33.0422 16.7255 33.045ZM39.7882 33.3957L42.778 36.3427L40.4263 38.6667L33.2856 45.7127L29.7556 46.2526L30.3035 42.7642L37.438 35.7197C37.4481 35.7103 37.458 35.7006 37.4675 35.6906C37.4573 35.7019 37.4627 35.6944 37.4862 35.6721C37.4878 35.67 37.4894 35.668 37.491 35.6659L39.7882 33.3957ZM21.3386 35.7074C21.1281 35.7078 20.9263 35.7906 20.7773 35.9375C20.6283 36.0845 20.5441 36.2838 20.5433 36.4919C20.5429 36.5954 20.5632 36.698 20.6029 36.7938C20.6427 36.8896 20.7012 36.9767 20.7751 37.0502C20.8489 37.1236 20.9367 37.1819 21.0335 37.2218C21.1302 37.2616 21.2339 37.2822 21.3386 37.2824H28.0856C28.1903 37.282 28.2938 37.2613 28.3903 37.2213C28.4869 37.1814 28.5745 37.123 28.6482 37.0496C28.7219 36.9762 28.7803 36.8892 28.8199 36.7935C28.8596 36.6978 28.8798 36.5953 28.8794 36.4919C28.8786 36.2841 28.7947 36.085 28.646 35.9381C28.4973 35.7912 28.2959 35.7083 28.0856 35.7074H21.3386Z" fill="#333333"/>
</g>
<defs>
<clipPath id="clip0_2098_1899">
<rect width="50" height="50" fill="white"/>
</clipPath>
</defs>
</svg>
