<svg width="50" height="50" viewBox="0 0 50 50" fill="none" xmlns="http://www.w3.org/2000/svg">
<g clip-path="url(#clip0_2098_1892)">
<path d="M18.4523 35.9422C22.1542 35.9422 25.6735 34.7883 28.6158 32.6633L30.51 34.6249L30.1061 35.0287C29.9235 35.2114 29.8273 35.4518 29.8273 35.7114C29.8273 35.971 29.9331 36.2114 30.1061 36.3941L41.4619 47.7499C42.3273 48.6153 43.4619 49.048 44.5965 49.048C45.7311 49.048 46.8658 48.6153 47.7311 47.7499C49.4619 46.0191 49.4619 43.2018 47.7311 41.471L36.385 30.1057C36.01 29.7307 35.4042 29.7307 35.0292 30.1057L34.5965 30.5383L32.6927 28.5768C37.5485 21.7499 36.9331 12.2018 30.8177 6.08643C27.5196 2.77873 23.1254 0.961426 18.4523 0.961426C13.7792 0.961426 9.38499 2.77873 6.08691 6.08643C2.77922 9.3845 0.961914 13.7787 0.961914 18.4518C0.961914 23.1249 2.77922 27.5191 6.08691 30.8172C9.38499 34.1249 13.7792 35.9422 18.4523 35.9422ZM46.385 42.8268C47.3658 43.8076 47.3658 45.4037 46.385 46.3845C45.4042 47.3653 43.8081 47.3653 42.8273 46.3845L32.1542 35.7114L35.7119 32.1537L46.385 42.8268ZM33.2311 31.9037L31.8754 33.2595L30.1158 31.4422C30.3465 31.2307 30.5869 31.0287 30.8081 30.8076C31.0388 30.5768 31.2504 30.3172 31.4715 30.0768L33.2311 31.9037ZM7.44268 7.44219C10.385 4.49989 14.2985 2.8845 18.4523 2.8845C22.6061 2.8845 26.5196 4.49989 29.4619 7.44219C35.5292 13.5095 35.5292 23.3845 29.4619 29.4518C26.5196 32.3941 22.6158 34.0095 18.4523 34.0095C14.2888 34.0095 10.385 32.3941 7.44268 29.4518C4.50038 26.5095 2.88499 22.6057 2.88499 18.4518C2.88499 14.2883 4.50999 10.3845 7.44268 7.44219Z" fill="#333333"/>
<path d="M30.5095 19.0577C30.7979 18.7019 30.7979 18.2019 30.5095 17.8462C30.2883 17.5769 25.0768 11.25 18.4518 11.25C11.8172 11.25 6.61523 17.5769 6.39408 17.8462C6.10562 18.2019 6.10562 18.7019 6.39408 19.0577C6.61523 19.3269 11.8268 25.6538 18.4518 25.6538C25.0768 25.6538 30.2883 19.3269 30.5095 19.0577ZM8.42293 18.4519C9.83639 16.9519 13.8364 13.1731 18.4422 13.1731C23.0383 13.1731 27.0479 16.9519 28.4614 18.4519C27.0479 19.9519 23.0479 23.7308 18.4422 23.7308C13.8556 23.7308 9.846 19.9519 8.42293 18.4519Z" fill="#333333"/>
<path d="M21.9228 18.4519C21.9228 16.5384 20.3651 14.9807 18.4516 14.9807C16.5382 14.9807 14.9805 16.5384 14.9805 18.4519C14.9805 20.3653 16.5382 21.923 18.4516 21.923C20.3651 21.923 21.9228 20.3653 21.9228 18.4519ZM16.9035 18.4519C16.9035 17.5961 17.5959 16.9038 18.4516 16.9038C19.3074 16.9038 19.9997 17.5961 19.9997 18.4519C19.9997 19.3076 19.3074 19.9999 18.4516 19.9999C17.5959 19.9999 16.9035 19.298 16.9035 18.4519Z" fill="#333333"/>
</g>
<defs>
<clipPath id="clip0_2098_1892">
<rect width="50" height="50" fill="white"/>
</clipPath>
</defs>
</svg>
