<svg width="50" height="50" viewBox="0 0 50 50" fill="none" xmlns="http://www.w3.org/2000/svg">
<path d="M49.3638 25.7323L42.3883 14.8589C42.3043 14.7287 42.1721 14.6371 42.0207 14.6043C41.8693 14.5715 41.711 14.6001 41.5807 14.6839L34.4361 19.2654C32.9617 19.8844 31.8203 19.7078 30.1008 19.4426C29.2769 19.3154 28.3432 19.1709 27.2068 19.0893C26.4028 19.0271 25.5948 19.1385 24.8376 19.4159C24.0805 19.6932 23.3917 20.1301 22.8182 20.6969L18.5562 20.2671C17.6495 20.1858 16.7756 19.8875 16.0084 19.3975L8.41274 14.6779C8.2823 14.5968 8.12516 14.5703 7.97534 14.6042C7.82551 14.638 7.69505 14.7296 7.6122 14.8589L0.636652 25.7323C0.59535 25.797 0.567211 25.8693 0.553844 25.9449C0.540477 26.0206 0.542144 26.0981 0.558748 26.1731C0.575352 26.2481 0.60657 26.3191 0.650616 26.382C0.694663 26.445 0.750676 26.4986 0.815457 26.5399C1.68502 27.0991 2.58883 27.6665 3.46002 28.2149C5.81872 29.6997 8.25024 31.2323 10.4992 32.8529L9.99643 33.641C9.64183 34.1983 9.5228 34.8735 9.66544 35.5184C9.80809 36.1634 10.2008 36.7254 10.7573 37.0812C11.1549 37.336 11.6172 37.4714 12.0894 37.4714C12.1649 37.4714 12.241 37.4671 12.3171 37.46C12.2374 37.9398 12.3012 38.4325 12.5003 38.8763C12.6995 39.32 13.0252 39.6951 13.4367 39.9546C13.8355 40.2058 14.2973 40.3389 14.7687 40.3382C14.9215 40.3381 15.0739 40.3243 15.2242 40.2969C15.2034 40.798 15.3343 41.2937 15.5998 41.7191C15.8652 42.1446 16.2529 42.4801 16.7121 42.6817C17.1712 42.8833 17.6806 42.9417 18.1735 42.8492C18.6663 42.7567 19.1199 42.5176 19.4747 42.1632C19.6711 42.598 19.9885 42.9671 20.389 43.2262C20.7896 43.4854 21.2563 43.6237 21.7334 43.6247C21.9162 43.6245 22.0984 43.6045 22.2769 43.5649C22.8139 43.4479 23.2966 43.1555 23.6492 42.7339L26.6144 44.6257C27.1157 44.9495 27.6991 45.1236 28.2959 45.1274C28.7114 45.1391 29.1231 45.0452 29.4924 44.8546C29.8618 44.6639 30.1767 44.3827 30.4078 44.0372C30.7134 43.5513 30.8295 42.97 30.7339 42.404C30.9552 42.4558 31.1817 42.4823 31.4089 42.4828C31.5396 42.4827 31.6702 42.4738 31.7997 42.4562C32.1477 42.4164 32.4825 42.3004 32.7805 42.1163C33.0785 41.9323 33.3322 41.6848 33.5236 41.3915C33.8375 40.8939 33.9515 40.2958 33.8426 39.7176C34.0372 39.7574 34.2353 39.7777 34.4339 39.7785C34.7705 39.7907 35.1059 39.7326 35.4187 39.6079C35.7315 39.4832 36.0149 39.2947 36.2508 39.0543C36.4867 38.814 36.6698 38.5271 36.7886 38.2119C36.9073 37.8968 36.959 37.5604 36.9405 37.2241C37.2472 37.3263 37.5682 37.3791 37.8915 37.3806C38.0925 37.381 38.293 37.3597 38.4894 37.3171C38.7995 37.2568 39.0941 37.1339 39.3551 36.9558C39.6161 36.7776 39.8379 36.5481 40.007 36.2812C40.1761 36.0143 40.2889 35.7157 40.3385 35.4036C40.3881 35.0916 40.3734 34.7727 40.2953 34.4665C40.1598 33.8949 39.8571 33.3767 39.4258 32.9779C39.7828 32.7306 40.0975 32.4839 40.404 32.2421C40.8859 31.8374 41.4059 31.4805 41.9568 31.1763C41.9726 31.1683 41.9881 31.1594 42.003 31.1497L49.185 26.5399C49.2498 26.4986 49.3058 26.445 49.3499 26.382C49.3939 26.3191 49.4251 26.2481 49.4417 26.1731C49.4583 26.0981 49.46 26.0206 49.4466 25.9449C49.4333 25.8693 49.4051 25.797 49.3638 25.7323ZM11.3834 36.0969C11.0889 35.9074 10.8813 35.6092 10.8057 35.2673C10.73 34.9254 10.7926 34.5674 10.9796 34.2714L12.8975 31.2654C12.9908 31.1191 13.1122 30.9926 13.2546 30.8935C13.3971 30.7943 13.5578 30.7244 13.7274 30.6877C13.8229 30.6666 13.9204 30.6559 14.0182 30.6556C14.2544 30.6571 14.486 30.7217 14.6889 30.8429C14.8917 30.9641 15.0583 31.1375 15.1715 31.3449C15.2847 31.5523 15.3402 31.7862 15.3324 32.0224C15.3245 32.2585 15.2536 32.4883 15.1269 32.6877L13.2068 35.6921C13.0172 35.9865 12.719 36.1941 12.377 36.2697C12.0351 36.3452 11.6772 36.2825 11.3812 36.0953L11.3834 36.0969ZM14.0557 38.9665C13.9105 38.875 13.7849 38.7556 13.6862 38.6152C13.5875 38.4748 13.5177 38.3163 13.4807 38.1487C13.4438 37.9811 13.4404 37.8078 13.4709 37.639C13.5014 37.4701 13.5652 37.3089 13.6584 37.1649L16.8285 32.2736C16.9515 32.0848 17.1197 31.9298 17.3179 31.8228C17.5162 31.7157 17.738 31.6599 17.9633 31.6605C18.2158 31.6602 18.4632 31.7314 18.6769 31.866C18.9492 32.0371 19.1481 32.3034 19.2348 32.6132C19.3215 32.9229 19.2898 33.2539 19.1459 33.5415L18.3345 34.8089L15.904 38.5589C15.7101 38.8547 15.4081 39.0628 15.0626 39.1387C14.7172 39.2146 14.3557 39.1522 14.0557 38.9649V38.9665ZM16.9964 41.5176C16.7022 41.3292 16.4946 41.0318 16.4192 40.6907C16.3438 40.3495 16.4068 39.9923 16.5943 39.6975L19.3155 35.4448L20.0546 34.3035C20.0921 34.2459 20.1263 34.1866 20.1584 34.1268L20.3861 33.7714C20.5757 33.4756 20.8748 33.267 21.2178 33.1912C21.5609 33.1155 21.92 33.1787 22.2165 33.3671C22.5108 33.5555 22.7184 33.8528 22.7938 34.194C22.8691 34.5352 22.8062 34.8923 22.6187 35.1872L21.8002 36.4665C21.7102 36.5667 21.6286 36.6741 21.5562 36.7877L19.6383 39.7926C19.5733 39.8948 19.5157 40.0016 19.466 40.1122L18.8274 41.11C18.6377 41.4057 18.3387 41.6144 17.9956 41.6905C17.6526 41.7665 17.2934 41.7038 16.9964 41.516V41.5176ZM22.0236 42.4247C21.7906 42.4754 21.5482 42.4623 21.3221 42.3867C21.0959 42.311 20.8944 42.1757 20.7388 41.995C20.5832 41.8142 20.4794 41.5948 20.4383 41.3599C20.3971 41.125 20.4202 40.8834 20.5051 40.6605L22.7247 37.1937C22.9018 37.0168 23.1255 36.894 23.3698 36.8393C23.4653 36.8182 23.5628 36.8075 23.6606 36.8073C23.911 36.8069 24.1563 36.8785 24.3671 37.0138C24.6622 37.2027 24.8704 37.501 24.946 37.8432C25.0216 38.1854 24.9584 38.5436 24.7703 38.8393L22.8535 41.8453C22.7602 41.9917 22.6388 42.1181 22.4964 42.2173C22.3539 42.3164 22.1933 42.3864 22.0236 42.423V42.4247ZM39.0165 35.6622C38.9275 35.7954 38.8129 35.9095 38.6792 35.9979C38.5456 36.0862 38.3957 36.1471 38.2383 36.1768C37.7529 36.271 37.25 36.1698 36.8388 35.8953L31.6084 32.5306C31.4787 32.4614 31.3278 32.4435 31.1856 32.4806C31.0433 32.5176 30.9203 32.6068 30.8408 32.7305C30.7614 32.8542 30.7315 33.0032 30.757 33.148C30.7825 33.2927 30.8616 33.4225 30.9785 33.5116L35.0133 36.1073C35.3686 36.3145 35.6291 36.6522 35.7394 37.0486C35.7802 37.2201 35.7854 37.3982 35.7547 37.5719C35.7241 37.7456 35.6582 37.9111 35.5611 38.0584C35.1622 38.6834 34.1644 38.7899 33.3812 38.2904L29.8459 36.0344C29.7151 35.9508 29.5564 35.9226 29.4048 35.956C29.2532 35.9894 29.1211 36.0816 29.0375 36.2124C28.9539 36.3432 28.9257 36.5019 28.959 36.6535C28.9924 36.8051 29.0847 36.9373 29.2155 37.0209L31.8285 38.6882C32.2136 38.9254 32.5024 39.2912 32.6437 39.7209C32.7085 39.8905 32.7326 40.073 32.7142 40.2537C32.6958 40.4344 32.6354 40.6082 32.5378 40.7614C32.4402 40.9146 32.3081 41.0428 32.1521 41.1358C31.9961 41.2287 31.8205 41.2839 31.6394 41.2969C31.1895 41.3512 30.7349 41.2439 30.3568 40.9942L29.3443 40.3486L27.9894 39.4844C27.8587 39.4047 27.702 39.3794 27.5529 39.414C27.4037 39.4485 27.2741 39.5402 27.1918 39.6692C27.1095 39.7983 27.0811 39.9544 27.1126 40.1042C27.1442 40.254 27.2332 40.3854 27.3606 40.4703L28.7138 41.3334C29.4964 41.8328 29.8209 42.7828 29.4203 43.4084C29.0198 44.0339 28.0231 44.1393 27.2405 43.6404L24.2937 41.76L25.7557 39.4681C26.1103 38.9108 26.2293 38.2356 26.0867 37.5907C25.944 36.9457 25.5513 36.3837 24.9948 36.0279C24.6097 35.7812 24.1635 35.6465 23.7062 35.6388C23.9977 35.086 24.0706 34.4439 23.9107 33.8399C23.7507 33.2358 23.3695 32.714 22.8426 32.3779C22.4731 32.1432 22.0485 32.0097 21.6112 31.9906C21.1739 31.9715 20.7393 32.0676 20.3508 32.2692C20.1841 31.6893 19.809 31.1915 19.2975 30.8714C18.8449 30.5894 18.3147 30.4576 17.7827 30.4948C17.2507 30.532 16.744 30.7362 16.335 31.0785C16.1702 30.6477 15.889 30.2711 15.5227 29.9908C15.1565 29.7105 14.7195 29.5375 14.2607 29.491C13.8018 29.4445 13.339 29.5264 12.924 29.7275C12.5089 29.9286 12.1579 30.2411 11.91 30.6301L11.1247 31.8605C8.86165 30.2339 6.43393 28.7029 4.0785 27.2209C3.37198 26.7763 2.64698 26.3198 1.93502 25.8654L8.28285 15.9703L15.391 20.3904C16.3106 20.9726 17.3551 21.3283 18.4388 21.4285L21.8149 21.7692C21.1563 22.6091 20.5469 23.4865 19.9899 24.3969C19.3932 25.3948 18.7173 26.3432 17.9687 27.2328C17.5035 27.7491 17.6328 28.5372 18.2905 29.1931C18.591 29.5419 18.9613 29.8238 19.3775 30.0207C19.7937 30.2175 20.2465 30.325 20.7068 30.3361C22.154 30.285 23.2573 29.0171 24.3242 27.791C25.1687 26.8203 26.0432 25.8187 26.8008 25.8529C27.2965 26.0546 27.7477 26.3519 28.1285 26.7279C28.7581 27.301 29.4801 27.7635 30.2638 28.0959L38.2937 33.5752L38.3144 33.5888C38.5222 33.7134 38.7034 33.8778 38.8477 34.0725C38.9919 34.2672 39.0964 34.4885 39.1551 34.7236C39.1958 34.8814 39.2045 35.0457 39.1807 35.2069C39.1569 35.3681 39.1011 35.5229 39.0165 35.6622ZM41.3915 30.154C40.7861 30.4884 40.2139 30.8799 39.6828 31.323C39.2775 31.6536 38.8546 31.962 38.416 32.2469L33.5595 28.9317C34.3495 29.0208 35.1494 28.941 35.9062 28.6975C35.9797 28.6715 36.0473 28.631 36.1049 28.5785C36.1626 28.5259 36.2091 28.4624 36.2418 28.3916C36.2746 28.3208 36.2928 28.2442 36.2955 28.1663C36.2981 28.0883 36.2852 28.0106 36.2574 27.9378C36.2296 27.8649 36.1875 27.7983 36.1336 27.742C36.0797 27.6856 36.015 27.6406 35.9435 27.6096C35.8719 27.5786 35.7949 27.5623 35.7169 27.5615C35.6389 27.5607 35.5615 27.5755 35.4894 27.6051C34.4486 28.0024 32.472 27.7757 30.8008 27.0556C30.7803 27.0452 30.7593 27.0359 30.7377 27.0279C30.075 26.7489 29.4639 26.3603 28.9301 25.8785C28.9176 25.8671 27.6986 24.7274 26.8606 24.6872C25.5307 24.623 24.4693 25.8442 23.4415 27.0241C22.5383 28.0622 21.6051 29.135 20.6655 29.1681C20.3663 29.149 20.0742 29.0682 19.8077 28.9309C19.5412 28.7936 19.3059 28.6028 19.1165 28.3703C19.0029 28.2659 18.9165 28.1353 18.8649 27.9899C19.6446 27.0601 20.3502 26.0707 20.9752 25.0306C21.6666 23.8472 22.4845 22.7424 23.4144 21.7355L23.4361 21.7143C23.9022 21.2108 24.4756 20.8185 25.1138 20.5666C25.752 20.3147 26.4387 20.2095 27.1231 20.2589C28.21 20.3372 29.1203 20.4763 29.9225 20.6013C31.716 20.8785 33.1372 21.0975 34.9405 20.3252C34.97 20.3122 34.9985 20.2969 35.0258 20.2796L41.7198 15.9861L48.0638 25.8774L41.3915 30.154ZM22.6785 16.135C23.1422 16.5975 23.7703 16.8572 24.4252 16.8572C25.0801 16.8572 25.7083 16.5975 26.172 16.135L33.1981 9.10836C33.6613 8.64509 33.9216 8.01677 33.9216 7.36162C33.9216 6.70647 33.6613 6.07814 33.1981 5.61488C32.7348 5.15162 32.1065 4.89136 31.4513 4.89136C30.7962 4.89136 30.1678 5.15162 29.7046 5.61488L24.4252 10.8942L22.7872 9.25618C22.5593 9.02007 22.2867 8.83171 21.9852 8.7021C21.6838 8.5725 21.3595 8.50424 21.0314 8.50133C20.7032 8.49841 20.3778 8.56089 20.0741 8.68512C19.7704 8.80935 19.4944 8.99284 19.2624 9.22487C19.0304 9.4569 18.8469 9.73283 18.7227 10.0366C18.5984 10.3403 18.5359 10.6657 18.5389 10.9938C18.5418 11.322 18.61 11.6462 18.7396 11.9477C18.8692 12.2492 19.0576 12.5218 19.2937 12.7497L22.6785 16.135ZM20.1198 10.0828C20.3642 9.83955 20.6951 9.70298 21.0399 9.70298C21.3848 9.70298 21.7156 9.83955 21.96 10.0828L24.0117 12.1344C24.1213 12.244 24.27 12.3055 24.425 12.3055C24.58 12.3055 24.7286 12.244 24.8383 12.1344L30.5312 6.44151C30.7752 6.19748 31.1062 6.06039 31.4513 6.06039C31.7964 6.06039 32.1274 6.19748 32.3714 6.44151C32.6155 6.68554 32.7526 7.01651 32.7526 7.36162C32.7526 7.70673 32.6155 8.0377 32.3714 8.28173L25.3453 15.3084C25.1009 15.5516 24.7701 15.6882 24.4252 15.6882C24.0804 15.6882 23.7496 15.5516 23.5051 15.3084L20.1198 11.923C19.8765 11.6786 19.74 11.3478 19.74 11.0029C19.74 10.6581 19.8765 10.3272 20.1198 10.0828Z" fill="black"/>
</svg>
