<svg width="50" height="50" viewBox="0 0 50 50" fill="none" xmlns="http://www.w3.org/2000/svg">
<path fill-rule="evenodd" clip-rule="evenodd" d="M41.8605 45.5727C40.3765 46.2542 38.7588 46.5952 37.1259 46.5709C30.1233 46.5709 21.5393 41.1883 15.1771 34.8235C7.27546 26.9265 0.887783 15.614 4.42281 8.14268C5.31868 6.25976 6.81622 4.72879 8.67905 3.79145C9.47131 7.87641 11.4509 12.4198 14.4309 16.9918L14.0664 17.3547C13.5831 17.8301 13.2713 18.4526 13.1799 19.1244C13.0886 19.7962 13.223 20.4793 13.5619 21.0665C17.3083 27.4041 22.5965 32.6916 28.9349 36.4374C29.5219 36.7754 30.2044 36.9091 30.8756 36.8176C31.5467 36.7262 32.1686 36.4147 32.6437 35.932L33.0082 35.5696C37.5823 38.5476 42.1263 40.527 46.2124 41.3201C45.2741 43.182 43.7424 44.6782 41.859 45.5727H41.8605ZM12.6889 3.71479L10.3448 3.45926C10.2513 3.44955 10.1624 3.44444 10.0734 3.44239C10.8069 7.28971 12.6634 11.5909 15.4695 15.9497L16.9871 14.4303C17.2258 14.2017 17.3882 13.905 17.4522 13.5807C17.5163 13.2564 17.4788 12.9203 17.3449 12.6181L14.0368 4.72211C13.9284 4.44525 13.7447 4.20422 13.5065 4.02622C13.2684 3.84823 12.9852 3.74036 12.6889 3.71479ZM35.57 33.0102L34.0463 34.5296C38.4083 37.3338 42.7106 39.189 46.5553 39.9224C46.5557 39.832 46.5501 39.7417 46.5385 39.652L46.2829 37.3113C46.2591 37.0147 46.1522 36.7308 45.9745 36.4921C45.7967 36.2534 45.5554 36.0695 45.278 35.9616L37.3799 32.6535C37.078 32.5201 36.7423 32.4829 36.4185 32.5469C36.0947 32.6109 35.7984 32.773 35.57 33.0112V33.0102ZM47.7187 37.1565C47.6631 36.6051 47.4587 36.0792 47.1272 35.6351C46.7956 35.191 46.3496 34.8454 45.8367 34.6354L37.9355 31.3278C37.3706 31.0836 36.7449 31.0164 36.141 31.135C35.5371 31.2536 34.9834 31.5525 34.5528 31.9921L31.6322 34.9155C31.3794 35.1773 31.0458 35.3464 30.6852 35.3955C30.3245 35.4445 29.9579 35.3707 29.6444 35.1858C23.5293 31.5723 18.4272 26.4718 14.8122 20.3582C14.6276 20.0445 14.5541 19.6778 14.6033 19.3172C14.6525 18.9565 14.8217 18.623 15.0836 18.3702L18.0042 15.4484C18.4446 15.018 18.7439 14.464 18.8626 13.8598C18.9812 13.2556 18.9136 12.6296 18.6687 12.0646L15.3637 4.16709C15.1533 3.65432 14.8074 3.20838 14.3631 2.87694C13.9188 2.54549 13.3928 2.341 12.8412 2.28534L10.5018 2.0298C9.70331 1.93304 8.89403 2.07309 8.17455 2.43252C5.96051 3.50585 4.1794 5.30294 3.12605 7.52633C1.37081 11.2367 1.67187 16.054 3.99907 21.4585C6.05947 26.2401 9.66656 31.3472 14.1595 35.84C18.6524 40.3328 23.7607 43.9399 28.5423 45.9979C31.2449 47.2378 34.1703 47.9184 37.1427 47.9988C38.9818 48.0246 40.8034 47.6406 42.4754 46.8744C44.6975 45.8199 46.4933 44.0388 47.5658 41.8256C47.9284 41.1068 48.0686 40.2964 47.9686 39.4977L47.7187 37.1565Z" fill="#333333"/>
</svg>
