<svg width="360" height="280" viewBox="0 0 360 280" fill="none" xmlns="http://www.w3.org/2000/svg">
<rect x="0.5" y="0.5" width="359" height="279" rx="15.5" fill="white" stroke="#E3F2FD"/>
<g clip-path="url(#clip0_176_394)">
<path d="M104.553 229.288L96.9885 236.844C95.8009 238.03 93.8529 237.977 92.7355 236.727C74.2379 216.063 63 188.784 63 158.876C63 154.914 63.1989 150.998 63.585 147.136C63.7546 145.464 65.299 144.278 66.9604 144.541L78.6955 146.399C80.2341 146.645 81.3105 148.047 81.1409 149.596C80.7547 153.155 80.5558 156.772 80.5558 160.43C80.5558 185.231 89.6585 207.911 104.71 225.32C105.711 226.477 105.646 228.206 104.564 229.288H104.553Z" fill="#D3212C"/>
<path d="M129.959 74.5616C106.834 88.0374 89.647 110.571 83.2647 137.295C82.9078 138.779 81.4746 139.743 79.9653 139.504L68.043 137.616C66.3816 137.353 65.2818 135.746 65.6386 134.104C70.459 111.775 81.6735 91.8124 97.2696 76.2329C104.36 69.1502 112.357 62.9675 121.073 57.8834C122.524 57.036 124.396 57.5854 125.156 59.0814L131.088 70.7164C131.79 72.0955 131.293 73.7843 129.953 74.5674L129.959 74.5616Z" fill="#FF681E"/>
<path d="M228.596 55.8907L222.623 67.6075C221.927 68.9691 220.294 69.571 218.885 68.9691C206.939 63.8908 193.8 61.0858 180.006 61.0858C166.211 61.0858 153.072 63.8967 141.132 68.9691C139.722 69.5652 138.09 68.9691 137.394 67.6075L131.421 55.8907C130.661 54.3947 131.31 52.5656 132.849 51.8877C147.263 45.5296 163.222 42 180 42C196.777 42 212.748 45.5296 227.168 51.8877C228.707 52.5656 229.356 54.3947 228.596 55.8907Z" fill="#F5F5F5"/>
<path d="M180 44.9511V58.2048C180 59.7827 178.748 61.08 177.168 61.1267C176.736 61.1384 176.303 61.1501 175.87 61.1676C163.585 61.6702 151.873 64.3993 141.132 68.9633C139.717 69.5652 138.085 68.9691 137.388 67.6017L131.416 55.8849C130.655 54.3889 131.299 52.5597 132.837 51.8819C146.076 46.0556 160.601 42.5961 175.87 42.076L176.964 42.0351C178.619 41.9708 180 43.2973 180 44.957V44.9511Z" fill="#FFAF10"/>
<path d="M291.958 137.616L280.041 139.504C278.532 139.743 277.099 138.779 276.742 137.295C270.359 110.577 253.172 88.0432 230.047 74.5674C228.707 73.7844 228.204 72.1014 228.912 70.7222L234.844 59.0872C235.61 57.5912 237.477 57.0419 238.927 57.8893C247.638 62.9792 255.635 69.1619 262.725 76.2446C278.327 91.8241 289.536 111.781 294.356 134.11C294.713 135.752 293.613 137.359 291.952 137.622L291.958 137.616Z" fill="#F5F5F5"/>
<path d="M297 158.876C297 188.779 285.763 216.057 267.271 236.721C266.148 237.972 264.205 238.024 263.018 236.838L255.454 229.282C254.372 228.201 254.307 226.471 255.308 225.314C270.354 207.905 279.456 185.226 279.456 160.424C279.456 156.76 279.257 153.143 278.871 149.59C278.702 148.041 279.778 146.639 281.317 146.394L293.052 144.535C294.713 144.272 296.257 145.459 296.427 147.13C296.813 150.993 297.006 154.908 297.006 158.87L297 158.876Z" fill="#F5F5F5"/>
<path d="M144.948 123.986C144.855 123.986 144.808 123.939 144.808 123.846V119.702C144.808 119.665 144.803 119.641 144.794 119.632L141.882 114.368C141.863 114.331 141.854 114.303 141.854 114.284C141.854 114.228 141.896 114.2 141.98 114.2H142.736C142.82 114.2 142.876 114.233 142.904 114.298L145.256 118.568C145.265 118.577 145.279 118.582 145.298 118.582C145.317 118.582 145.331 118.577 145.34 118.568L147.706 114.298C147.743 114.233 147.799 114.2 147.874 114.2H148.63C148.686 114.2 148.723 114.219 148.742 114.256C148.761 114.284 148.756 114.321 148.728 114.368L145.816 119.632C145.807 119.641 145.802 119.665 145.802 119.702V123.846C145.802 123.939 145.755 123.986 145.662 123.986H144.948ZM152.24 124.112C151.568 124.112 150.989 123.939 150.504 123.594C150.019 123.249 149.683 122.773 149.496 122.166C149.365 121.737 149.3 121.163 149.3 120.444C149.3 119.725 149.365 119.156 149.496 118.736C149.673 118.139 150.005 117.667 150.49 117.322C150.975 116.977 151.563 116.804 152.254 116.804C152.917 116.804 153.486 116.977 153.962 117.322C154.447 117.667 154.779 118.134 154.956 118.722C155.087 119.123 155.152 119.697 155.152 120.444C155.152 121.2 155.087 121.774 154.956 122.166C154.779 122.773 154.447 123.249 153.962 123.594C153.486 123.939 152.912 124.112 152.24 124.112ZM152.24 123.244C152.688 123.244 153.071 123.123 153.388 122.88C153.705 122.628 153.92 122.292 154.032 121.872C154.116 121.536 154.158 121.065 154.158 120.458C154.158 119.842 154.121 119.371 154.046 119.044C153.934 118.624 153.715 118.293 153.388 118.05C153.071 117.798 152.683 117.672 152.226 117.672C151.769 117.672 151.381 117.798 151.064 118.05C150.747 118.293 150.532 118.624 150.42 119.044C150.345 119.371 150.308 119.842 150.308 120.458C150.308 121.074 150.345 121.545 150.42 121.872C150.523 122.292 150.733 122.628 151.05 122.88C151.377 123.123 151.773 123.244 152.24 123.244ZM161.451 117.056C161.451 116.963 161.498 116.916 161.591 116.916H162.305C162.398 116.916 162.445 116.963 162.445 117.056V123.86C162.445 123.953 162.398 124 162.305 124H161.591C161.498 124 161.451 123.953 161.451 123.86V123.258C161.451 123.239 161.442 123.225 161.423 123.216C161.404 123.207 161.39 123.211 161.381 123.23C160.989 123.809 160.368 124.098 159.519 124.098C159.071 124.098 158.656 124.009 158.273 123.832C157.9 123.645 157.601 123.379 157.377 123.034C157.162 122.689 157.055 122.273 157.055 121.788V117.056C157.055 116.963 157.102 116.916 157.195 116.916H157.909C158.002 116.916 158.049 116.963 158.049 117.056V121.494C158.049 122.026 158.198 122.451 158.497 122.768C158.796 123.076 159.202 123.23 159.715 123.23C160.247 123.23 160.667 123.071 160.975 122.754C161.292 122.437 161.451 122.017 161.451 121.494V117.056ZM167.529 116.846C167.837 116.846 168.103 116.907 168.327 117.028C168.401 117.065 168.429 117.126 168.411 117.21L168.257 117.896C168.229 117.989 168.168 118.017 168.075 117.98C167.916 117.915 167.734 117.882 167.529 117.882L167.347 117.896C166.861 117.915 166.46 118.097 166.143 118.442C165.825 118.778 165.667 119.207 165.667 119.73V123.86C165.667 123.953 165.62 124 165.527 124H164.813C164.719 124 164.673 123.953 164.673 123.86V117.056C164.673 116.963 164.719 116.916 164.813 116.916H165.527C165.62 116.916 165.667 116.963 165.667 117.056V117.91C165.667 117.938 165.671 117.957 165.681 117.966C165.699 117.966 165.713 117.957 165.723 117.938C165.919 117.593 166.166 117.327 166.465 117.14C166.773 116.944 167.127 116.846 167.529 116.846ZM174.899 124.07C174.376 124.07 173.91 123.986 173.499 123.818C173.098 123.65 172.785 123.426 172.561 123.146C172.346 122.866 172.239 122.553 172.239 122.208V122.04C172.239 121.947 172.286 121.9 172.379 121.9H173.051C173.144 121.9 173.191 121.947 173.191 122.04V122.152C173.191 122.46 173.35 122.731 173.667 122.964C173.994 123.188 174.4 123.3 174.885 123.3C175.37 123.3 175.762 123.193 176.061 122.978C176.36 122.754 176.509 122.474 176.509 122.138C176.509 121.905 176.43 121.713 176.271 121.564C176.122 121.415 175.94 121.298 175.725 121.214C175.52 121.13 175.198 121.023 174.759 120.892C174.236 120.743 173.807 120.593 173.471 120.444C173.135 120.295 172.85 120.089 172.617 119.828C172.393 119.557 172.281 119.217 172.281 118.806C172.281 118.209 172.514 117.733 172.981 117.378C173.448 117.023 174.064 116.846 174.829 116.846C175.342 116.846 175.795 116.93 176.187 117.098C176.588 117.266 176.896 117.499 177.111 117.798C177.326 118.087 177.433 118.414 177.433 118.778V118.82C177.433 118.913 177.386 118.96 177.293 118.96H176.635C176.542 118.96 176.495 118.913 176.495 118.82V118.778C176.495 118.461 176.341 118.195 176.033 117.98C175.734 117.765 175.328 117.658 174.815 117.658C174.339 117.658 173.956 117.756 173.667 117.952C173.378 118.139 173.233 118.4 173.233 118.736C173.233 119.053 173.373 119.296 173.653 119.464C173.933 119.632 174.367 119.8 174.955 119.968C175.496 120.127 175.935 120.276 176.271 120.416C176.607 120.556 176.896 120.761 177.139 121.032C177.382 121.293 177.503 121.639 177.503 122.068C177.503 122.675 177.265 123.16 176.789 123.524C176.313 123.888 175.683 124.07 174.899 124.07ZM181.989 124.112C181.317 124.112 180.739 123.939 180.253 123.594C179.777 123.239 179.451 122.763 179.273 122.166C179.152 121.755 179.091 121.177 179.091 120.43C179.091 119.758 179.152 119.189 179.273 118.722C179.441 118.143 179.768 117.681 180.253 117.336C180.739 116.981 181.317 116.804 181.989 116.804C182.671 116.804 183.259 116.977 183.753 117.322C184.257 117.667 184.584 118.097 184.733 118.61C184.78 118.778 184.808 118.918 184.817 119.03V119.058C184.817 119.123 184.775 119.165 184.691 119.184L183.991 119.282H183.963C183.898 119.282 183.856 119.24 183.837 119.156L183.795 118.946C183.711 118.591 183.506 118.293 183.179 118.05C182.853 117.798 182.456 117.672 181.989 117.672C181.523 117.672 181.131 117.798 180.813 118.05C180.505 118.293 180.305 118.619 180.211 119.03C180.127 119.385 180.085 119.856 180.085 120.444C180.085 121.06 180.127 121.536 180.211 121.872C180.305 122.292 180.505 122.628 180.813 122.88C181.131 123.123 181.523 123.244 181.989 123.244C182.447 123.244 182.839 123.127 183.165 122.894C183.501 122.651 183.711 122.343 183.795 121.97V121.914L183.809 121.858C183.819 121.765 183.875 121.727 183.977 121.746L184.663 121.858C184.757 121.877 184.799 121.928 184.789 122.012L184.733 122.292C184.593 122.833 184.271 123.272 183.767 123.608C183.263 123.944 182.671 124.112 181.989 124.112ZM189.25 124.112C188.578 124.112 187.999 123.939 187.514 123.594C187.028 123.249 186.692 122.773 186.506 122.166C186.375 121.737 186.31 121.163 186.31 120.444C186.31 119.725 186.375 119.156 186.506 118.736C186.683 118.139 187.014 117.667 187.5 117.322C187.985 116.977 188.573 116.804 189.264 116.804C189.926 116.804 190.496 116.977 190.972 117.322C191.457 117.667 191.788 118.134 191.966 118.722C192.096 119.123 192.162 119.697 192.162 120.444C192.162 121.2 192.096 121.774 191.966 122.166C191.788 122.773 191.457 123.249 190.972 123.594C190.496 123.939 189.922 124.112 189.25 124.112ZM189.25 123.244C189.698 123.244 190.08 123.123 190.398 122.88C190.715 122.628 190.93 122.292 191.042 121.872C191.126 121.536 191.168 121.065 191.168 120.458C191.168 119.842 191.13 119.371 191.056 119.044C190.944 118.624 190.724 118.293 190.398 118.05C190.08 117.798 189.693 117.672 189.236 117.672C188.778 117.672 188.391 117.798 188.074 118.05C187.756 118.293 187.542 118.624 187.43 119.044C187.355 119.371 187.318 119.842 187.318 120.458C187.318 121.074 187.355 121.545 187.43 121.872C187.532 122.292 187.742 122.628 188.06 122.88C188.386 123.123 188.783 123.244 189.25 123.244ZM197.033 116.846C197.341 116.846 197.607 116.907 197.831 117.028C197.905 117.065 197.933 117.126 197.915 117.21L197.761 117.896C197.733 117.989 197.672 118.017 197.579 117.98C197.42 117.915 197.238 117.882 197.033 117.882L196.851 117.896C196.365 117.915 195.964 118.097 195.647 118.442C195.329 118.778 195.171 119.207 195.171 119.73V123.86C195.171 123.953 195.124 124 195.031 124H194.317C194.223 124 194.177 123.953 194.177 123.86V117.056C194.177 116.963 194.223 116.916 194.317 116.916H195.031C195.124 116.916 195.171 116.963 195.171 117.056V117.91C195.171 117.938 195.175 117.957 195.185 117.966C195.203 117.966 195.217 117.957 195.227 117.938C195.423 117.593 195.67 117.327 195.969 117.14C196.277 116.944 196.631 116.846 197.033 116.846ZM204.64 119.268C204.677 119.529 204.696 119.856 204.696 120.248V120.696C204.696 120.789 204.649 120.836 204.556 120.836H200.034C199.997 120.836 199.978 120.855 199.978 120.892C199.997 121.405 200.025 121.737 200.062 121.886C200.165 122.306 200.384 122.637 200.72 122.88C201.056 123.123 201.485 123.244 202.008 123.244C202.4 123.244 202.745 123.155 203.044 122.978C203.343 122.801 203.576 122.549 203.744 122.222C203.8 122.138 203.865 122.119 203.94 122.166L204.486 122.488C204.561 122.535 204.579 122.6 204.542 122.684C204.309 123.132 203.959 123.487 203.492 123.748C203.025 124 202.489 124.126 201.882 124.126C201.219 124.117 200.664 123.958 200.216 123.65C199.768 123.342 199.446 122.913 199.25 122.362C199.082 121.914 198.998 121.27 198.998 120.43C198.998 120.038 199.003 119.721 199.012 119.478C199.031 119.226 199.068 119.002 199.124 118.806C199.283 118.199 199.6 117.714 200.076 117.35C200.561 116.986 201.145 116.804 201.826 116.804C202.675 116.804 203.329 117.019 203.786 117.448C204.243 117.877 204.528 118.484 204.64 119.268ZM201.826 117.672C201.369 117.672 200.986 117.793 200.678 118.036C200.379 118.269 200.183 118.587 200.09 118.988C200.034 119.184 199.997 119.501 199.978 119.94C199.978 119.977 199.997 119.996 200.034 119.996H203.66C203.697 119.996 203.716 119.977 203.716 119.94C203.697 119.52 203.669 119.221 203.632 119.044C203.529 118.624 203.319 118.293 203.002 118.05C202.694 117.798 202.302 117.672 201.826 117.672ZM210.147 115.628C209.923 115.628 209.737 115.553 209.587 115.404C209.438 115.255 209.363 115.068 209.363 114.844C209.363 114.611 209.438 114.424 209.587 114.284C209.737 114.135 209.923 114.06 210.147 114.06C210.371 114.06 210.558 114.135 210.707 114.284C210.857 114.424 210.931 114.611 210.931 114.844C210.931 115.068 210.857 115.255 210.707 115.404C210.558 115.553 210.371 115.628 210.147 115.628ZM209.755 123.986C209.662 123.986 209.615 123.939 209.615 123.846V117.042C209.615 116.949 209.662 116.902 209.755 116.902H210.469C210.563 116.902 210.609 116.949 210.609 117.042V123.846C210.609 123.939 210.563 123.986 210.469 123.986H209.755ZM215.368 124.07C214.845 124.07 214.378 123.986 213.968 123.818C213.566 123.65 213.254 123.426 213.03 123.146C212.815 122.866 212.708 122.553 212.708 122.208V122.04C212.708 121.947 212.754 121.9 212.848 121.9H213.52C213.613 121.9 213.66 121.947 213.66 122.04V122.152C213.66 122.46 213.818 122.731 214.136 122.964C214.462 123.188 214.868 123.3 215.354 123.3C215.839 123.3 216.231 123.193 216.53 122.978C216.828 122.754 216.978 122.474 216.978 122.138C216.978 121.905 216.898 121.713 216.74 121.564C216.59 121.415 216.408 121.298 216.194 121.214C215.988 121.13 215.666 121.023 215.228 120.892C214.705 120.743 214.276 120.593 213.94 120.444C213.604 120.295 213.319 120.089 213.086 119.828C212.862 119.557 212.75 119.217 212.75 118.806C212.75 118.209 212.983 117.733 213.45 117.378C213.916 117.023 214.532 116.846 215.298 116.846C215.811 116.846 216.264 116.93 216.656 117.098C217.057 117.266 217.365 117.499 217.58 117.798C217.794 118.087 217.902 118.414 217.902 118.778V118.82C217.902 118.913 217.855 118.96 217.762 118.96H217.104C217.01 118.96 216.964 118.913 216.964 118.82V118.778C216.964 118.461 216.81 118.195 216.502 117.98C216.203 117.765 215.797 117.658 215.284 117.658C214.808 117.658 214.425 117.756 214.136 117.952C213.846 118.139 213.702 118.4 213.702 118.736C213.702 119.053 213.842 119.296 214.122 119.464C214.402 119.632 214.836 119.8 215.424 119.968C215.965 120.127 216.404 120.276 216.74 120.416C217.076 120.556 217.365 120.761 217.608 121.032C217.85 121.293 217.972 121.639 217.972 122.068C217.972 122.675 217.734 123.16 217.258 123.524C216.782 123.888 216.152 124.07 215.368 124.07Z" fill="#333333"/>
<path d="M154.899 220.112C154.227 220.112 153.648 219.939 153.163 219.594C152.678 219.249 152.342 218.773 152.155 218.166C152.024 217.737 151.959 217.163 151.959 216.444C151.959 215.725 152.024 215.156 152.155 214.736C152.332 214.139 152.664 213.667 153.149 213.322C153.634 212.977 154.222 212.804 154.913 212.804C155.576 212.804 156.145 212.977 156.621 213.322C157.106 213.667 157.438 214.134 157.615 214.722C157.746 215.123 157.811 215.697 157.811 216.444C157.811 217.2 157.746 217.774 157.615 218.166C157.438 218.773 157.106 219.249 156.621 219.594C156.145 219.939 155.571 220.112 154.899 220.112ZM154.899 219.244C155.347 219.244 155.73 219.123 156.047 218.88C156.364 218.628 156.579 218.292 156.691 217.872C156.775 217.536 156.817 217.065 156.817 216.458C156.817 215.842 156.78 215.371 156.705 215.044C156.593 214.624 156.374 214.293 156.047 214.05C155.73 213.798 155.342 213.672 154.885 213.672C154.428 213.672 154.04 213.798 153.723 214.05C153.406 214.293 153.191 214.624 153.079 215.044C153.004 215.371 152.967 215.842 152.967 216.458C152.967 217.074 153.004 217.545 153.079 217.872C153.182 218.292 153.392 218.628 153.709 218.88C154.036 219.123 154.432 219.244 154.899 219.244ZM164.11 213.056C164.11 212.963 164.157 212.916 164.25 212.916H164.964C165.057 212.916 165.104 212.963 165.104 213.056V219.86C165.104 219.953 165.057 220 164.964 220H164.25C164.157 220 164.11 219.953 164.11 219.86V219.258C164.11 219.239 164.101 219.225 164.082 219.216C164.063 219.207 164.049 219.211 164.04 219.23C163.648 219.809 163.027 220.098 162.178 220.098C161.73 220.098 161.315 220.009 160.932 219.832C160.559 219.645 160.26 219.379 160.036 219.034C159.821 218.689 159.714 218.273 159.714 217.788V213.056C159.714 212.963 159.761 212.916 159.854 212.916H160.568C160.661 212.916 160.708 212.963 160.708 213.056V217.494C160.708 218.026 160.857 218.451 161.156 218.768C161.455 219.076 161.861 219.23 162.374 219.23C162.906 219.23 163.326 219.071 163.634 218.754C163.951 218.437 164.11 218.017 164.11 217.494V213.056ZM170.51 213.602C170.51 213.695 170.463 213.742 170.37 213.742H168.788C168.751 213.742 168.732 213.761 168.732 213.798V217.928C168.732 218.376 168.83 218.693 169.026 218.88C169.231 219.057 169.549 219.146 169.978 219.146H170.328C170.421 219.146 170.468 219.193 170.468 219.286V219.86C170.468 219.953 170.421 220 170.328 220C170.216 220.009 170.043 220.014 169.81 220.014C169.138 220.014 168.629 219.888 168.284 219.636C167.939 219.384 167.766 218.917 167.766 218.236V213.798C167.766 213.761 167.747 213.742 167.71 213.742H166.856C166.763 213.742 166.716 213.695 166.716 213.602V213.056C166.716 212.963 166.763 212.916 166.856 212.916H167.71C167.747 212.916 167.766 212.897 167.766 212.86V211.236C167.766 211.143 167.813 211.096 167.906 211.096H168.592C168.685 211.096 168.732 211.143 168.732 211.236V212.86C168.732 212.897 168.751 212.916 168.788 212.916H170.37C170.463 212.916 170.51 212.963 170.51 213.056V213.602ZM177.936 220.112C177.264 220.112 176.686 219.939 176.2 219.594C175.715 219.249 175.379 218.773 175.192 218.166C175.062 217.737 174.996 217.163 174.996 216.444C174.996 215.725 175.062 215.156 175.192 214.736C175.37 214.139 175.701 213.667 176.186 213.322C176.672 212.977 177.26 212.804 177.95 212.804C178.613 212.804 179.182 212.977 179.658 213.322C180.144 213.667 180.475 214.134 180.652 214.722C180.783 215.123 180.848 215.697 180.848 216.444C180.848 217.2 180.783 217.774 180.652 218.166C180.475 218.773 180.144 219.249 179.658 219.594C179.182 219.939 178.608 220.112 177.936 220.112ZM177.936 219.244C178.384 219.244 178.767 219.123 179.084 218.88C179.402 218.628 179.616 218.292 179.728 217.872C179.812 217.536 179.854 217.065 179.854 216.458C179.854 215.842 179.817 215.371 179.742 215.044C179.63 214.624 179.411 214.293 179.084 214.05C178.767 213.798 178.38 213.672 177.922 213.672C177.465 213.672 177.078 213.798 176.76 214.05C176.443 214.293 176.228 214.624 176.116 215.044C176.042 215.371 176.004 215.842 176.004 216.458C176.004 217.074 176.042 217.545 176.116 217.872C176.219 218.292 176.429 218.628 176.746 218.88C177.073 219.123 177.47 219.244 177.936 219.244ZM185.581 211.068C185.068 211.068 184.718 211.185 184.531 211.418C184.344 211.642 184.251 212.029 184.251 212.58V212.86C184.251 212.897 184.27 212.916 184.307 212.916H185.875C185.968 212.916 186.015 212.963 186.015 213.056V213.686C186.015 213.779 185.968 213.826 185.875 213.826H184.307C184.27 213.826 184.251 213.845 184.251 213.882V219.86C184.251 219.953 184.204 220 184.111 220H183.411C183.318 220 183.271 219.953 183.271 219.86V213.882C183.271 213.845 183.252 213.826 183.215 213.826H182.277C182.184 213.826 182.137 213.779 182.137 213.686V213.056C182.137 212.963 182.184 212.916 182.277 212.916H183.215C183.252 212.916 183.271 212.897 183.271 212.86V212.524C183.271 211.945 183.336 211.493 183.467 211.166C183.598 210.83 183.822 210.587 184.139 210.438C184.466 210.279 184.918 210.2 185.497 210.2H185.903C185.996 210.2 186.043 210.247 186.043 210.34V210.928C186.043 211.021 185.996 211.068 185.903 211.068H185.581ZM191.568 220C191.521 220 191.484 219.986 191.456 219.958C191.437 219.921 191.437 219.879 191.456 219.832L194.69 211.138C194.699 211.119 194.699 211.105 194.69 211.096C194.681 211.077 194.667 211.068 194.648 211.068H190.868C190.831 211.068 190.812 211.087 190.812 211.124V211.768C190.812 211.861 190.765 211.908 190.672 211.908H190.098C190.005 211.908 189.958 211.861 189.958 211.768L189.972 210.34C189.972 210.247 190.019 210.2 190.112 210.2H195.628C195.721 210.2 195.768 210.247 195.768 210.34V210.984C195.768 211.021 195.759 211.077 195.74 211.152L192.52 219.888C192.492 219.963 192.436 220 192.352 220H191.568ZM198.632 210.242C198.688 210.214 198.749 210.2 198.814 210.2H199.57C199.664 210.2 199.71 210.247 199.71 210.34V219.86C199.71 219.953 199.664 220 199.57 220H198.856C198.763 220 198.716 219.953 198.716 219.86V211.334C198.716 211.315 198.707 211.301 198.688 211.292C198.679 211.283 198.665 211.283 198.646 211.292L197.162 211.894L197.106 211.908C197.05 211.908 197.013 211.871 196.994 211.796L196.924 211.264V211.236C196.924 211.189 196.957 211.143 197.022 211.096L198.632 210.242ZM204.941 220.14C204.045 220.14 203.331 219.883 202.799 219.37C202.267 218.857 202.001 218.171 202.001 217.312V212.888C202.001 212.029 202.267 211.348 202.799 210.844C203.331 210.331 204.045 210.074 204.941 210.074C205.846 210.074 206.57 210.331 207.111 210.844C207.652 211.357 207.923 212.039 207.923 212.888V217.312C207.923 218.171 207.652 218.857 207.111 219.37C206.57 219.883 205.846 220.14 204.941 220.14ZM204.941 219.272C205.538 219.272 206.019 219.099 206.383 218.754C206.747 218.409 206.929 217.947 206.929 217.368V212.846C206.929 212.277 206.747 211.819 206.383 211.474C206.028 211.129 205.548 210.956 204.941 210.956C204.353 210.956 203.882 211.129 203.527 211.474C203.172 211.819 202.995 212.277 202.995 212.846V217.368C202.995 217.947 203.172 218.409 203.527 218.754C203.882 219.099 204.353 219.272 204.941 219.272Z" fill="#333333"/>
<path d="M165.194 169.928C165.61 171.368 165.818 172.856 165.818 174.392C165.818 175.896 165.61 177.32 165.194 178.664C164.522 180.712 163.29 182.344 161.498 183.56C159.706 184.744 157.61 185.336 155.21 185.336C152.842 185.336 150.778 184.76 149.018 183.608C147.258 182.424 146.026 180.84 145.322 178.856C145.066 178.152 144.858 177.352 144.698 176.456V176.36C144.698 176.008 144.89 175.832 145.274 175.832H149.834C150.154 175.832 150.362 176.008 150.458 176.36C150.49 176.552 150.57 176.84 150.698 177.224C151.05 178.28 151.61 179.096 152.378 179.672C153.146 180.248 154.074 180.536 155.162 180.536C156.282 180.536 157.242 180.232 158.042 179.624C158.842 178.984 159.402 178.12 159.722 177.032C160.01 176.264 160.154 175.384 160.154 174.392C160.154 173.464 160.026 172.552 159.77 171.656C159.546 170.6 159.034 169.8 158.234 169.256C157.434 168.68 156.458 168.392 155.306 168.392C154.218 168.392 153.226 168.648 152.33 169.16C151.466 169.64 150.906 170.28 150.65 171.08C150.522 171.4 150.298 171.56 149.978 171.56H145.322C145.162 171.56 145.018 171.512 144.89 171.416C144.794 171.288 144.746 171.144 144.746 170.984V151.976C144.746 151.816 144.794 151.688 144.89 151.592C145.018 151.464 145.162 151.4 145.322 151.4H163.994C164.154 151.4 164.282 151.464 164.378 151.592C164.506 151.688 164.57 151.816 164.57 151.976V155.624C164.57 155.784 164.506 155.928 164.378 156.056C164.282 156.152 164.154 156.2 163.994 156.2H150.554C150.394 156.2 150.314 156.28 150.314 156.44L150.266 165.08C150.266 165.208 150.298 165.288 150.362 165.32C150.426 165.32 150.49 165.288 150.554 165.224C152.058 164.104 153.866 163.544 155.978 163.544C158.218 163.544 160.154 164.12 161.786 165.272C163.45 166.392 164.586 167.944 165.194 169.928ZM190.023 170.456C190.727 171.864 191.079 173.48 191.079 175.304C191.079 177.224 190.663 178.968 189.831 180.536C188.999 182.04 187.783 183.224 186.183 184.088C184.583 184.952 182.695 185.384 180.519 185.384C178.375 185.384 176.471 184.968 174.807 184.136C173.143 183.272 171.895 182.024 171.063 180.392C170.231 178.888 169.815 177.176 169.815 175.256C169.815 173.528 170.183 171.896 170.919 170.36C171.559 169.048 172.471 168.056 173.655 167.384C173.815 167.288 173.831 167.176 173.703 167.048C172.903 166.472 172.183 165.672 171.543 164.648C170.711 163.304 170.295 161.816 170.295 160.184C170.295 158.168 170.887 156.36 172.071 154.76C172.935 153.512 174.103 152.552 175.575 151.88C177.047 151.176 178.695 150.824 180.519 150.824C182.407 150.824 184.055 151.176 185.463 151.88C186.903 152.552 188.055 153.512 188.919 154.76C190.039 156.392 190.599 158.2 190.599 160.184C190.599 161.944 190.167 163.48 189.303 164.792C188.695 165.688 187.991 166.424 187.191 167C187.063 167.128 187.063 167.24 187.191 167.336C188.407 168.04 189.351 169.08 190.023 170.456ZM176.391 158.072C176.007 158.904 175.815 159.64 175.815 160.28C175.815 161.368 176.087 162.344 176.631 163.208C177.399 164.52 178.679 165.176 180.471 165.176C182.199 165.176 183.511 164.504 184.407 163.16C184.887 162.456 185.127 161.48 185.127 160.232C185.127 159.528 184.951 158.792 184.599 158.024C184.183 157.288 183.623 156.712 182.919 156.296C182.215 155.848 181.383 155.624 180.423 155.624C179.527 155.624 178.727 155.848 178.023 156.296C177.319 156.712 176.775 157.304 176.391 158.072ZM184.455 178.616C185.127 177.688 185.463 176.424 185.463 174.824C185.463 173.352 185.207 172.2 184.695 171.368C183.895 169.896 182.487 169.16 180.471 169.16C178.583 169.16 177.207 169.864 176.343 171.272C175.799 172.136 175.527 173.336 175.527 174.872C175.527 176.344 175.815 177.544 176.391 178.472C177.255 179.88 178.631 180.584 180.519 180.584C182.311 180.584 183.623 179.928 184.455 178.616ZM216.241 169.928C216.657 171.368 216.865 172.856 216.865 174.392C216.865 175.896 216.657 177.32 216.241 178.664C215.569 180.712 214.337 182.344 212.545 183.56C210.753 184.744 208.657 185.336 206.257 185.336C203.889 185.336 201.825 184.76 200.065 183.608C198.305 182.424 197.073 180.84 196.369 178.856C196.113 178.152 195.905 177.352 195.745 176.456V176.36C195.745 176.008 195.937 175.832 196.321 175.832H200.881C201.201 175.832 201.409 176.008 201.505 176.36C201.537 176.552 201.617 176.84 201.745 177.224C202.097 178.28 202.657 179.096 203.425 179.672C204.193 180.248 205.121 180.536 206.209 180.536C207.329 180.536 208.289 180.232 209.089 179.624C209.889 178.984 210.449 178.12 210.769 177.032C211.057 176.264 211.201 175.384 211.201 174.392C211.201 173.464 211.073 172.552 210.817 171.656C210.593 170.6 210.081 169.8 209.281 169.256C208.481 168.68 207.505 168.392 206.353 168.392C205.265 168.392 204.273 168.648 203.377 169.16C202.513 169.64 201.953 170.28 201.697 171.08C201.569 171.4 201.345 171.56 201.025 171.56H196.369C196.209 171.56 196.065 171.512 195.937 171.416C195.841 171.288 195.793 171.144 195.793 170.984V151.976C195.793 151.816 195.841 151.688 195.937 151.592C196.065 151.464 196.209 151.4 196.369 151.4H215.041C215.201 151.4 215.329 151.464 215.425 151.592C215.553 151.688 215.617 151.816 215.617 151.976V155.624C215.617 155.784 215.553 155.928 215.425 156.056C215.329 156.152 215.201 156.2 215.041 156.2H201.601C201.441 156.2 201.361 156.28 201.361 156.44L201.313 165.08C201.313 165.208 201.345 165.288 201.409 165.32C201.473 165.32 201.537 165.288 201.601 165.224C203.105 164.104 204.913 163.544 207.025 163.544C209.265 163.544 211.201 164.12 212.833 165.272C214.497 166.392 215.633 167.944 216.241 169.928Z" fill="#333333"/>
</g>
<defs>
<clipPath id="clip0_176_394">
<rect width="234" height="197" fill="white" transform="translate(63 42)"/>
</clipPath>
</defs>
</svg>
